SplineFontDB: 3.2
FontName: twemoji_faces
FullName: twemoji_faces
FamilyName: twemoji_faces
Weight: Regular
Copyright: dragon dick cock
UComments: "2023-7-8: Created with FontForge (http://fontforge.org)"
Version: 001.000
ItalicAngle: 0
UnderlinePosition: -86
UnderlineWidth: 43
Ascent: 648
Descent: 216
InvalidEm: 0
LayerCount: 2
Layer: 0 0 "Back" 1
Layer: 1 1 "Fore" 0
XUID: [1021 677 1622773792 2229825]
StyleMap: 0x0000
FSType: 0
OS2Version: 0
OS2_WeightWidthSlopeOnly: 0
OS2_UseTypoMetrics: 1
CreationTime: 1688857346
ModificationTime: 1689803558
PfmFamily: 81
TTFWeight: 400
TTFWidth: 5
LineGap: 78
VLineGap: 0
Panose: 0 0 0 0 0 0 0 0 0 0
OS2TypoAscent: 0
OS2TypoAOffset: 1
OS2TypoDescent: 0
OS2TypoDOffset: 1
OS2TypoLinegap: 78
OS2WinAscent: 0
OS2WinAOffset: 1
OS2WinDescent: 0
OS2WinDOffset: 1
HheadAscent: 0
HheadAOffset: 1
HheadDescent: 0
HheadDOffset: 1
OS2Vendor: '12;;'
MarkAttachClasses: 1
DEI: 91125
LangName: 1033
Encoding: Original
UnicodeInterp: none
NameList: AGL For New Fonts
DisplaySize: -72
AntiAlias: 1
FitToEm: 0
WinInfo: 36 18 8
BeginPrivate: 0
EndPrivate
TeXData: 1 0 0 346030 173015 115343 233017 1048576 115343 783286 444596 497025 792723 393216 433062 380633 303038 157286 324010 404750 52429 2506097 1059062 262144
BeginChars: 386 385

StartChar: eyebrow.13
Encoding: 0 -1 0
Width: 0
GlyphClass: 5
Flags: W
LayerCount: 2
Back
SplineSet
5.8314261128 -23.2853812618 m 5
 5.8314261128 -23.2853812618 5.83359665285 -23.2940484132 5.81245051345 -23.2901251617 c 1
 3.96614122503 -23.7609122709 2.01233346598 -24.008800147 0.00108527002429 -24.008800147 c 1
 -13.2473398977 -24.008800147 -24.0033813013 -13.2527587434 -24.0033813013 -0.00433357566378 c 1
 -24.0033813013 11.2328433961 -16.2652090599 20.6769355205 -5.8314261128 23.2853812618 c 1
 -5.8314261128 23.2853812618 -5.96332255109 23.2517728656 -5.91115970543 23.2652546695 c 1
 -5.85588158214 23.2795416359 -3.67888864072 23.8446529662 0.100196149161 25.114758598 c 1
 3.50132956663 26.2578392507 8.19982496417 27.9719360955 13.8176101408 30.3634430382 c 1
 19.4354583357 32.7549768079 25.9719623664 35.8238607971 33.0534937519 39.66926733 c 1
 38.7188176825 42.7456462186 44.7326968248 46.3186849405 50.9089731424 50.4362024856 c 1
 62.0284206749 57.8491675072 73.6638489507 67.0211503294 84.8054437021 78.2417634832 c 1
 90.9961992535 84.4764251024 97.0369434376 91.3441818967 102.769155593 98.9091421566 c 1
 109.934814975 108.365862701 116.620572793 118.911450657 122.519752004 130.70980908 c 9
 122.544003939 130.758312949 l 17
 126.482562047 138.635429165 134.627050937 144.049661279 144.026122598 144.049661279 c 1
 157.273236157 144.049661279 168.0282127 133.294684736 168.0282127 120.047571177 c 1
 168.0282127 116.199529278 167.12071291 112.561772712 165.480247996 109.29019092 c 1
 158.210702927 94.7511007837 149.921327099 81.6688542288 141.048821808 69.9595615324 c 1
 133.950502226 60.5917111996 126.480374816 52.1022230135 118.860528626 44.4283353612 c 1
 105.143040243 30.6135598266 90.9482597092 19.4439280575 77.486088586 10.4691473087 c 1
 70.0059100949 5.48236164793 62.7487017599 1.17142704698 55.9089152548 -2.54270740763 c 1
 47.3590585957 -7.18544255381 39.4610137092 -10.8961690255 32.5845304543 -13.8235072786 c 1
 25.7079841812 -16.7508723587 19.8523655964 -18.8949090986 15.3829808389 -20.3970163725 c 1
 9.79634106831 -22.2746198216 6.37509893212 -23.1494630568 5.8314261128 -23.2853812618 c 5
0 0 m 17
 0 0 96 24 144 120 c 1033
EndSplineSet
Fore
SplineSet
-24 0 m 131,-1,1
 -24 10 -24 10 -17 17 c 1,2,3
 -13 21 -13 21 -7 23 c 1,4,5
 81 51 81 51 122 130 c 1,6,7
 124 134 124 134 127 137 c 1,8,9
 134 144 134 144 144 144 c 131,-1,10
 154 144 154 144 161 137 c 129,-1,11
 168 130 168 130 168 120 c 3,12,13
 168 115 168 115 166 110 c 1,14,15
 114 11 114 11 7 -23 c 1,16,17
 4 -24 4 -24 0 -24 c 3,18,19
 -10 -24 -10 -24 -17 -17 c 129,-1,0
 -24 -10 -24 -10 -24 0 c 131,-1,1
EndSplineSet
Colour: ff00ff
EndChar

StartChar: eyebrow.12b
Encoding: 1 -1 1
Width: 0
GlyphClass: 5
Flags: W
LayerCount: 2
Back
SplineSet
5.83142609649 23.2853812659 m 4
 16.2863551915 20.6808587817 24.0245274409 11.2367666534 24.0245274409 -0.00041032424048 c 0
 24.0245274409 -13.2488354919 13.2684860373 -24.0048768955 0.0200608696366 -24.0048768955 c 0
 -1.99118732046 -24.0048768955 -3.94499507399 -23.7569890209 -5.81245049688 -23.2901251658 c 2
 -5.83142609649 -23.2853812659 l 1
 -5.83142609649 -23.2853812659 -5.75222579672 -23.3049189376 -5.79712945513 -23.2939367678 c 0
 -5.92277131018 -23.26320831 -7.77061051583 -22.8144055961 -10.9526046839 -22.1924451305 c 0
 -13.8161762229 -21.632724341 -17.7604482126 -20.9328800569 -22.4959267622 -20.2682514886 c 0
 -27.2310945183 -19.6036665404 -32.7576609216 -18.9746871989 -38.7757879122 -18.5495656455 c 0
 -43.5899673713 -18.2094911583 -48.7184353201 -18 -54 -18 c 0
 -58.5845150254 -18 -63.2922595014 -18.1578401133 -68.0188758573 -18.51920222 c 0
 -71.8001212626 -18.8082882601 -75.5931809216 -19.227567773 -79.3441593038 -19.7958978309 c 0
 -83.0951752852 -20.3642335856 -86.80373041 -21.0816900279 -90.4174793649 -21.9614416462 c 0
 -93.3085352446 -22.665256748 -96.1387160832 -23.472790749 -98.8836665386 -24.3877742341 c 0
 -102.589785802 -25.6231473219 -106.138836809 -27.0541210455 -109.485653615 -28.6846215409 c 0
 -112.461214903 -30.1342539628 -115.276580607 -31.7406596393 -117.918770447 -33.5108396309 c 0
 -121.222682124 -35.7243514143 -124.255969151 -38.1904391507 -127.032765 -40.967235 c 0
 -131.376168137 -45.3106381374 -137.374991601 -47.9986209489 -143.996672904 -47.9986209489 c 0
 -157.240035511 -47.9986209489 -167.991966757 -37.2466897028 -167.991966757 -24.0033270959 c 0
 -167.991966757 -17.3816457925 -165.303983946 -11.3828223293 -160.967235 -7.032765 c 0
 -155.842796281 -1.90832628135 -150.324541369 2.55135949232 -144.587173455 6.39520664223 c 0
 -139.996339623 9.47091379737 -135.265249559 12.1546099384 -130.463134679 14.4941018031 c 0
 -125.060065797 17.12636613 -119.566592799 19.3241075414 -114.054605066 21.1614367855 c 0
 -109.971328117 22.5225291019 -105.876939719 23.6859884316 -101.794660742 24.6798016656 c 0
 -96.6917411266 25.9220854671 -91.6074314012 26.89953164 -86.582308545 27.660913891 c 0
 -81.5571480896 28.4223018388 -76.5907949235 28.9675557221 -71.7222758091 29.3397666636 c 0
 -65.6366865152 29.8050257839 -59.7035508182 30 -54 30 c 0
 -47.4297128281 30 -41.1745502327 29.7412698506 -35.3507849341 29.3298780414 c 0
 -28.0714809775 28.8156667244 -21.4657504749 28.0627429007 -15.7756781761 27.2641362622 c 0
 -10.0859166708 26.465573244 -5.31200545673 25.6209375199 -1.70637345293 24.916171753 c 0
 2.80032790385 24.0352807374 5.48178837658 23.3727906958 5.83142609649 23.2853812659 c 4
0 0 m 17
 0 0 -96 24 -144 -24 c 1033
EndSplineSet
Fore
SplineSet
-168 -24 m 131,-1,1
 -168 -14 -168 -14 -161 -7 c 1,2,3
 -132 21 -132 21 -87.5 27.5 c 129,-1,4
 -43 34 -43 34 7 23 c 5,5,6
 13 21 13 21 17 17 c 5,7,8
 24 10 24 10 24 0 c 135,-1,9
 24 -10 24 -10 17 -17 c 133,-1,10
 10 -24 10 -24 -0 -24 c 7,11,12
 -4 -24 -4 -24 -7 -23 c 5,13,14
 -46 -15 -46 -15 -78 -19.5 c 129,-1,15
 -110 -24 -110 -24 -127 -41 c 1,16,17
 -134 -48 -134 -48 -144 -48 c 131,-1,18
 -154 -48 -154 -48 -161 -41 c 129,-1,0
 -168 -34 -168 -34 -168 -24 c 131,-1,1
-144 -24 m 1049,19,-1
EndSplineSet
Colour: ff00ff
EndChar

StartChar: eyebrow.15
Encoding: 2 -1 2
Width: 0
GlyphClass: 5
Flags: W
LayerCount: 2
Back
SplineSet
0 -24 m 0
 -13.245960024 -24 -24.000000024 -13.24596 -24.000000024 0 c 0
 -24.000000024 13.24596 -13.245960024 24 -2.4000000012e-08 24 c 2
 0 24 l 2
 0.0001953125 24 -0.258670434394 23.9982217383 -0.258670434394 23.9982217383 c 1
 -0.258670434394 23.9982217383 -0.291049530209 23.9974760732 -0.269862840249 23.9980330217 c 0
 -0.198867012659 23.9998993359 0.673301822821 24.02556228 2.224758882 24.1853113678 c 0
 3.62112425528 24.3290911091 5.56760321835 24.5814407623 7.97696088527 25.0211045701 c 0
 12.8573364326 25.9116840495 19.6292754899 27.5701237626 27.6103879471 30.6397824 c 0
 33.9968361486 33.0961086313 41.1581613823 36.4537999039 48.7850233658 41.0601224881 c 0
 53.0227305859 43.619529819 57.4052811616 46.5651430963 61.8836508786 49.9630858611 c 0
 67.4817061045 54.2105849408 73.230301368 59.164771368 79.032765 64.967235 c 0
 83.3761681374 69.3106381374 89.3749916006 71.9986209489 95.9966729041 71.9986209489 c 0
 109.240035511 71.9986209489 119.991966757 61.2466897028 119.991966757 48.0033270959 c 0
 119.991966757 41.3816457925 117.303983946 35.3828223293 112.967235 31.032765 c 0
 101.917141166 19.982671166 90.7464841803 11.0928533247 79.9660986327 3.99178025066 c 0
 71.3413557661 -1.68936436795 62.9691958555 -6.22642954009 55.1049188675 -9.83974599402 c 0
 40.9458548403 -16.3452618984 28.4448736943 -19.8568554479 18.9475285284 -21.7563244811 c 0
 14.1972275474 -22.7063846773 10.194087029 -23.2539948715 7.09422520878 -23.5703073022 c 0
 3.21924899468 -23.9657130383 0.755218442327 -23.9999999996 0 -24 c 0
0 0 m 0
 0 0 48 0 96 48 c 1024
EndSplineSet
Fore
SplineSet
-24 0 m 131,-1,1
 -24 10 -24 10 -17 17 c 128,-1,2
 -10 24 -10 24 0 24 c 1,3,4
 16 25 16 25 37.5 35 c 128,-1,5
 59 45 59 45 79 65 c 1,6,7
 86 72 86 72 96 72 c 131,-1,8
 106 72 106 72 113 65 c 128,-1,9
 120 58 120 58 120 48 c 131,-1,10
 120 38 120 38 113 31 c 1,11,12
 83 2 83 2 52.5 -11 c 128,-1,13
 22 -24 22 -24 0 -24 c 1,14,15
 -10 -24 -10 -24 -17 -17 c 128,-1,0
 -24 -10 -24 -10 -24 0 c 131,-1,1
96 48 m 1049,16,-1
EndSplineSet
Colour: ff00ff
EndChar

StartChar: eyebrow.14
Encoding: 3 -1 3
Width: 0
GlyphClass: 5
Flags: W
LayerCount: 2
Back
SplineSet
-175.032765 -64.967235 m 4
 -179.382822329 -69.3039839455 -185.381645793 -71.991966757 -192.003327096 -71.991966757 c 4
 -205.246689703 -71.991966757 -215.998620949 -61.2400355109 -215.998620949 -47.9966729041 c 4
 -215.998620949 -41.3749916006 -213.310638137 -35.3761681374 -208.967235 -31.032765 c 4
 -202.102738627 -24.1682686272 -194.862697045 -18.060381462 -187.390971066 -12.652193153 c 4
 -181.413218763 -8.32537359171 -175.287501076 -4.44566562248 -169.080890838 -0.972241544216 c 4
 -157.907694372 5.28064822115 -146.476836265 10.2170374187 -135.11610808 14.107697756 c 4
 -128.803820868 16.269439952 -122.511246327 18.1088139905 -116.287026878 19.6713594259 c 4
 -108.506658111 21.624564933 -100.832843823 23.1454574417 -93.3551956801 24.3182378908 c 4
 -85.8774854962 25.4910280702 -78.5955593895 26.3156705668 -71.5967842761 26.8712700138 c 4
 -62.8483457735 27.56576691 -54.5419255229 27.84 -46.848 27.84 c 4
 -33.5538095921 27.84 -22.1114456849 27.0232158888 -13.397121566 26.1059186131 c 4
 -2.50563784325 24.9594466423 4.1251019596 23.6541431376 4.72530666123 23.5341021878 c 4
 15.7134088763 21.3364815713 24.0030475741 11.6268154349 24.0030475741 -0.00372104078026 c 4
 24.0030475741 -13.2517753955 13.2473072236 -24.0075157459 -0.000747131063058 -24.0075157459 c 4
 -1.61826501004 -24.0075157459 -3.19862964545 -23.8471785491 -4.68975694594 -23.5412121315 c 4
 -4.72680092336 -23.5415442694 -4.72530666123 -23.5341021878 -4.72530666123 -23.5341021878 c 5
 -4.72530666123 -23.5341021878 -4.64561894052 -23.5498096636 -4.68030304483 -23.5430457829 c 4
 -4.73521907389 -23.5323363966 -6.18048150731 -23.2517559108 -8.7861330065 -22.8573870352 c 4
 -11.1311495974 -22.5024656053 -14.4160607929 -22.0554081894 -18.4711911912 -21.628552358 c 4
 -25.7700357966 -20.8602529258 -35.5661904079 -20.16 -46.848 -20.16 c 4
 -53.3762966993 -20.16 -60.4098144663 -20.3938195443 -67.7531482499 -20.9767718642 c 4
 -73.6277909655 -21.4431317902 -79.7004566197 -22.1328624789 -85.8711807869 -23.1006673985 c 4
 -92.0419669949 -24.0684820484 -98.3104296486 -25.3144065523 -104.578849071 -26.8880480727 c 4
 -109.593660175 -28.1469802592 -114.608283384 -29.6155030521 -119.575447475 -31.3165866448 c 4
 -128.517731636 -34.3790127274 -137.299987384 -38.1936797712 -145.690637892 -42.8893649182 c 4
 -150.352831529 -45.4984824579 -154.895526705 -48.3795626101 -159.289882604 -51.5602874213 c 4
 -164.78329188 -55.5365295779 -170.045409521 -59.9798795209 -175.032765 -64.967235 c 4
-192 -48 m 17
 -120 24 0 0 0 0 c 1033
EndSplineSet
Fore
SplineSet
-216 -48 m 131,-1,1
 -216 -38 -216 -38 -209 -31 c 1,2,3
 -150 27 -150 27 -47 28 c 1,4,5
 -10 27 -10 27 7 23 c 1,6,7
 13 21 13 21 17 17 c 0,8,9
 24 10 24 10 24 0 c 131,-1,10
 24 -10 24 -10 17 -17 c 128,-1,11
 10 -24 10 -24 -0 -24 c 3,12,13
 -3 -24 -3 -24 -8 -23 c 1,14,15
 -27 -20 -27 -20 -47 -20 c 1,16,17
 -131 -21 -131 -21 -175 -65 c 1,18,19
 -182 -72 -182 -72 -192 -72 c 131,-1,20
 -202 -72 -202 -72 -209 -65 c 128,-1,0
 -216 -58 -216 -58 -216 -48 c 131,-1,1
EndSplineSet
Colour: ff00ff
EndChar

StartChar: circle32
Encoding: 4 -1 4
Width: 0
GlyphClass: 5
Flags: W
LayerCount: 2
Back
SplineSet
-354.76953125 -146.950195312 m 0
 -435.8984375 48.912109375 -342.8125 273.640625 -146.950195312 354.76953125 c 0
 48.912109375 435.8984375 273.640625 342.8125 354.76953125 146.950195312 c 0
 435.8984375 -48.912109375 342.8125 -273.640625 146.950195312 -354.76953125 c 0
 -48.912109375 -435.8984375 -273.640625 -342.8125 -354.76953125 -146.950195312 c 0
0 0 m 1049
-354.76953125 146.950195312 m 0
 -273.640625 342.8125 -48.912109375 435.8984375 146.950195312 354.76953125 c 0
 342.8125 273.640625 435.8984375 48.912109375 354.76953125 -146.950195312 c 0
 273.640625 -342.8125 48.912109375 -435.8984375 -146.950195312 -354.76953125 c 0
 -342.8125 -273.640625 -435.8984375 -48.912109375 -354.76953125 146.950195312 c 0
0 0 m 1049
-271.529296875 271.529296875 m 0
 -121.622070312 421.435546875 121.622070312 421.435546875 271.529296875 271.529296875 c 0
 421.435546875 121.622070312 421.435546875 -121.622070312 271.529296875 -271.529296875 c 0
 121.622070312 -421.435546875 -121.622070312 -421.435546875 -271.529296875 -271.529296875 c 0
 -421.435546875 -121.622070312 -421.435546875 121.622070312 -271.529296875 271.529296875 c 0
0 0 m 1049
-384 0 m 0
 -384 212 -212 384 0 384 c 0
 212 384 384 212 384 0 c 0
 384 -212 212 -384 0 -384 c 0
 -212 -384 -384 -212 -384 0 c 0
0 0 m 1049
EndSplineSet
Fore
SplineSet
-384 0 m 131,-1,1
 -384 158 -384 158 -271 271 c 128,-1,2
 -158 384 -158 384 0 384 c 131,-1,3
 158 384 158 384 271 271 c 128,-1,4
 384 158 384 158 384 0 c 131,-1,5
 384 -158 384 -158 271 -271 c 128,-1,6
 158 -384 158 -384 0 -384 c 131,-1,7
 -158 -384 -158 -384 -271 -271 c 128,-1,0
 -384 -158 -384 -158 -384 0 c 131,-1,1
EndSplineSet
Colour: ff00ff
EndChar

StartChar: SmilingFaceWithHalo.3
Encoding: 5 -1 5
Width: 864
GlyphClass: 5
Flags: W
LayerCount: 2
Back
SplineSet
0 216 m 5
 0 -22.5869140625 193.413085938 -216 432 -216 c 5
 670.586914062 -216 864 -22.5869140625 864 216 c 5
 864 454.586914062 670.586914062 648 432 648 c 5
 193.413085938 648 0 454.586914062 0 216 c 5
656.0390625 104.904296875 m 5
 651.768554688 108.768554688 645.384765625 109.0078125 640.799804688 105.599609375 c 5
 639.865234375 104.904296875 546.672851562 36 432 36 c 5
 317.615234375 36 224.111328125 104.904296875 223.200195312 105.599609375 c 5
 218.615234375 109.0078125 212.231445312 108.719726562 207.9609375 104.904296875 c 5
 203.711914062 101.064453125 202.752929688 94.7275390625 205.704101562 89.8310546875 c 5
 208.799804688 84.6728515625 282.912109375 -36 432 -36 c 5
 581.087890625 -36 655.223632812 84.6728515625 658.295898438 89.8310546875 c 5
 661.247070312 94.7529296875 660.311523438 101.064453125 656.0390625 104.904296875 c 5
624 192 m 5
 613.943359375 192 604.583984375 198.361328125 601.247070312 208.416015625 c 5
 596.376953125 222.791992188 576.791992188 264 552 264 c 5
 526.51171875 264 506.665039062 220.153320312 502.752929688 208.416015625 c 5
 498.552734375 195.865234375 485.087890625 189.0234375 472.392578125 193.247070312 c 5
 459.838867188 197.423828125 453.0234375 211.0078125 457.223632812 223.607421875 c 5
 460.247070312 232.630859375 488.51953125 312 552 312 c 5
 615.48046875 312 643.752929688 232.630859375 646.752929688 223.583984375 c 5
 650.953125 211.0078125 644.161132812 197.400390625 631.583984375 193.223632812 c 5
 629.064453125 192.408203125 626.49609375 192 624 192 c 5
384 192 m 5
 373.943359375 192 364.583984375 198.361328125 361.223632812 208.416015625 c 5
 356.353515625 222.791992188 336.815429688 264 312 264 c 5
 286.51171875 264 266.688476562 220.153320312 262.776367188 208.416015625 c 5
 258.576171875 195.865234375 245.064453125 189.0234375 232.416015625 193.247070312 c 5
 219.838867188 197.423828125 213.046875 211.0078125 217.247070312 223.607421875 c 5
 220.247070312 232.630859375 248.51953125 312 312 312 c 5
 375.48046875 312 403.752929688 232.630859375 406.776367188 223.583984375 c 5
 410.9765625 211.0078125 404.184570312 197.400390625 391.607421875 193.223632812 c 5
 389.064453125 192.408203125 386.49609375 192 384 192 c 5
796.200195312 448.416015625 m 5
 796.200195312 448.416015625 579.192382812 444.552734375 432 444.552734375 c 5
 338.280273438 444.552734375 67.056640625 447.384765625 67.056640625 447.384765625 c 5
 54.552734375 426.361328125 l 21
 127.583984375 381.815429688 272.087890625 356.353515625 432 356.353515625 c 5
 590.303710938 356.353515625 733.823242188 381.311523438 807.646484375 424.9921875 c 13
 809.51953125 426.119140625 l 5
 809.51953125 426.119140625 800.54296875 442.056640625 796.200195312 448.416015625 c 5
570.646484375 639.719726562 m 5
 541.560546875 641.9765625 511.295898438 643.53515625 480.095703125 644.280273438 c 5
 464.231445312 644.665039062 448.223632812 644.904296875 432 644.904296875 c 5
 415.873046875 644.904296875 399.935546875 644.665039062 384.168945312 644.303710938 c 5
 352.919921875 643.560546875 322.630859375 642 293.51953125 639.743164062 c 5
 128.161132812 626.880859375 4.056640625 589.176757812 4.056640625 521.111328125 c 5
 4.056640625 435 202.392578125 382.607421875 432 382.607421875 c 5
 661.607421875 382.607421875 859.943359375 435 859.943359375 521.111328125 c 5
 859.943359375 589.153320312 735.912109375 626.831054688 570.646484375 639.719726562 c 5
432 470.807617188 m 5
 267.334960938 470.807617188 122.161132812 490.799804688 122.161132812 536.47265625 c 5
 122.161132812 549.334960938 134.015625 561.0234375 154.295898438 571.247070312 c 5
 181.96875 585.192382812 225.768554688 596.303710938 278.831054688 603.623046875 c 5
 324.696289062 609.912109375 377.184570312 613.46484375 432 613.46484375 c 5
 486.984375 613.46484375 539.638671875 609.912109375 585.599609375 603.552734375 c 5
 639.408203125 596.111328125 683.665039062 584.760742188 711.168945312 570.50390625 c 5
 730.53515625 560.47265625 741.838867188 549.046875 741.838867188 536.47265625 c 5
 741.838867188 490.799804688 596.665039062 470.807617188 432 470.807617188 c 5
585.599609375 603.52734375 m 21
 639.408203125 596.087890625 683.665039062 584.735351562 711.168945312 570.48046875 c 13
 712.657226562 570.072265625 l 5
 657.815429688 610.247070312 602.9765625 631.51171875 570.646484375 639.719726562 c 5
 541.560546875 641.9765625 511.295898438 643.53515625 480.095703125 644.280273438 c 5
 480.52734375 644.111328125 l 5
 585.599609375 603.52734375 l 21
154.295898438 571.223632812 m 5
 181.96875 585.168945312 225.768554688 596.280273438 278.831054688 603.599609375 c 13
 383.615234375 644.111328125 l 5
 384.168945312 644.303710938 l 5
 352.919921875 643.560546875 322.630859375 642 293.51953125 639.743164062 c 5
 261.192382812 631.53515625 206.327148438 610.295898438 151.46484375 570.095703125 c 5
 154.295898438 571.223632812 l 5
683.327148438 567 m 5
 667.48828125 577.630859375 651.0234375 588.838867188 635.303710938 597.239257812 c 5
 574.727539062 629.638671875 505.51171875 648 432 648 c 5
 361.704101562 648 295.319335938 631.200195312 236.638671875 601.416015625 c 5
 210.50390625 588.142578125 191.49609375 577.439453125 184.560546875 567 c 5
 683.327148438 567 l 5
EndSplineSet
Fore
Refer: 9 -1 S 1 0 0 1 552 288 0
Refer: 9 -1 S 1 0 0 1 312 288 0
Refer: 11 -1 S 1 0 0 1 432 -36 0
Colour: 996633
EndChar

StartChar: lickinglipsmouth
Encoding: 7 -1 7
Width: 0
GlyphClass: 5
Flags: W
LayerCount: 2
Back
SplineSet
-287.28515625 186.16796875 m 2
 -287.28515625 186.16796875 -287.293945312 186.166015625 -287.290039062 186.1875 c 0
 -287.760742188 188.034179688 -288.008789062 189.987304688 -288.008789062 191.999023438 c 0
 -288.008789062 205.247070312 -277.252929688 216.00390625 -264.00390625 216.00390625 c 0
 -252.767578125 216.00390625 -243.323242188 208.265625 -240.71484375 197.83203125 c 5
 -240.71484375 197.83203125 -240.747070312 197.958984375 -240.728515625 197.887695312 c 0
 -240.678710938 197.694335938 -239.91796875 194.783203125 -238.248046875 189.861328125 c 0
 -236.744140625 185.432617188 -234.50390625 179.376953125 -231.390625 172.208984375 c 0
 -225.784179688 159.303710938 -217.34375 142.814453125 -205.345703125 125.673828125 c 0
 -190.3359375 104.231445312 -169.846679688 81.853515625 -142.290039062 63.603515625 c 0
 -123.142578125 50.923828125 -100.533203125 40.169921875 -73.5810546875 33.0546875 c 0
 -52.0166015625 27.3623046875 -27.640625 24 0 24 c 0
 27.640625 24 52.0166015625 27.3623046875 73.5810546875 33.0546875 c 0
 100.533203125 40.169921875 123.142578125 50.923828125 142.290039062 63.603515625 c 0
 169.846679688 81.853515625 190.3359375 104.231445312 205.345703125 125.673828125 c 0
 217.34375 142.814453125 225.784179688 159.303710938 231.390625 172.208984375 c 0
 234.50390625 179.376953125 236.744140625 185.432617188 238.248046875 189.861328125 c 0
 239.91796875 194.783203125 240.678710938 197.694335938 240.728515625 197.887695312 c 0
 240.747070312 197.958984375 240.71484375 197.83203125 240.71484375 197.83203125 c 0
 243.323242188 208.265625 252.767578125 216.00390625 264.00390625 216.00390625 c 0
 277.252929688 216.00390625 288.008789062 205.247070312 288.008789062 191.999023438 c 0
 288.008789062 189.987304688 287.760742188 188.034179688 287.290039062 186.1875 c 0
 287.293945312 186.166015625 287.28515625 186.16796875 287.28515625 186.16796875 c 2
 287.041015625 185.190429688 283.928710938 172.958984375 276.119140625 154.69921875 c 0
 269.872070312 140.091796875 260.61328125 121.611328125 247.311523438 101.991210938 c 0
 236.671875 86.2978515625 223.432617188 69.8662109375 207.065429688 54.208984375 c 0
 186.611328125 34.640625 161.243164062 16.296875 130.26953125 2.337890625 c 0
 110.365234375 -6.6328125 88.17578125 -13.7822265625 63.603515625 -18.34765625 c 0
 43.9453125 -22 22.765625 -24 0 -24 c 0
 -22.765625 -24 -43.9453125 -22 -63.603515625 -18.34765625 c 0
 -88.17578125 -13.7822265625 -110.365234375 -6.6328125 -130.26953125 2.337890625 c 0
 -161.243164062 16.296875 -186.611328125 34.640625 -207.065429688 54.208984375 c 0
 -223.432617188 69.8662109375 -236.671875 86.2978515625 -247.311523438 101.991210938 c 0
 -260.61328125 121.611328125 -269.872070312 140.091796875 -276.119140625 154.69921875 c 0
 -283.928710938 172.958984375 -287.041015625 185.190429688 -287.28515625 186.16796875 c 2
EndSplineSet
Fore
SplineSet
-288 192 m 1,0,1
 -288 202 -288 202 -281 209 c 129,-1,2
 -274 216 -274 216 -264 216 c 129,-1,3
 -254 216 -254 216 -247 209 c 1,4,5
 -242 204 -242 204 -240 195 c 1,6,7
 -214 117 -214 117 -152 70.5 c 129,-1,8
 -90 24 -90 24 0 24 c 129,-1,9
 90 24 90 24 152 70.5 c 129,-1,10
 214 117 214 117 240 195 c 1,11,12
 242 204 242 204 247 209 c 1,13,14
 254 216 254 216 264 216 c 129,-1,15
 274 216 274 216 281 209 c 129,-1,16
 288 202 288 202 288 192 c 1,17,18
 288 189 288 189 287 185 c 1,19,20
 257 90 257 90 182 33 c 129,-1,21
 107 -24 107 -24 0 -24 c 129,-1,22
 -107 -24 -107 -24 -182 33 c 129,-1,23
 -257 90 -257 90 -287 185 c 1,24,25
 -288 189 -288 189 -288 192 c 1,0,1
EndSplineSet
Colour: ff00ff
EndChar

StartChar: mouth.smiling1
Encoding: 8 -1 8
Width: 0
GlyphClass: 5
Flags: W
LayerCount: 2
Back
SplineSet
-111.516601562 116.483398438 m 4
 -111.515625 116.483398438 -111.638671875 116.603515625 -111.638671875 116.603515625 c 5
 -111.638671875 116.603515625 -111.767578125 116.725585938 -111.766601562 116.724609375 c 5
 -111.766601562 116.724609375 -111.778320312 116.735351562 -111.774414062 116.731445312 c 4
 -111.768554688 116.7265625 -111.569335938 116.55078125 -111.141601562 116.232421875 c 4
 -110.756835938 115.946289062 -110.186523438 115.544921875 -109.40625 115.05078125 c 4
 -107.2109375 113.662109375 -103.346679688 111.536132812 -97.26171875 109.196289062 c 4
 -90.41796875 106.564453125 -80.7646484375 103.662109375 -67.5595703125 101.251953125 c 4
 -51.0537109375 98.240234375 -29.0009765625 96 0 96 c 4
 29.0009765625 96 51.0537109375 98.240234375 67.5595703125 101.251953125 c 4
 80.7646484375 103.662109375 90.41796875 106.564453125 97.26171875 109.196289062 c 4
 103.346679688 111.536132812 107.2109375 113.662109375 109.40625 115.05078125 c 4
 110.186523438 115.544921875 110.756835938 115.946289062 111.141601562 116.232421875 c 4
 111.569335938 116.55078125 111.768554688 116.7265625 111.774414062 116.731445312 c 4
 111.778320312 116.735351562 111.766601562 116.724609375 111.766601562 116.724609375 c 5
 111.767578125 116.725585938 111.638671875 116.603515625 111.638671875 116.603515625 c 5
 111.638671875 116.603515625 111.515625 116.483398438 111.516601562 116.483398438 c 4
 112.932617188 117.899414062 114.72265625 118.979492188 116.788085938 119.551757812 c 4
 123.170898438 121.319335938 129.788085938 117.571289062 131.555664062 111.1875 c 4
 132.127929688 109.122070312 132.122070312 107.03125 131.63671875 105.087890625 c 5
 131.87890625 106.057617188 131.400390625 104.114257812 131.642578125 105.083984375 c 5
 131.549804688 104.7109375 130.408203125 100.211914062 127.756835938 93.2265625 c 4
 125.635742188 87.638671875 122.548828125 80.45703125 118.233398438 72.525390625 c 4
 113.91796875 64.5947265625 108.372070312 55.90625 101.303710938 47.3408203125 c 4
 95.6494140625 40.4892578125 89.0166015625 33.71484375 81.265625 27.513671875 c 4
 76.421875 23.6396484375 71.142578125 19.990234375 65.40625 16.697265625 c 4
 58.2353515625 12.580078125 50.3515625 9.021484375 41.73828125 6.2646484375 c 4
 34.84765625 4.0595703125 27.4931640625 2.369140625 19.671875 1.3037109375 c 4
 13.4140625 0.4521484375 6.8583984375 0 0 0 c 4
 -6.8583984375 0 -13.4140625 0.4521484375 -19.671875 1.3037109375 c 4
 -27.4931640625 2.369140625 -34.84765625 4.0595703125 -41.73828125 6.2646484375 c 4
 -50.3515625 9.021484375 -58.2353515625 12.580078125 -65.40625 16.697265625 c 4
 -71.142578125 19.990234375 -76.421875 23.6396484375 -81.265625 27.513671875 c 4
 -89.0166015625 33.71484375 -95.6494140625 40.4892578125 -101.303710938 47.3408203125 c 4
 -108.372070312 55.90625 -113.91796875 64.5947265625 -118.233398438 72.525390625 c 4
 -122.548828125 80.45703125 -125.635742188 87.638671875 -127.756835938 93.2265625 c 4
 -130.408203125 100.211914062 -131.549804688 104.7109375 -131.642578125 105.083984375 c 4
 -132.127929688 107.02734375 -132.133789062 109.118164062 -131.561523438 111.184570312 c 4
 -129.793945312 117.568359375 -123.176757812 121.315429688 -116.794921875 119.547851562 c 4
 -114.728515625 118.9765625 -111.516601562 116.483398438 -111.516601562 116.483398438 c 4
-120 108 m 5
 -120 108 -96 84 0 84 c 4
 96 84 120 108 120 108 c 5
 120 108 96 12 0 12 c 4
 -96 12 -120 108 -120 108 c 5
EndSplineSet
Fore
SplineSet
-132 108 m 259,0,1
 -132 113 -132 113 -128.5 116.5 c 128,-1,2
 -125 120 -125 120 -120 120 c 259,3,4
 -116 120 -116 120 -112 117 c 257,5,6
 -101 108 -101 108 -71 102 c 128,-1,7
 -41 96 -41 96 0 96 c 259,8,9
 41 96 41 96 71 102 c 128,-1,10
 101 108 101 108 112 117 c 257,11,12
 116 120 116 120 120 120 c 259,13,14
 125 120 125 120 128.5 116.5 c 128,-1,15
 132 113 132 113 132 108 c 259,16,17
 132 106 132 106 131 103 c 1,18,19
 116 56 116 56 82 28 c 128,-1,20
 48 0 48 0 0 0 c 259,21,22
 -48 7.1054273576e-15 -48 7.1054273576e-15 -82 28 c 128,-1,23
 -116 56 -116 56 -131 103 c 1,24,25
 -132 106 -132 106 -132 108 c 259,0,1
EndSplineSet
Colour: ff00ff
EndChar

StartChar: eye.smiling
Encoding: 9 -1 9
Width: 0
GlyphClass: 5
Flags: W
LayerCount: 2
Back
SplineSet
-49.2253944924 -79.5854692707 m 1
 -49.2253944924 -79.5854692707 -49.2166189314 -79.5883921204 -49.2290340361 -79.5963879016 c 0
 -52.3950307313 -89.1236275104 -61.3979218845 -96.0060852912 -71.9956122195 -96.0060852912 c 0
 -85.2441242007 -96.0060852912 -96.0002360858 -85.249973406 -96.0002360858 -72.0014614248 c 0
 -96.0002360858 -69.3506397786 -95.5696280581 -66.7995983784 -94.7746055076 -64.4145307293 c 0
 -94.6454282987 -64.026999103 -93.7823162978 -61.4674141233 -92.1586799158 -57.4317088775 c 0
 -90.8595482286 -54.2025914328 -89.0738326085 -50.0283738772 -86.7731761207 -45.2566419024 c 0
 -84.4722446196 -40.4843395297 -81.657534282 -35.1138413053 -78.2714485584 -29.4842996084 c 0
 -75.5622975337 -24.9801966702 -72.4869857112 -20.3085789533 -68.9891882799 -15.644849045 c 0
 -66.0743080083 -11.7583420162 -62.8650231725 -7.87553800403 -59.3094853112 -4.11027705907 c 0
 -56.4652117033 -1.09823422599 -53.3981156825 1.83948048091 -50.0751315066 4.62914620883 c 0
 -46.7527262098 7.41832596415 -43.1726404712 10.0607623943 -39.3073117685 12.4573722346 c 0
 -36.2156274634 14.3743013237 -32.9409706757 16.1333427768 -29.4813901257 17.6709341323 c 0
 -25.5900515448 19.4004179461 -21.4640889861 20.848617289 -17.1283703442 21.9191651018 c 0
 -14.1179171743 22.6624868722 -11.0076581782 23.2234126985 -7.8139258327 23.5738908708 c 0
 -5.25902155558 23.8542644541 -2.65107328538 24 0 24 c 0
 2.65107328538 24 5.25902155558 23.8542644541 7.8139258327 23.5738908708 c 0
 11.0076581782 23.2234126985 14.1179171743 22.6624868722 17.1283703442 21.9191651018 c 0
 21.4640889861 20.848617289 25.5900515448 19.4004179461 29.4813901257 17.6709341323 c 0
 32.9409706757 16.1333427768 36.2156274634 14.3743013237 39.3073117685 12.4573722346 c 0
 43.1726404712 10.0607623943 46.7527262098 7.41832596415 50.0751315066 4.62914620883 c 0
 53.3981156825 1.83948048091 56.4652117033 -1.09823422599 59.3094853112 -4.11027705907 c 0
 62.8650231725 -7.87553800403 66.0743080083 -11.7583420162 68.9891882799 -15.644849045 c 0
 72.4869857112 -20.3085789533 75.5622975337 -24.9801966702 78.2714485584 -29.4842996084 c 0
 81.657534282 -35.1138413053 84.4722446196 -40.4843395297 86.7731761207 -45.2566419024 c 0
 89.0738326085 -50.0283738772 90.8595482286 -54.2025914328 92.1586799158 -57.4317088775 c 0
 93.7823164036 -61.4674143862 94.6454281206 -64.0269985433 94.7746056561 -64.414531175 c 0
 95.5696281117 -66.7995986963 96.0002360858 -69.3506399437 96.0002360858 -72.0014614248 c 0
 96.0002360858 -85.2499734061 85.2441242006 -96.0060852913 71.9956122194 -96.0060852913 c 0
 61.3979217191 -96.0060852913 52.3950304504 -89.1236272959 49.2290338848 -79.5963874485 c 0
 49.2166187826 -79.5883916745 49.2253943439 -79.585468825 49.2253943439 -79.585468825 c 1
 49.2253943439 -79.585468825 49.2566895203 -79.6783188059 49.2434193101 -79.6392666462 c 0
 49.2249530152 -79.5849232196 48.6731742696 -77.9676029056 47.6075481321 -75.3188860866 c 0
 46.6486681115 -72.9354970641 45.2731673407 -69.7168170283 43.5094027545 -66.0586386274 c 0
 41.7459131815 -62.4010306242 39.592997762 -58.3046056886 37.1082530454 -54.1735897811 c 0
 35.1207397179 -50.8692466358 32.921336191 -47.5444922248 30.5663672756 -44.404533671 c 0
 28.6039422584 -41.7879669814 26.5344975018 -39.3015053763 24.409881467 -37.0515690542 c 0
 22.7100319581 -35.2514540735 20.9760933078 -33.6036147108 19.2411312582 -32.1471033605 c 0
 17.5055903295 -30.6901060377 15.7708182884 -29.4257423812 14.064377657 -28.3677023738 c 0
 12.6986464949 -27.5209115846 11.3514644206 -26.8056093125 10.0247827138 -26.2159729983 c 0
 8.53157625585 -25.5523256837 7.06489541666 -25.0467126562 5.59987230171 -24.6849785537 c 0
 4.58203258492 -24.4336601051 3.56364261848 -24.2514553842 2.52836992543 -24.1378452121 c 0
 1.70007017176 -24.0469481198 0.860586522581 -24 0 -24 c 0
 -0.860586522581 -24 -1.70007017176 -24.0469481198 -2.52836992543 -24.1378452121 c 0
 -3.56364261848 -24.2514553842 -4.58203258492 -24.4336601051 -5.59987230171 -24.6849785537 c 0
 -7.06489541666 -25.0467126562 -8.53157625585 -25.5523256837 -10.0247827138 -26.2159729983 c 0
 -11.3514644206 -26.8056093125 -12.6986464949 -27.5209115846 -14.064377657 -28.3677023738 c 0
 -15.7708182884 -29.4257423812 -17.5055903295 -30.6901060377 -19.2411312582 -32.1471033605 c 0
 -20.9760933078 -33.6036147108 -22.7100319581 -35.2514540735 -24.409881467 -37.0515690542 c 0
 -26.5344975018 -39.3015053763 -28.6039422584 -41.7879669814 -30.5663672756 -44.404533671 c 0
 -32.921336191 -47.5444922248 -35.1207397179 -50.8692466358 -37.1082530454 -54.1735897811 c 0
 -39.592997762 -58.3046056886 -41.7459131815 -62.4010306242 -43.5094027545 -66.0586386274 c 0
 -45.2731673407 -69.7168170283 -46.6486681115 -72.9354970641 -47.6075481321 -75.3188860866 c 0
 -48.6731742696 -77.9676029056 -49.2249530152 -79.5849232196 -49.2434193101 -79.6392666462 c 0
 -49.2566893565 -79.6783183237 -49.2253944924 -79.5854692707 -49.2253944924 -79.5854692707 c 1
-72 -72 m 17
 -72 -72 -48 0 0 0 c 1
 48 0 72 -72 72 -72 c 1025
EndSplineSet
Fore
SplineSet
-96 -72 m 3,0,1
 -96 -69 -96 -69 -95 -65 c 1,2,3
 -79 -22 -79 -22 -54 1 c 128,-1,4
 -29 24 -29 24 0 24 c 131,-1,5
 29 24 29 24 54 1 c 128,-1,6
 79 -22 79 -22 95 -65 c 1,7,8
 96 -69 96 -69 96 -72 c 3,9,10
 96 -82 96 -82 89 -89 c 128,-1,11
 82 -96 82 -96 72 -96 c 131,-1,12
 62 -96 62 -96 55 -89 c 1,13,14
 51 -85 51 -85 49 -79 c 1,15,16
 41 -57 41 -57 27.5 -40.5 c 128,-1,17
 14 -24 14 -24 0 -24 c 131,-1,18
 -14 -24 -14 -24 -27.5 -40.5 c 128,-1,19
 -41 -57 -41 -57 -49 -79 c 1,20,21
 -51 -85 -51 -85 -55 -89 c 1,22,23
 -62 -96 -62 -96 -72 -96 c 131,-1,24
 -82 -96 -82 -96 -89 -89 c 128,-1,25
 -96 -82 -96 -82 -96 -72 c 3,0,1
EndSplineSet
Colour: ff00ff
EndChar

StartChar: heart
Encoding: 10 -1 10
Width: 0
GlyphClass: 5
Flags: W
LayerCount: 2
Back
SplineSet
0 0 m 1
 -132 47.9833984375 -316.166992188 222.731445312 -342.825195312 388.373046875 c 0
 -346.091796875 402.403320312 -348 416.958007812 -348 431.978515625 c 0
 -348 538.041015625 -262.036132812 623.98828125 -155.990234375 623.98828125 c 0
 -91.6455078125 623.98828125 -34.849609375 592.213867188 0 543.646484375 c 1
 34.849609375 592.213867188 91.6455078125 623.98828125 156.01171875 623.98828125 c 0
 262.036132812 623.98828125 348 538.021484375 348 431.978515625 c 0
 348 416.939453125 346.091796875 402.384765625 342.78515625 388.354492188 c 4
 316.166992188 222.731445312 131.981445312 47.9833984375 0 0 c 1
EndSplineSet
Fore
SplineSet
-348 432 m 1,0,1
 -348 511 -348 511 -291.5 567.5 c 129,-1,2
 -235 624 -235 624 -156 624 c 1,3,4
 -62 624 -62 624 0 544 c 1,5,6
 62 624 62 624 156 624 c 1,7,8
 235 624 235 624 291.5 567.5 c 129,-1,9
 348 511 348 511 348 432 c 1,10,11
 348 413 348 413 343 389 c 1,12,13
 321 271 321 271 217 157 c 129,-1,14
 113 43 113 43 0 0 c 1,15,16
 -113 43 -113 43 -217.5 157 c 129,-1,17
 -322 271 -322 271 -343 389 c 1,18,19
 -348 413 -348 413 -348 432 c 1,0,1
EndSplineSet
Colour: ff00ff
EndChar

StartChar: mouth.smiling2
Encoding: 11 -1 11
Width: 0
GlyphClass: 5
Flags: W
LayerCount: 2
Back
SplineSet
-208.810078846 141.605705253 m 1
 -208.810078846 141.605705253 -208.822391319 141.614920012 -208.817223283 141.611058262 c 1
 -208.809988133 141.605651886 -208.592772661 141.443421648 -208.173213376 141.139371039 c 1
 -207.795610235 140.865725648 -207.254108786 140.4772058 -206.5542865 139.984745946 c 1
 -205.294607477 139.098318979 -203.521961441 137.875129329 -201.268966144 136.378912552 c 1
 -197.213584392 133.685728848 -191.601783801 130.108002155 -184.624892339 126.016840669 c 1
 -172.066403611 118.652700682 -155.084435073 109.627055889 -134.808372677 101.089766459 c 1
 -114.531759118 92.5522449605 -90.9649569402 84.5070610003 -65.2506638192 79.0576743786 c 1
 -44.6786336224 74.6980388402 -22.736815396 72 0 72 c 1
 22.736815396 72 44.6786336224 74.6980388402 65.2506638192 79.0576743786 c 1
 90.9649569402 84.5070610003 114.531759118 92.5522449605 134.808372677 101.089766459 c 1
 155.084435073 109.627055889 172.066403611 118.652700682 184.624892339 126.016840669 c 1
 191.601783801 130.108002155 197.213584392 133.685728848 201.268966144 136.378912552 c 1
 203.521961441 137.875129329 205.294607477 139.098318979 206.5542865 139.984745946 c 1
 207.254108786 140.4772058 207.795610235 140.865725648 208.173213376 141.139371039 c 1
 208.592772661 141.443421648 208.809988133 141.605651886 208.817223283 141.611058262 c 1
 208.822391152 141.614919887 208.810079 141.605705369 208.810079 141.605705369 c 1
 210.651601353 142.986847086 212.909079865 143.854173234 215.378754688 143.981760708 c 1
 221.99159382 144.323390884 227.637696206 139.232833494 227.979271076 132.62106488 c 1
 228.106837896 130.15178986 227.476617912 127.817318349 226.292370973 125.843573453 c 1
 226.806866729 126.701066378 225.783049798 124.981415096 226.297545554 125.838908022 c 1
 226.141793838 125.579321829 223.840074311 121.764100685 219.374734955 115.59797135 c 1
 215.80243317 110.665026042 210.845186513 104.227194326 204.48931793 96.9035597439 c 1
 198.133511704 89.5799970151 190.378801949 81.3700436516 181.207388834 72.8989624936 c 1
 173.870355181 66.1221870116 165.6262697 59.1781554331 156.465714141 52.3925587229 c 1
 139.978460169 40.1797780024 120.514461639 28.474534744 98.0569392919 19.2327560002 c 1
 85.5815675974 14.0988581835 72.1842189956 9.72693998177 57.8764003411 6.45583375073 c 1
 39.9917448497 2.36697789994 20.686111417 0 0 0 c 1
 -20.686111417 0 -39.9917448497 2.36697789994 -57.8764003411 6.45583375073 c 1
 -72.1842189956 9.72693998177 -85.5815675974 14.0988581835 -98.0569392919 19.2327560002 c 1
 -120.514461639 28.474534744 -139.978460169 40.1797780024 -156.465714141 52.3925587229 c 1
 -165.6262697 59.1781554331 -173.870355181 66.1221870116 -181.207388834 72.8989624936 c 1
 -190.378801949 81.3700436516 -198.133511704 89.5799970151 -204.48931793 96.9035597439 c 1
 -210.845186513 104.227194326 -215.80243317 110.665026042 -219.374734955 115.59797135 c 1
 -223.840074408 121.76410082 -226.141793666 125.579321528 -226.297545697 125.838908261 c 5
 -227.481792583 127.812653172 -228.112012513 130.14712468 -227.984445645 132.616399683 c 1
 -227.642870646 139.228168289 -221.996768161 144.318725569 -215.383929035 143.977095265 c 1
 -212.91425423 143.849507743 -210.656775747 142.982181561 -208.810078846 141.605705253 c 1
-216 132 m 1
 -216 132 -120 60 0 60 c 0
 120 60 216 132 216 132 c 1
 216 132 144 12 0 12 c 0
 -144 12 -216 132 -216 132 c 1
EndSplineSet
Fore
SplineSet
-228 132 m 259,0,1
 -228 137 -228 137 -224.5 140.5 c 128,-1,2
 -221 144 -221 144 -216 144 c 3,3,4
 -212 144 -212 144 -208 141 c 1,5,6
 -165 111 -165 111 -109.5 91.5 c 128,-1,7
 -54 72 -54 72 0 72 c 131,-1,8
 54 72 54 72 109.5 91.5 c 128,-1,9
 165 111 165 111 208 141 c 1,10,11
 212 144 212 144 216 144 c 3,12,13
 221 144 221 144 224.5 140.5 c 128,-1,14
 228 137 228 137 228 132 c 259,15,16
 228 129 228 129 226 125.5 c 128,-1,17
 224 122 224 122 219 115 c 1,18,19
 177 59 177 59 120 29.5 c 128,-1,20
 63 -3.5527136788e-15 63 -3.5527136788e-15 0 0 c 131,-1,21
 -63 -3.5527136788e-15 -63 -3.5527136788e-15 -120 29.5 c 128,-1,22
 -177 59 -177 59 -219 115 c 1,23,24
 -224 122 -224 122 -226 125.5 c 128,-1,25
 -228 129 -228 129 -228 132 c 259,0,1
EndSplineSet
Colour: ff00ff
EndChar

StartChar: eyebrow.2
Encoding: 12 -1 12
Width: 0
GlyphClass: 5
Flags: W
LayerCount: 2
Back
SplineSet
0 24 m 1
 13.24609375 24 24 13.24609375 24 0 c 1
 24 -13.24609375 13.24609375 -24 0 -24 c 9
 0 -24 l 1
 0 -24 0.2744140625 -23.9970703125 0.09375 -24 c 1
 -0.51171875 -24.0107421875 -7.8447265625 -24.189453125 -19.3798828125 -26.3955078125 c 1
 -29.763671875 -28.380859375 -43.5361328125 -32.00390625 -58.9326171875 -38.5556640625 c 1
 -71.251953125 -43.798828125 -84.609375 -50.908203125 -98.193359375 -60.5712890625 c 1
 -115.17578125 -72.65234375 -132.540039062 -88.71484375 -148.7890625 -110.379882812 c 9
 -148.81640625 -110.416015625 l 17
 -153.1953125 -116.254882812 -160.171875 -120.03515625 -168.025390625 -120.03515625 c 1
 -181.26953125 -120.03515625 -192.022460938 -109.283203125 -192.022460938 -96.0390625 c 1
 -192.022460938 -90.6474609375 -190.240234375 -85.6689453125 -187.2109375 -81.6201171875 c 5
 -172.733398438 -62.31640625 -157.236328125 -46.4345703125 -141.608398438 -33.4609375 c 1
 -129.10546875 -23.0810546875 -116.526367188 -14.5625 -104.326171875 -7.591796875 c 1
 -79.9189453125 6.35546875 -57.05859375 14.115234375 -39.0439453125 18.45703125 c 1
 -16.517578125 23.884765625 -1.5048828125 24 0 24 c 1
EndSplineSet
Fore
SplineSet
-192 -96 m 1,0,1
 -192 -87 -192 -87 -186 -80 c 1,2,3
 -153 -37 -153 -37 -110 -11 c 129,-1,4
 -67 15 -67 15 -21 22 c 257,5,6
 -8 24 -8 24 0 24 c 257,7,8
 10 24 10 24 17 17 c 129,-1,9
 24 10 24 10 24 0 c 129,-1,10
 24 -10 24 -10 17 -17 c 129,-1,11
 10 -24 10 -24 0 -24 c 257,12,13
 -5 -24 -5 -24 -17 -26 c 257,14,15
 -52 -32 -52 -32 -86 -52.5 c 129,-1,16
 -120 -73 -120 -73 -147 -108 c 1,17,18
 -155 -120 -155 -120 -168 -120 c 1,19,20
 -178 -120 -178 -120 -185 -113 c 129,-1,21
 -192 -106 -192 -106 -192 -96 c 1,0,1
EndSplineSet
Colour: ff00ff
EndChar

StartChar: mouth.smiling1b
Encoding: 14 -1 14
Width: 0
GlyphClass: 5
Flags: W
LayerCount: 2
Back
SplineSet
-74.1968444553 78.1426951904 m 1
 -74.1968444553 78.1426951904 -74.2778126113 78.1993537673 -74.2235369702 78.1618230224 c 1
 -74.0380944675 78.0335924734 -71.805573815 76.5073483427 -67.6180886113 74.3928382308 c 1
 -63.8490847652 72.4896442237 -58.4969344841 70.1098420258 -51.6226912638 67.8373649282 c 1
 -39.2481612049 63.7466111897 -21.9464436676 60 0 60 c 1
 21.9464436676 60 39.2481612049 63.7466111897 51.6226912638 67.8373649282 c 1
 58.4969344841 70.1098420258 63.8490847652 72.4896442237 67.6180886113 74.3928382308 c 1
 71.805573815 76.5073483427 74.0380944675 78.0335924734 74.2235369702 78.1618230224 c 1
 74.2778128259 78.1993539156 74.1968442595 78.1426950505 74.1968442595 78.1426950505 c 1
 75.5528033353 79.1112372957 77.1694013884 79.7535127881 78.9432587957 79.9416085511 c 1
 84.4301018739 80.5234207819 89.3571112801 76.54086749 89.9389614105 71.0536669955 c 1
 90.1270694261 69.2796940381 89.8381473058 67.5642441874 89.1755746727 66.0352304202 c 1
 89.5731821107 66.9527860454 88.7827320926 65.1138233105 89.1803395306 66.0313789357 c 1
 89.0946989594 65.8337468487 88.226587167 63.846530178 86.5513730076 60.6645100962 c 1
 85.2111245043 58.1187474379 83.3542647588 54.8080117669 80.9619373326 51.0359704005 c 1
 78.5695769458 47.2638770641 75.6418194172 43.0298229878 72.1504108096 38.6399819873 c 1
 69.3572919177 35.1281192382 66.2029653304 31.5160122357 62.6675285091 27.9657827917 c 1
 59.132302117 24.4157646575 55.2151623922 20.9266726656 50.8945492152 17.6727101721 c 1
 47.4383138023 15.0697323212 43.7233593084 12.6173019453 39.7427842972 10.4130149064 c 1
 34.7676393164 7.65797384637 29.3759841942 5.29091095546 23.5764993694 3.51401727478 c 1
 19.5495257784 2.28020010959 15.3271422849 1.33151285291 10.9205484008 0.733153315154 c 1
 7.39535896461 0.254477318004 3.75271293013 0 0 0 c 1
 -3.75271293013 0 -7.39535896461 0.254477318004 -10.9205484008 0.733153315154 c 1
 -15.3271422849 1.33151285291 -19.5495257784 2.28020010959 -23.5764993694 3.51401727478 c 1
 -29.3759841942 5.29091095546 -34.7676393164 7.65797384637 -39.7427842972 10.4130149064 c 1
 -43.7233593084 12.6173019453 -47.4383138023 15.0697323212 -50.8945492152 17.6727101721 c 1
 -55.2151623922 20.9266726656 -59.132302117 24.4157646575 -62.6675285091 27.9657827917 c 1
 -66.2029653304 31.5160122357 -69.3572919177 35.1281192382 -72.1504108096 38.6399819873 c 1
 -75.6418194172 43.0298229878 -78.5695769458 47.2638770641 -80.9619373326 51.0359704005 c 1
 -83.3542647588 54.8080117669 -85.2111245043 58.1187474379 -86.5513730076 60.6645100962 c 1
 -88.2265871794 63.8465302015 -89.0946989384 65.8337467977 -89.1803395481 66.0313789763 c 5
 -89.8429121563 67.5603927044 -90.1318342716 69.2758425055 -89.9437262785 71.0498154148 c 1
 -89.3618762014 76.537015915 -84.4348668341 80.5195692549 -78.9480237504 79.9377570774 c 1
 -77.1741663921 79.7496613371 -75.5575683744 79.1073858916 -74.1968444553 78.1426951904 c 1
-80 70 m 1
 -80 70 -54 10 0 10 c 1
 54 10 80 70 80 70 c 1
 80 70 52 50 0 50 c 1
 -52 50 -80 70 -80 70 c 1
EndSplineSet
Fore
SplineSet
-108 84 m 1,0,1
 -108 89 -108 89 -104.5 92.5 c 129,-1,2
 -101 96 -101 96 -96 96 c 1,3,4
 -92 96 -92 96 -88 93 c 1,5,6
 -71 83 -71 83 -48.5 77.5 c 129,-1,7
 -26 72 -26 72 0 72 c 129,-1,8
 26 72 26 72 48.5 77.5 c 129,-1,9
 71 83 71 83 88 93 c 1,10,11
 92 96 92 96 96 96 c 1,12,13
 101 96 101 96 104.5 92.5 c 129,-1,14
 108 89 108 89 108 84 c 1,15,16
 108 82 108 82 107 79 c 1,17,18
 88 41 88 41 60 20.5 c 129,-1,19
 32 0 32 0 0 0 c 129,-1,20
 -32 0 -32 0 -60 20.5 c 129,-1,21
 -88 41 -88 41 -107 79 c 1,22,23
 -108 82 -108 82 -108 84 c 1,0,1
EndSplineSet
Colour: ff00ff
EndChar

StartChar: LoudlyCryingFace.3
Encoding: 15 -1 15
Width: 864
GlyphClass: 5
Flags: W
LayerCount: 2
Back
SplineSet
432 -48 m 0
 392.231445312 -48 360 -39.7685546875 360 0 c 0
 360 39.7685546875 392.231445312 48 432 48 c 0
 471.768554688 48 504 39.7685546875 504 0 c 0
 504 -39.7685546875 471.768554688 -48 432 -48 c 0
EndSplineSet
Fore
SplineSet
360 0 m 129,-1,1
 360 25 360 25 377 36.5 c 129,-1,2
 394 48 394 48 432 48 c 129,-1,3
 470 48 470 48 487 36.5 c 129,-1,4
 504 25 504 25 504 0 c 129,-1,5
 504 -25 504 -25 487 -36.5 c 129,-1,6
 470 -48 470 -48 432 -48 c 129,-1,7
 394 -48 394 -48 377 -36.5 c 129,-1,0
 360 -25 360 -25 360 0 c 129,-1,1
EndSplineSet
EndChar

StartChar: mouth.flat2
Encoding: 16 -1 16
Width: 0
GlyphClass: 5
Flags: W
LayerCount: 2
Fore
SplineSet
-24 0 m 129,-1,1
 -24 10 -24 10 -17 17 c 129,-1,2
 -10 24 -10 24 0 24 c 1,3,4
 0 24 0 24 192 24 c 17,5,6
 202 24 202 24 209 17 c 129,-1,7
 216 10 216 10 216 0 c 129,-1,8
 216 -10 216 -10 209 -17 c 129,-1,9
 202 -24 202 -24 192 -24 c 9,10,11
 192 -24 192 -24 0 -24 c 1,12,13
 -10 -24 -10 -24 -17 -17 c 129,-1,0
 -24 -10 -24 -10 -24 0 c 129,-1,1
EndSplineSet
Colour: ff00ff
EndChar

StartChar: eyebrow.6
Encoding: 17 -1 17
Width: 0
GlyphClass: 5
Flags: W
LayerCount: 2
Back
SplineSet
-168 -120 m 1024
-19.9833984375 13.2890625 m 5
 -19.9833984375 13.2890625 -19.98046875 13.287109375 -19.9521484375 13.3359375 c 0
 -15.677734375 19.7421875 -8.3310546875 23.998046875 0.0009765625 23.998046875 c 0
 13.24609375 23.998046875 24 13.244140625 24 -0.0009765625 c 0
 24 -4.9130859375 22.5205078125 -9.4833984375 19.9833984375 -13.2890625 c 0
 19.1494140625 -14.5400390625 8.564453125 -30.17578125 -14.0283203125 -51.638671875 c 0
 -42.2607421875 -78.458984375 -89.3037109375 -114.375 -159.100585938 -142.29296875 c 0
 -161.853515625 -143.39453125 -164.857421875 -144 -168.001953125 -144 c 0
 -181.25 -144 -192.005859375 -133.244140625 -192.005859375 -119.99609375 c 0
 -192.005859375 -109.892578125 -185.749023438 -101.23828125 -176.9296875 -97.71875 c 0
 -176.90234375 -97.69921875 -176.899414062 -97.70703125 -176.899414062 -97.70703125 c 2
 -126.0625 -77.3720703125 -89.1328125 -52.677734375 -63.865234375 -31.724609375 c 0
 -49.828125 -20.083984375 -39.3974609375 -9.59765625 -32.228515625 -1.66796875 c 0
 -24.2626953125 7.142578125 -20.32421875 12.794921875 -19.955078125 13.3310546875 c 0
 -19.859375 13.470703125 -19.9833984375 13.2890625 -19.9833984375 13.2890625 c 5
EndSplineSet
Fore
SplineSet
-192 -120 m 129,-1,1
 -192 -110 -192 -110 -185 -103 c 1,2,3
 -181 -99 -181 -99 -175 -97 c 1,4,5
 -121 -75 -121 -75 -81.5 -45.5 c 129,-1,6
 -42 -16 -42 -16 -21 12 c 1,7,8
 -13 24 -13 24 0 24 c 1,9,10
 10 24 10 24 17 17 c 129,-1,11
 24 10 24 10 24 0 c 1,12,13
 24 -9 24 -9 18 -16 c 1,14,15
 -7 -50 -7 -50 -53 -84 c 129,-1,16
 -99 -118 -99 -118 -156 -141 c 1,17,18
 -162 -144 -162 -144 -168 -144 c 1,19,20
 -178 -144 -178 -144 -185 -137 c 129,-1,0
 -192 -130 -192 -130 -192 -120 c 129,-1,1
EndSplineSet
Colour: ff00ff
EndChar

StartChar: eye.closed
Encoding: 18 -1 18
Width: 0
GlyphClass: 5
Flags: W
LayerCount: 2
Back
SplineSet
10.7099609375 -21.48046875 m 5
 7.4384765625 -23.12109375 3.80078125 -24.0283203125 -0.0478515625 -24.0283203125 c 4
 -13.294921875 -24.0283203125 -24.0498046875 -13.2734375 -24.0498046875 -0.0263671875 c 4
 -24.0498046875 9.373046875 -18.6357421875 17.517578125 -10.7578125 21.4560546875 c 6
 -10.7099609375 21.48046875 l 6
 -9.6552734375 22.0078125 4.8671875 29.201171875 28.3076171875 35.5947265625 c 4
 38.728515625 38.4365234375 50.91796875 41.1181640625 64.49609375 42.94921875 c 4
 75.3583984375 44.4130859375 87.109375 45.3330078125 99.5556640625 45.3330078125 c 4
 131.032226562 45.3330078125 166.861328125 39.404296875 202.709960938 21.48046875 c 6
 202.7578125 21.4560546875 l 6
 210.635742188 17.517578125 216.049804688 9.373046875 216.049804688 -0.0263671875 c 4
 216.049804688 -13.2734375 205.294921875 -24.0283203125 192.047851562 -24.0283203125 c 4
 188.19921875 -24.0283203125 184.561523438 -23.12109375 181.290039062 -21.48046875 c 4
 153.138671875 -7.404296875 124.967773438 -2.6669921875 99.5556640625 -2.6669921875 c 4
 89.5263671875 -2.6669921875 79.9140625 -3.412109375 70.958984375 -4.619140625 c 4
 59.7666015625 -6.1279296875 49.60546875 -8.359375 40.9501953125 -10.720703125 c 4
 32.294921875 -13.080078125 25.1484375 -15.568359375 19.974609375 -17.5615234375 c 4
 14.224609375 -19.77734375 10.912109375 -21.3818359375 10.66015625 -21.5048828125 c 4
 10.5791015625 -21.544921875 10.7099609375 -21.48046875 10.7099609375 -21.48046875 c 5
EndSplineSet
Fore
SplineSet
-24 0 m 129,-1,1
 -24 10 -24 10 -17 17 c 1,2,3
 -13 21 -13 21 -5 24 c 1,4,5
 43 45 43 45 101 45 c 1,6,7
 155 45 155 45 202 22 c 1,8,9
 206 20 206 20 209 17 c 1,10,11
 216 10 216 10 216 0 c 129,-1,12
 216 -10 216 -10 209 -17 c 129,-1,13
 202 -24 202 -24 192 -24 c 1,14,15
 186 -24 186 -24 180 -21 c 1,16,17
 144 -3 144 -3 100 -3 c 1,18,19
 52 -3 52 -3 12 -21 c 1,20,21
 6 -24 6 -24 0 -24 c 1,22,23
 -10 -24 -10 -24 -17 -17 c 129,-1,0
 -24 -10 -24 -10 -24 0 c 129,-1,1
EndSplineSet
Colour: ff00ff
EndChar

StartChar: tears2
Encoding: 19 -1 19
Width: 864
GlyphClass: 5
Flags: W
LayerCount: 2
Back
SplineSet
192 -840 m 5
 288 -840 l 5
 288 -384 l 5
 192 -384 l 5
 192 -840 l 5
576 -840 m 5
 672 -840 l 5
 672 -384 l 5
 576 -384 l 5
 576 -840 l 5
EndSplineSet
Fore
SplineSet
192 264 m 5,0,-1
 288 264 l 5,1,-1
 288 -192 l 5,2,-1
 192 -192 l 5,3,-1
 192 264 l 5,0,-1
576 264 m 5,4,-1
 672 264 l 5,5,-1
 672 -192 l 5,6,-1
 576 -192 l 5,7,-1
 576 264 l 5,4,-1
EndSplineSet
EndChar

StartChar: cryingmouth1
Encoding: 20 -1 20
Width: 864
GlyphClass: 5
Flags: W
LayerCount: 2
Back
SplineSet
0 0 m 4
 -53.015625 0 -96 5.7353515625 -96 72 c 4
 -96 138.264648438 -53.015625 216 0 216 c 4
 53.015625 216 96 138.264648438 96 72 c 4
 96 5.7353515625 53.015625 0 0 0 c 4
EndSplineSet
Fore
SplineSet
336 0 m 1,0,1
 336 53 336 53 365.5 98.5 c 129,-1,2
 395 144 395 144 432 144 c 129,-1,3
 469 144 469 144 498.5 98.5 c 129,-1,4
 528 53 528 53 528 0 c 1,5,6
 528 -36 528 -36 510 -54 c 129,-1,7
 492 -72 492 -72 432 -72 c 129,-1,8
 372 -72 372 -72 354 -54 c 129,-1,9
 336 -36 336 -36 336 0 c 1,0,1
EndSplineSet
EndChar

StartChar: GrinningFace.1
Encoding: 23 -1 23
Width: 864
GlyphClass: 5
Flags: W
LayerCount: 2
Back
SplineSet
0 216 m 0
 0 -22.5869140625 193.413085938 -216 432 -216 c 0
 670.586914062 -216 864 -22.5869140625 864 216 c 0
 864 454.586914062 670.586914062 648 432 648 c 0
 193.413085938 648 0 454.586914062 0 216 c 0
432 144 m 4
 345.046875 144 287.353515625 154.126953125 216 168 c 4
 199.704101562 171.142578125 168 168 168 120 c 4
 168 24 278.280273438 -96 432 -96 c 4
 585.696289062 -96 696 24 696 120 c 4
 696 168 664.295898438 171.168945312 648 168 c 4
 576.646484375 154.126953125 518.953125 144 432 144 c 4
216 120 m 5
 216 120 288 96 432 96 c 4
 576 96 648 120 648 120 c 5
 648 120 600 24 432 24 c 4
 264 24 216 120 216 120 c 5
228 324 m 0
 228 277.607421875 254.864257812 240 288 240 c 0
 321.135742188 240 348 277.607421875 348 324 c 0
 348 370.392578125 321.135742188 408 288 408 c 0
 254.864257812 408 228 370.392578125 228 324 c 0
516 324 m 0
 516 277.607421875 542.864257812 240 576 240 c 0
 609.135742188 240 636 277.607421875 636 324 c 0
 636 370.392578125 609.135742188 408 576 408 c 0
 542.864257812 408 516 370.392578125 516 324 c 0
EndSplineSet
Fore
Refer: 4 -1 N 0.15625 0 0 0.21875 576 324 0
Refer: 4 -1 N 0.15625 0 0 0.21875 288 324 0
Refer: 36 -1 N 1 0 0 1 432 -96 0
Colour: 996633
EndChar

StartChar: GrinningFaceWithBigEyes.1
Encoding: 25 -1 25
Width: 864
GlyphClass: 5
Flags: W
LayerCount: 2
Back
SplineSet
336 348 m 0
 336 288.361328125 309.142578125 216 276 216 c 0
 242.857421875 216 216 288.361328125 216 348 c 0
 216 407.638671875 242.857421875 480 276 480 c 0
 309.142578125 480 336 407.638671875 336 348 c 0
648 348 m 4
 648 288.361328125 621.142578125 216 588 216 c 4
 554.857421875 216 528 288.361328125 528 348 c 4
 528 407.638671875 554.857421875 480 588 480 c 4
 621.142578125 480 648 407.638671875 648 348 c 4
864 216 m 0
 864 -22.583984375 670.583984375 -216 432 -216 c 0
 193.439453125 -216 0 -22.583984375 0 216 c 0
 0 454.560546875 193.439453125 648 432 648 c 0
 670.583984375 648 864 454.560546875 864 216 c 1024
432 120 m 0
 345.046875 120 287.353515625 130.126953125 216 144 c 0
 199.704101562 147.142578125 168 144 168 96 c 0
 168 0 278.280273438 -120 432 -120 c 0
 585.696289062 -120 696 0 696 96 c 0
 696 144 664.295898438 147.168945312 648 144 c 0
 576.646484375 130.126953125 518.953125 120 432 120 c 0
216 96 m 1
 216 96 288 72 432 72 c 0
 576 72 648 96 648 96 c 1
 648 96 600 0 432 0 c 0
 264 0 216 96 216 96 c 1
EndSplineSet
Fore
Refer: 36 -1 N 1 0 0 1 432 -120 0
Refer: 49 -1 N 1 0 0 1 588 216 0
Refer: 49 -1 N 1 0 0 1 276 216 0
Colour: 996633
EndChar

StartChar: KissingFace.1
Encoding: 27 -1 27
Width: 864
Flags: W
LayerCount: 2
Back
SplineSet
864 216 m 0
 864 -22.583984375 670.583984375 -216 432 -216 c 0
 193.439453125 -216 0 -22.583984375 0 216 c 0
 0 454.560546875 193.439453125 648 432 648 c 0
 670.583984375 648 864 454.560546875 864 216 c 1024
240 276 m 0
 240 229.607421875 266.864257812 192 300 192 c 0
 333.135742188 192 360 229.607421875 360 276 c 0
 360 322.392578125 333.135742188 360 300 360 c 0
 266.864257812 360 240 322.392578125 240 276 c 0
504 276 m 0
 504 229.607421875 530.864257812 192 564 192 c 0
 597.135742188 192 624 229.607421875 624 276 c 0
 624 322.392578125 597.135742188 360 564 360 c 0
 530.864257812 360 504 322.392578125 504 276 c 0
500.904296875 -24 m 1
 532.943359375 -14.111328125 564 3.7431640625 564 36 c 0
 564 98.857421875 446.111328125 107.231445312 432.672851562 107.9765625 c 0
 426.095703125 108.623046875 420.45703125 103.342773438 420.0234375 96.7431640625 c 0
 419.615234375 90.1689453125 424.583984375 84.48046875 431.161132812 84.0234375 c 0
 432 83.9765625 516 76.8466796875 516 36 c 0
 516 -4.8466796875 432 -11.9765625 431.161132812 -12.0234375 c 0
 430.846679688 -12.046875 430.607421875 -12.2158203125 430.295898438 -12.2646484375 c 0
 429.0234375 -12.408203125 427.846679688 -12.6962890625 426.719726562 -13.2470703125 c 2
 426.361328125 -13.46484375 l 2
 425.208007812 -14.111328125 424.176757812 -14.880859375 423.311523438 -15.865234375 c 0
 422.9765625 -16.2236328125 422.760742188 -16.607421875 422.47265625 -16.9921875 c 0
 421.919921875 -17.7607421875 421.416015625 -18.52734375 421.03125 -19.46484375 c 0
 420.743164062 -20.1611328125 420.599609375 -20.927734375 420.45703125 -21.6728515625 c 0
 420.361328125 -22.2236328125 420.072265625 -22.7275390625 420.0234375 -23.2802734375 c 0
 420.0234375 -23.54296875 420.119140625 -23.7841796875 420.119140625 -24.0234375 c 0
 420.119140625 -24.2646484375 420 -24.52734375 420.0234375 -24.7685546875 c 0
 420.046875 -25.3427734375 420.334960938 -25.8466796875 420.45703125 -26.400390625 c 0
 420.599609375 -27.142578125 420.719726562 -27.865234375 421.0078125 -28.560546875 c 0
 421.319335938 -29.2802734375 421.752929688 -29.927734375 422.184570312 -30.576171875 c 0
 422.591796875 -31.1533203125 422.953125 -31.7763671875 423.431640625 -32.2802734375 c 0
 423.984375 -32.8310546875 424.630859375 -33.2646484375 425.303710938 -33.7431640625 c 0
 425.880859375 -34.1533203125 426.408203125 -34.560546875 427.080078125 -34.873046875 c 0
 427.846679688 -35.2314453125 428.665039062 -35.376953125 429.50390625 -35.51953125 c 0
 430.080078125 -35.6650390625 430.560546875 -35.953125 431.161132812 -36 c 0
 432 -36.0234375 516 -43.1533203125 516 -84 c 0
 516 -124.846679688 432 -131.9765625 431.161132812 -132.0234375 c 0
 424.583984375 -132.50390625 419.615234375 -138.192382812 420.0234375 -144.743164062 c 0
 420.431640625 -151.103515625 425.711914062 -156 432 -156 c 2
 432.672851562 -155.9765625 l 2
 446.111328125 -155.231445312 564 -146.857421875 564 -84 c 0
 564 -51.7431640625 532.943359375 -33.888671875 500.904296875 -24 c 1
EndSplineSet
Fore
Refer: 68 -1 N 1 0 0 1 432 -24 0
Refer: 4 -1 N 0.15625 0 0 0.21875 564 276 0
Refer: 4 -1 N 0.15625 0 0 0.21875 300 276 0
Colour: 996633
EndChar

StartChar: GrinningFaceWithSmilingEyes.1
Encoding: 29 -1 29
Width: 864
GlyphClass: 5
Flags: W
LayerCount: 2
Back
SplineSet
864 216 m 0
 864 -22.583984375 670.583984375 -216 432 -216 c 0
 193.439453125 -216 0 -22.583984375 0 216 c 0
 0 454.560546875 193.439453125 648 432 648 c 0
 670.583984375 648 864 454.560546875 864 216 c 1024
682.96875 220.873046875 m 0
 681.52734375 224.111328125 646.9921875 300 576 300 c 0
 505.03125 300 470.47265625 224.111328125 469.03125 220.873046875 c 0
 466.823242188 215.904296875 468.264648438 210.095703125 472.51171875 206.688476562 c 0
 476.711914062 203.280273438 482.735351562 203.161132812 487.153320312 206.353515625 c 0
 487.439453125 206.568359375 517.439453125 228 576 228 c 0
 634.223632812 228 664.176757812 206.857421875 664.846679688 206.376953125 c 0
 666.9609375 204.791992188 669.50390625 204 672 204 c 0
 674.638671875 204 677.303710938 204.888671875 679.48828125 206.615234375 c 0
 683.735351562 210.0234375 685.200195312 215.880859375 682.96875 220.873046875 c 0
394.96875 220.873046875 m 0
 393.52734375 224.111328125 358.9921875 300 288 300 c 0
 217.03125 300 182.47265625 224.111328125 181.03125 220.873046875 c 0
 178.823242188 215.904296875 180.264648438 210.095703125 184.48828125 206.688476562 c 0
 188.711914062 203.280273438 194.735351562 203.161132812 199.126953125 206.353515625 c 0
 199.439453125 206.568359375 229.416015625 228 288 228 c 0
 346.223632812 228 376.176757812 206.857421875 376.846679688 206.376953125 c 0
 378.9609375 204.791992188 381.50390625 204 384 204 c 0
 386.638671875 204 389.303710938 204.888671875 391.48828125 206.615234375 c 0
 395.760742188 210.0234375 397.176757812 215.880859375 394.96875 220.873046875 c 0
432 120 m 0
 345.046875 120 287.353515625 130.126953125 216 144 c 0
 199.704101562 147.142578125 168 144 168 96 c 0
 168 0 278.280273438 -120 432 -120 c 0
 585.696289062 -120 696 0 696 96 c 0
 696 144 664.295898438 147.168945312 648 144 c 0
 576.646484375 130.126953125 518.953125 120 432 120 c 0
216 96 m 1
 216 96 288 72 432 72 c 0
 576 72 648 96 648 96 c 1
 648 96 600 0 432 0 c 0
 264 0 216 96 216 96 c 1
EndSplineSet
Fore
Refer: 135 -1 S 1 0 0 1 0 -84 2
Refer: 36 -1 N 1 0 0 1 432 -120 0
Colour: 996633
EndChar

StartChar: SmilingFaceWithHeartEyes.2
Encoding: 30 -1 30
Width: 864
Flags: W
LayerCount: 2
Back
SplineSet
864 216 m 0
 864 -22.583984375 670.583984375 -216 432 -216 c 0
 193.416015625 -216 0 -22.583984375 0 216 c 0
 0 454.583984375 193.416015625 648 432 648 c 0
 670.583984375 648 864 454.583984375 864 216 c 1024
432 123.623046875 m 0
 360.815429688 123.623046875 313.560546875 131.927734375 255.142578125 143.280273438 c 0
 241.776367188 145.823242188 215.831054688 143.280273438 215.831054688 103.96875 c 0
 215.831054688 25.369140625 306.142578125 -72.888671875 432 -72.888671875 c 0
 557.857421875 -72.888671875 648.168945312 25.369140625 648.168945312 103.96875 c 0
 648.168945312 143.280273438 622.200195312 145.846679688 608.857421875 143.280273438 c 0
 550.439453125 131.927734375 503.208007812 123.623046875 432 123.623046875 c 1024
399.599609375 569.256835938 m 4
 378.984375 627.599609375 315.0234375 658.223632812 256.657226562 637.657226562 c 0
 221.231445312 625.176757812 196.153320312 596.591796875 186.384765625 563.161132812 c 1
 157.799804688 583.056640625 120.361328125 589.560546875 84.984375 577.080078125 c 0
 26.6650390625 556.48828125 -4.0078125 492.48046875 16.607421875 434.134765625 c 4
 19.53515625 425.880859375 23.423828125 418.223632812 27.935546875 411.142578125 c 0
 74.7607421875 325.176757812 210.046875 264.743164062 291.9609375 264 c 0
 355.247070312 316.0078125 422.665039062 447.9609375 405.192382812 544.247070312 c 0
 404.280273438 552.599609375 402.48046875 561 399.599609375 569.256835938 c 4
464.400390625 569.256835938 m 0
 485.015625 627.599609375 549 658.223632812 607.342773438 637.657226562 c 0
 642.768554688 625.176757812 667.846679688 596.591796875 677.638671875 563.161132812 c 1
 706.223632812 583.056640625 743.665039062 589.560546875 779.0390625 577.080078125 c 0
 837.361328125 556.48828125 868.0078125 492.48046875 847.439453125 434.134765625 c 0
 844.48828125 425.880859375 840.623046875 418.223632812 836.087890625 411.142578125 c 0
 789.264648438 325.176757812 653.9765625 264.743164062 572.0390625 264 c 0
 508.752929688 316.0078125 441.361328125 447.9609375 458.831054688 544.247070312 c 0
 459.719726562 552.599609375 461.51953125 561 464.400390625 569.256835938 c 0
EndSplineSet
Fore
Refer: 10 -1 N 0.550269 0.194104 -0.194104 0.550269 292 264 0
Refer: 10 -1 N 0.550269 -0.194104 0.194104 0.550269 572 264 0
Colour: de2e45
EndChar

StartChar: KissingFaceWithClosedEyes.2
Encoding: 31 -1 31
Width: 864
Flags: W
LayerCount: 2
Back
SplineSet
864 216 m 0
 864 -22.583984375 670.583984375 -216 432 -216 c 0
 193.416015625 -216 0 -22.583984375 0 216 c 0
 0 454.583984375 193.416015625 648 432 648 c 0
 670.583984375 648 864 454.583984375 864 216 c 1024
48 144 m 0
 48 77.7255859375 101.725585938 24 168 24 c 0
 234.274414062 24 288 77.7255859375 288 144 c 0
 288 210.274414062 234.274414062 264 168 264 c 0
 101.725585938 264 48 210.274414062 48 144 c 0
576 144 m 0
 576 77.7255859375 629.725585938 24 696 24 c 0
 762.274414062 24 816 77.7255859375 816 144 c 0
 816 210.274414062 762.274414062 264 696 264 c 0
 629.725585938 264 576 210.274414062 576 144 c 0
681.984375 222.646484375 m 0
 680.51953125 224.831054688 645.623046875 276 576 276 c 0
 506.400390625 276 471.48046875 224.831054688 470.015625 222.646484375 c 0
 466.776367188 217.799804688 467.51953125 211.369140625 471.719726562 207.334960938 c 0
 475.896484375 203.327148438 482.423828125 202.896484375 487.153320312 206.327148438 c 0
 487.439453125 206.568359375 517.439453125 228 576 228 c 0
 634.223632812 228 664.176757812 206.857421875 664.846679688 206.376953125 c 0
 666.984375 204.791992188 669.50390625 204 672 204 c 0
 674.9765625 204 677.953125 205.103515625 680.256835938 207.288085938 c 0
 684.50390625 211.295898438 685.223632812 217.799804688 681.984375 222.646484375 c 0
288 276 m 0
 218.400390625 276 183.48046875 224.831054688 182.015625 222.646484375 c 0
 178.799804688 217.799804688 179.51953125 211.369140625 183.719726562 207.334960938 c 0
 187.919921875 203.327148438 194.447265625 202.896484375 199.126953125 206.327148438 c 0
 199.439453125 206.568359375 229.416015625 228 288 228 c 0
 346.223632812 228 376.176757812 206.857421875 376.846679688 206.376953125 c 0
 378.984375 204.791992188 381.50390625 204 384 204 c 0
 386.9765625 204 389.953125 205.103515625 392.256835938 207.288085938 c 0
 396.50390625 211.295898438 397.247070312 217.799804688 393.984375 222.672851562 c 0
 392.51953125 224.831054688 357.623046875 276 288 276 c 0
524.904296875 0 m 1
 556.943359375 9.888671875 588 27.7431640625 588 60 c 0
 588 122.857421875 470.111328125 131.231445312 456.646484375 131.9765625 c 0
 450 132.838867188 444.408203125 127.319335938 444.0234375 120.743164062 c 0
 443.615234375 114.168945312 448.583984375 108.48046875 455.161132812 108.0234375 c 0
 456 107.9765625 540 100.846679688 540 60 c 0
 540 19.1533203125 456 12.0234375 455.161132812 11.9765625 c 0
 454.919921875 11.953125 454.752929688 11.8310546875 454.53515625 11.8076171875 c 0
 451.560546875 11.615234375 449.015625 10.2470703125 447.095703125 7.9921875 c 2
 446.735351562 7.48828125 l 2
 446.0390625 6.552734375 445.416015625 5.615234375 444.984375 4.48828125 c 0
 444.719726562 3.8388671875 444.599609375 3.119140625 444.48046875 2.423828125 c 0
 444.361328125 1.8466796875 444.072265625 1.3193359375 444.0234375 0.7431640625 c 0
 444 0.50390625 444.119140625 0.2646484375 444.119140625 0 c 0
 444.119140625 -0.2646484375 444 -0.50390625 444.0234375 -0.7431640625 c 0
 444.072265625 -1.3427734375 444.334960938 -1.8466796875 444.48046875 -2.423828125 c 0
 444.623046875 -3.119140625 444.743164062 -3.8388671875 445.0078125 -4.51171875 c 0
 445.319335938 -5.2802734375 445.776367188 -5.953125 446.231445312 -6.623046875 c 0
 446.638671875 -7.1767578125 446.953125 -7.7529296875 447.431640625 -8.2314453125 c 0
 447.984375 -8.8076171875 448.680664062 -9.2646484375 449.376953125 -9.7197265625 c 0
 449.953125 -10.126953125 450.45703125 -10.51171875 451.080078125 -10.8232421875 c 0
 451.823242188 -11.1845703125 452.638671875 -11.3271484375 453.50390625 -11.47265625 c 0
 454.056640625 -11.615234375 454.560546875 -11.904296875 455.161132812 -11.953125 c 0
 456 -12.0234375 540 -19.1533203125 540 -60 c 0
 540 -100.846679688 456 -107.9765625 455.161132812 -108.0234375 c 0
 448.607421875 -108.50390625 443.615234375 -114.192382812 444.0234375 -120.743164062 c 0
 444.431640625 -127.103515625 449.688476562 -132 456 -132 c 2
 456.646484375 -131.9765625 l 2
 470.111328125 -131.231445312 588 -122.857421875 588 -60 c 0
 588 -27.7431640625 556.943359375 -9.888671875 524.904296875 0 c 1
744.0234375 264 m 0
 736.704101562 264 729.52734375 267.311523438 724.799804688 273.599609375 c 0
 661.416015625 358.103515625 579.334960938 359.9765625 575.857421875 360 c 0
 562.657226562 360.142578125 552 370.943359375 552.072265625 384.119140625 c 0
 552.142578125 397.342773438 562.799804688 408 576 408 c 0
 580.416015625 408 684.888671875 406.799804688 763.200195312 302.400390625 c 0
 771.168945312 291.791992188 769.0078125 276.743164062 758.400390625 268.799804688 c 0
 754.080078125 265.560546875 749.0390625 264 744.0234375 264 c 0
119.9765625 264 m 0
 114.984375 264 109.919921875 265.560546875 105.599609375 268.799804688 c 0
 94.9921875 276.743164062 92.857421875 291.791992188 100.799804688 302.400390625 c 0
 179.087890625 406.799804688 283.583984375 408 288 408 c 0
 301.247070312 408 312 397.247070312 312 384 c 0
 312 370.776367188 301.319335938 360.046875 288.095703125 360 c 0
 284.353515625 359.953125 202.439453125 357.935546875 139.176757812 273.599609375 c 0
 134.49609375 267.311523438 127.272460938 264 119.9765625 264 c 0
EndSplineSet
Fore
Refer: 67 -1 N -1 0 0 -1 576 276 0
Refer: 67 -1 N -1 0 0 -1 288 276 0
Refer: 68 -1 N 1 0 0 1 456 0 0
Refer: 12 -1 N -1 0 0 1 576 384 0
Refer: 12 -1 N 1 0 0 1 288 384 0
Colour: 996633
EndChar

StartChar: SmilingFaceWithHearts.1
Encoding: 33 -1 33
Width: 864
Flags: W
LayerCount: 2
Back
SplineSet
0 216 m 0
 0 -22.5869140625 193.413085938 -216 432 -216 c 0
 670.586914062 -216 864 -22.5869140625 864 216 c 0
 864 454.586914062 670.586914062 648 432 648 c 0
 193.413085938 648 0 454.586914062 0 216 c 0
384 241.0078125 m 0
 373.943359375 241.0078125 364.583984375 247.369140625 361.223632812 257.423828125 c 0
 356.353515625 271.799804688 336.791992188 313.0078125 312 313.0078125 c 0
 286.51171875 313.0078125 266.688476562 269.161132812 262.776367188 257.423828125 c 0
 258.576171875 244.873046875 245.064453125 238.03125 232.416015625 242.256835938 c 0
 219.838867188 246.431640625 213.046875 260.0390625 217.247070312 272.615234375 c 0
 220.247070312 281.665039062 248.54296875 361.03125 312.0234375 361.03125 c 0
 375.50390625 361.03125 403.776367188 281.665039062 406.799804688 272.615234375 c 0
 411 260.0390625 404.208007812 246.431640625 391.630859375 242.256835938 c 0
 389.087890625 241.392578125 386.51953125 241.0078125 384 241.0078125 c 0
624 241.0078125 m 0
 613.943359375 241.0078125 604.583984375 247.369140625 601.247070312 257.423828125 c 0
 596.376953125 271.799804688 576.791992188 313.0078125 552 313.0078125 c 0
 526.51171875 313.0078125 506.665039062 269.161132812 502.752929688 257.423828125 c 0
 498.552734375 244.873046875 485.087890625 238.03125 472.392578125 242.256835938 c 0
 459.838867188 246.431640625 453.0234375 260.0390625 457.223632812 272.615234375 c 0
 460.223632812 281.665039062 488.51953125 361.03125 551.9765625 361.03125 c 0
 615.431640625 361.03125 643.727539062 281.665039062 646.727539062 272.615234375 c 0
 650.927734375 260.0390625 644.134765625 246.431640625 631.560546875 242.256835938 c 0
 629.064453125 241.392578125 626.51953125 241.0078125 624 241.0078125 c 0
656.0390625 151.416015625 m 0
 651.768554688 155.280273438 645.384765625 155.51953125 640.799804688 152.111328125 c 0
 639.865234375 151.416015625 546.672851562 82.51171875 432 82.51171875 c 0
 317.615234375 82.51171875 224.111328125 151.416015625 223.200195312 152.111328125 c 0
 218.615234375 155.51953125 212.231445312 155.231445312 207.9609375 151.416015625 c 0
 203.711914062 147.576171875 202.752929688 141.239257812 205.704101562 136.342773438 c 0
 208.799804688 131.184570312 282.912109375 10.51171875 432 10.51171875 c 0
 581.087890625 10.51171875 655.223632812 131.184570312 658.295898438 136.342773438 c 0
 661.247070312 141.264648438 660.311523438 147.552734375 656.0390625 151.416015625 c 0
509.49609375 553.272460938 m 0
 509.49609375 547.51171875 510.215820312 541.943359375 511.46484375 536.568359375 c 0
 521.665039062 473.134765625 592.200195312 406.223632812 642.743164062 387.838867188 c 0
 682.704101562 402.361328125 735.046875 447.264648438 760.295898438 496.776367188 c 0
 710.161132812 555.334960938 644.638671875 600.311523438 570 625.46484375 c 0
 535.630859375 619.295898438 509.49609375 589.416015625 509.49609375 553.272460938 c 0
329.831054688 -49.873046875 m 0
 331.200195312 -44.064453125 331.9921875 -38.015625 331.9921875 -31.7763671875 c 0
 331.9921875 12.2158203125 296.327148438 47.880859375 252.334960938 47.880859375 c 0
 225.623046875 47.880859375 202.080078125 34.7041015625 187.607421875 14.54296875 c 1
 173.161132812 34.6806640625 149.591796875 47.880859375 122.880859375 47.880859375 c 0
 93.095703125 47.880859375 67.416015625 31.3427734375 53.7607421875 7.126953125 c 0
 97.53515625 -71.953125 165.361328125 -135.838867188 247.392578125 -174.646484375 c 0
 286.680664062 -142.223632812 322.53515625 -95.2802734375 329.831054688 -49.873046875 c 0
823.223632812 32.591796875 m 0
 816.45703125 55.392578125 795.576171875 72.119140625 770.568359375 72.119140625 c 0
 752.064453125 72.119140625 735.743164062 63 725.735351562 49.03125 c 1
 715.727539062 63 699.408203125 72.119140625 680.904296875 72.119140625 c 0
 650.423828125 72.119140625 625.727539062 47.423828125 625.727539062 16.943359375 c 0
 625.727539062 12.623046875 626.280273438 8.447265625 627.215820312 4.416015625 c 0
 634.583984375 -41.3037109375 683.568359375 -89.087890625 721.03125 -105.046875 c 0
 763.657226562 -66.646484375 798.576171875 -19.919921875 823.223632812 32.591796875 c 0
807 569.54296875 m 0
 807 610.153320312 774.072265625 643.056640625 733.48828125 643.056640625 c 0
 708.838867188 643.056640625 687.095703125 630.888671875 673.752929688 612.288085938 c 1
 660.408203125 630.888671875 638.665039062 643.056640625 614.015625 643.056640625 c 0
 573.408203125 643.056640625 540.50390625 610.153320312 540.50390625 569.54296875 c 0
 540.50390625 563.784179688 541.223632812 558.215820312 542.47265625 552.838867188 c 0
 552.696289062 489.408203125 623.208007812 422.49609375 673.752929688 404.111328125 c 0
 724.295898438 422.49609375 794.807617188 489.408203125 805.0078125 552.815429688 c 0
 806.280273438 558.215820312 807 563.784179688 807 569.54296875 c 0
292.9921875 -33.7919921875 m 0
 292.9921875 10.2001953125 257.327148438 45.865234375 213.334960938 45.865234375 c 0
 186.623046875 45.865234375 163.080078125 32.6884765625 148.607421875 12.52734375 c 1
 134.161132812 32.6884765625 110.591796875 45.865234375 83.880859375 45.865234375 c 0
 39.888671875 45.865234375 4.2236328125 10.2001953125 4.2236328125 -33.7919921875 c 0
 4.2236328125 -40.03125 5.015625 -46.056640625 6.361328125 -51.888671875 c 0
 17.423828125 -120.599609375 93.8154296875 -193.103515625 148.583984375 -213.0234375 c 0
 203.353515625 -193.126953125 279.743164062 -120.623046875 290.807617188 -51.912109375 c 0
 292.200195312 -46.056640625 292.9921875 -40.0078125 292.9921875 -33.7919921875 c 0
862.752929688 20.953125 m 0
 862.752929688 51.431640625 838.056640625 76.126953125 807.576171875 76.126953125 c 0
 789.072265625 76.126953125 772.752929688 67.0078125 762.743164062 53.0390625 c 1
 752.735351562 67.0078125 736.416015625 76.126953125 717.912109375 76.126953125 c 0
 687.431640625 76.126953125 662.735351562 51.431640625 662.735351562 20.953125 c 0
 662.735351562 16.630859375 663.288085938 12.45703125 664.223632812 8.423828125 c 0
 671.880859375 -39.1689453125 724.799804688 -89.400390625 762.743164062 -103.176757812 c 0
 800.665039062 -89.400390625 853.607421875 -39.1689453125 861.239257812 8.423828125 c 0
 862.200195312 12.45703125 862.752929688 16.630859375 862.752929688 20.953125 c 0
EndSplineSet
Fore
Refer: 9 -1 N 1 0 0 1 552 337 0
Refer: 9 -1 N 1 0 0 1 312 337 0
Refer: 11 -1 N 1 0 0 1 432 11 0
Colour: 996633
EndChar

StartChar: mouth.zigzag
Encoding: 34 -1 34
Width: 0
GlyphClass: 5
Flags: W
LayerCount: 2
Back
SplineSet
-208.967235 31.032765 m 9
 -184.967235 7.032765 l 17
 -184.563912354 6.62944235436 -184.143438909 6.23756995302 -183.70588362 5.85812272611 c 1
 -173.700055747 -2.81891475044 -158.526417702 -1.73373979252 -149.842580799 8.27992876273 c 1
 -149.462836233 8.71782692496 -149.101750382 9.16559419968 -148.759254289 9.62225565676 c 13
 -76.7885894978 105.620157687 l 1
 -114.749802082 105.024304497 l 1
 -18.7498020823 -14.975695503 l 17
 -14.3481915862 -20.4777086231 -7.57820935747 -24.0043100199 0.00895493051934 -24.0043100199 c 1
 7.59611921851 -24.0043100199 14.3661014472 -20.4777086231 18.7677119433 -14.975695503 c 9
 114.749802082 105.024304497 l 1
 76.7885894978 105.620157687 l 1
 148.788589498 9.62015768699 l 17
 149.131085591 9.16349622985 149.492171442 8.71572895507 149.871916008 8.27783079278 c 1
 158.555752911 -1.73583776239 173.729390956 -2.82101272016 183.735218829 5.85602475649 c 1
 184.172774118 6.23547198335 184.593247563 6.62734438464 184.996570209 7.03066703022 c 9
 208.967235 31.032765 l 17
 213.303983946 35.3828223293 215.991966757 41.3816457925 215.991966757 48.0033270959 c 1
 215.991966757 61.2466897028 205.240035511 71.9986209489 191.996672904 71.9986209489 c 1
 185.374991601 71.9986209489 179.376168137 69.3106381374 175.032765 64.967235 c 1
 151.032765 40.967235 l 1
 187.211410502 38.379842313 l 1
 115.245238333 134.379311339 l 17
 114.641229474 135.184656484 113.979849045 135.960932634 113.261010877 136.702607705 c 1
 104.036770447 146.219894736 88.8219557498 146.458712078 79.3058133196 137.235581006 c 1
 78.5642274468 136.51682929 77.8789935901 135.761690093 77.2501979177 134.975695503 c 9
 -18.7498020823 14.975695503 l 1
 18.7498020823 14.975695503 l 1
 -77.2163700871 134.976226477 l 17
 -77.8451657594 135.762221067 -78.5303996159 136.517360264 -79.2719854886 137.23611198 c 1
 -88.7881279184 146.459243052 -104.002942616 146.220425711 -113.227183046 136.703138679 c 1
 -113.946021214 135.961463609 -114.607401643 135.185187458 -115.211410502 134.379842313 c 9
 -187.211410502 38.379842313 l 1
 -151.032765 40.967235 l 1
 -175.032765 64.967235 l 1
 -179.376168137 69.3106381374 -185.374991601 71.9986209489 -191.996672904 71.9986209489 c 1
 -205.240035511 71.9986209489 -215.991966757 61.2466897028 -215.991966757 48.0033270959 c 1
 -215.991966757 41.3816457925 -213.303983946 35.3828223293 -208.967235 31.032765 c 9
-192 48 m 1
 -168 24 l 1
 -96 120 l 1
 0 0 l 1
 96 120 l 1
 168 24 l 1
 192 48 l 1025
EndSplineSet
Fore
SplineSet
-216 48 m 129,-1,1
 -216 58 -216 58 -209 65 c 129,-1,2
 -202 72 -202 72 -192 72 c 129,-1,3
 -182 72 -182 72 -175 65 c 9,4,5
 -175 65 -175 65 -171 61 c 1,6,-1
 -171 60 l 1,7,8
 -171 60 -171 60 -117 132 c 1,9,10
 -114 136 -114 136 -113 137 c 1,11,12
 -106 144 -106 144 -96 144 c 129,-1,13
 -86 144 -86 144 -78 136 c 1,14,15
 -78 136 -78 136 0 38 c 1,16,-1
 78 136 l 17,17,18
 86 144 86 144 96 144 c 129,-1,19
 106 144 106 144 113 137 c 1,20,21
 114 136 114 136 117 132 c 1,22,23
 171 60 171 60 171 60 c 129,-1,24
 171 60 171 60 171 61 c 1,25,-1
 175 65 l 17,26,27
 182 72 182 72 192 72 c 129,-1,28
 202 72 202 72 209 65 c 129,-1,29
 216 58 216 58 216 48 c 129,-1,30
 216 38 216 38 209 31 c 9,31,32
 209 31 209 31 185 7 c 17,33,34
 178 0 178 0 168 0 c 129,-1,35
 158 0 158 0 151 7 c 1,36,37
 150 8 150 8 147 12 c 9,38,39
 96 80 96 80 96 80 c 1,40,41
 94 79 94 79 94 79 c 129,-1,42
 94 79 94 79 21 -12 c 1,43,44
 18 -16 18 -16 17 -17 c 1,45,46
 10 -24 10 -24 0 -24 c 129,-1,47
 -10 -24 -10 -24 -17 -17 c 1,48,49
 -18 -16 -18 -16 -21 -12 c 1,50,51
 -94 79 -94 79 -94 79 c 129,-1,52
 -94 79 -94 79 -96 80 c 1,53,54
 -96 80 -96 80 -147 12 c 17,55,56
 -150 8 -150 8 -151 7 c 1,57,58
 -158 0 -158 0 -168 0 c 129,-1,59
 -178 0 -178 0 -185 7 c 9,60,61
 -209 31 -209 31 -209 31 c 17,62,0
 -216 38 -216 38 -216 48 c 129,-1,1
-192 48 m 1049,63,-1
-171 60 m 1049,64,-1
171 60 m 1049,65,-1
192 48 m 1049,66,-1
EndSplineSet
Colour: ff00ff
EndChar

StartChar: eye.squinting
Encoding: 35 -1 35
Width: 864
GlyphClass: 5
Flags: W
LayerCount: 2
Back
SplineSet
0 -24 m 1
 0 -24 -0.0852854145495 -23.999664076 -0.0121652881564 -24.0000876498 c 0
 0.292736301292 -24.0018538983 3.27207661097 -24.0266421513 8.31769608342 -24.3215926271 c 0
 12.8586032484 -24.5870392658 19.0731004732 -25.0714215186 26.5141897974 -25.9502903364 c 0
 33.9551239362 -26.8291408252 42.6224756658 -28.1027672468 52.0652645797 -29.938603576 c 0
 59.6193732644 -31.4072488338 67.6694024238 -33.2356353346 75.9831292088 -35.5030153669 c 0
 86.3754178669 -38.33727591 97.17820171 -41.8583540612 107.942347983 -46.2012785894 c 0
 116.553850425 -49.6756930235 125.139244274 -53.6752339704 133.480129417 -58.2568469361 c 0
 141.821729771 -62.8388527645 149.916700061 -68.0014871965 157.573593067 -73.7986414836 c 0
 163.699770932 -78.4368672299 169.545985438 -83.4804554379 175.032765 -88.967235 c 1
 192 -48 l 1
 180.605582768 -48 169.451678616 -48.5999374748 158.584416291 -49.687513376 c 0
 145.000224343 -51.0469946656 131.863669838 -53.1682137857 119.260764716 -55.8390281163 c 0
 106.657734299 -58.5098689995 94.5879211361 -61.7304653746 83.1355122801 -65.295913024 c 0
 68.8199512681 -69.7527381341 55.4685078337 -74.748379956 43.2463749826 -79.8945411564 c 0
 21.2470594469 -89.1574108556 2.90189729927 -98.9067614159 -10.7963465006 -106.939239456 c 0
 -27.918428007 -116.979412904 -37.7841799339 -124.341842729 -38.3798419991 -124.788589262 c 2
 -38.3798419991 -124.788589262 -38.3762875298 -124.793338019 -38.4165979241 -124.816156205 c 0
 -44.2148974607 -129.172295319 -47.9952565552 -136.149343525 -47.9952565552 -144.002374378 c 0
 -47.9952565552 -157.246697283 -37.2425456695 -167.999408168 -23.9982227653 -167.999408168 c 0
 -18.6069307148 -167.999408168 -13.6285022813 -166.217668846 -9.62015800088 -163.211410738 c 1
 -9.62015800088 -163.211410738 -9.68703067218 -163.261151922 -9.62789184495 -163.217329748 c 0
 -9.3764861909 -163.031036871 -6.95935986485 -161.249360246 -2.6424984881 -158.382527622 c 0
 1.24262376499 -155.802413448 6.66648005992 -152.343408858 13.4322590479 -148.376041074 c 0
 25.6108294192 -141.234680438 42.1384000867 -132.4502709 61.8400447704 -124.15484156 c 0
 77.6013652441 -117.518496097 95.39041351 -111.196937725 114.59077177 -106.242006561 c 0
 127.924454698 -102.801056128 141.937164309 -100.018743762 156.423803942 -98.2288886719 c 0
 168.013305595 -96.7969811317 179.905595284 -96 192 -96 c 1
 191 -96 193.002794882 -95.9932517817 192.002794882 -95.9932517817 c 1
 195.060681506 -95.9932517817 198.168555497 -95.405031903 201.1675048 -94.1627673192 c 0
 213.403599902 -89.0941696027 219.222503161 -75.0444804633 214.153664255 -62.8078031062 c 0
 212.911340558 -59.8087110988 211.129560121 -57.1950901213 208.967235 -55.032765 c 0
 201.812039253 -47.8775692535 194.276373174 -41.3890400674 186.508116045 -35.5075702485 c 0
 176.796965307 -28.1551050792 166.723025589 -21.7500291622 156.538894332 -16.1559288942 c 0
 146.354047863 -10.5614357634 136.056888497 -5.77647486636 125.873060784 -1.66768685401 c 0
 113.143044361 3.46839167592 100.587951538 7.54928627426 88.6259242892 10.8116573422 c 0
 79.0561983484 13.4215825987 69.8650536679 15.5070830581 61.2643120602 17.1792112869 c 0
 50.5135381086 19.2693418159 40.6847075157 20.71369245 32.1941146051 21.7165183843 c 0
 23.7036768799 22.7193259896 16.5513023284 23.2803195275 11.1572677201 23.595637217 c 0
 4.41496027301 23.989770544 0.419735792634 23.9999999999 -3.19809031316e-24 24 c 0
 -13.24596 24 -24 13.24596 -24 0 c 0
 -24 -13.24596 -13.24596 -24 -1.44000000101e-08 -24 c 0
 0 -24 0 -24 0 -24 c 1
0 0 m 0
 0 0 120 0 192 -72 c 1
 72 -72 -24 -144 -24 -144 c 1024
EndSplineSet
Fore
SplineSet
-48 -144 m 257,0,1
 -48 -131 -48 -131 -36 -123 c 1,2,3
 2 -97 2 -97 43 -80 c 129,-1,4
 84 -63 84 -63 126 -54 c 1,5,6
 92 -38 92 -38 57 -31 c 129,-1,7
 22 -24 22 -24 0 -24 c 1,8,9
 -10 -24 -10 -24 -17 -17 c 129,-1,10
 -24 -10 -24 -10 -24 0 c 129,-1,11
 -24 10 -24 10 -17 17 c 129,-1,12
 -10 24 -10 24 0 24 c 1,13,14
 30 24 30 24 71.5 15 c 129,-1,15
 113 6 113 6 147 -11 c 129,-1,16
 181 -28 181 -28 208 -54 c 257,17,18
 216 -62 216 -62 216 -72 c 129,-1,19
 216 -82 216 -82 209 -89 c 129,-1,20
 202 -96 202 -96 192 -96 c 1,21,22
 140 -96 140 -96 86 -115 c 129,-1,23
 32 -134 32 -134 -8 -162 c 1,24,25
 -15 -168 -15 -168 -24 -168 c 257,26,27
 -34 -168 -34 -168 -41 -161 c 129,-1,28
 -48 -154 -48 -154 -48 -144 c 257,0,1
EndSplineSet
Colour: ff00ff
EndChar

StartChar: mouth.grinning
Encoding: 36 -1 36
Width: 864
GlyphClass: 5
Flags: W
LayerCount: 2
Back
SplineSet
0 240 m 4
 86.953125 240 144.646484375 250.126953125 216 264 c 4
 232.295898438 267.142578125 264 264 264 216 c 4
 264 120 153.696289062 0 0 0 c 4
 -153.696289062 0 -264 120 -264 216 c 4
 -264 264 -232.295898438 267.142578125 -216 264 c 4
 -144.646484375 250.126953125 -86.953125 240 0 240 c 4
EndSplineSet
Fore
SplineSet
-264 216 m 3,0,1
 -264 243 -264 243 -251 255.5 c 128,-1,2
 -238 268 -238 268 -216 264 c 1,3,4
 -167 254 -167 254 -114.5 247 c 128,-1,5
 -62 240 -62 240 0 240 c 131,-1,6
 62 240 62 240 114.5 247 c 128,-1,7
 167 254 167 254 216 264 c 1,8,9
 238 268 238 268 251 255.5 c 128,-1,10
 264 243 264 243 264 216 c 3,11,12
 264 166 264 166 228 115 c 128,-1,13
 192 64 192 64 131 32 c 128,-1,14
 70 -7.1054273576e-15 70 -7.1054273576e-15 0 0 c 131,-1,15
 -70 -7.1054273576e-15 -70 -7.1054273576e-15 -131 32 c 128,-1,16
 -192 64 -192 64 -228 115 c 128,-1,17
 -264 166 -264 166 -264 216 c 3,0,1
EndSplineSet
Colour: ff00ff
EndChar

StartChar: LoudlyCryingFace.2
Encoding: 38 -1 38
Width: 864
Flags: W
LayerCount: 2
Back
SplineSet
432 -48 m 0
 392.231445312 -48 360 -39.7685546875 360 0 c 0
 360 39.7685546875 392.231445312 48 432 48 c 0
 471.768554688 48 504 39.7685546875 504 0 c 0
 504 -39.7685546875 471.768554688 -48 432 -48 c 0
864 216 m 0
 864 -22.583984375 670.583984375 -216 432 -216 c 0
 193.416015625 -216 0 -22.583984375 0 216 c 0
 0 454.583984375 193.416015625 648 432 648 c 0
 670.583984375 648 864 454.583984375 864 216 c 1024
528 0 m 0
 528 -66.3115234375 485.015625 -72 432 -72 c 0
 378.9609375 -72 336 -66.3115234375 336 0 c 0
 336 66.2646484375 378.9609375 144 432 144 c 0
 485.015625 144 528 66.2646484375 528 0 c 0
720 288 m 0
 717.0234375 288 714 288.552734375 711.095703125 289.727539062 c 0
 585.599609375 339.912109375 534.168945312 415.51171875 532.03125 418.704101562 c 0
 524.665039062 429.743164062 527.638671875 444.646484375 538.680664062 451.9921875 c 0
 549.696289062 459.334960938 564.52734375 456.408203125 571.919921875 445.416015625 c 0
 572.376953125 444.768554688 618.239257812 378.576171875 728.904296875 334.319335938 c 0
 741.215820312 329.376953125 747.215820312 315.431640625 742.295898438 303.119140625 c 0
 738.52734375 293.711914062 729.50390625 288 720 288 c 0
144 288 m 0
 134.47265625 288 125.47265625 293.711914062 121.704101562 303.095703125 c 0
 116.784179688 315.408203125 122.760742188 329.376953125 135.072265625 334.295898438 c 0
 245.760742188 378.552734375 291.623046875 444.743164062 292.080078125 445.392578125 c 0
 299.47265625 456.334960938 314.376953125 459.239257812 325.369140625 451.873046875 c 0
 336.334960938 444.48046875 339.311523438 429.672851562 331.96875 418.680664062 c 0
 329.831054688 415.48828125 278.400390625 339.888671875 152.927734375 289.704101562 c 0
 150 288.552734375 146.9765625 288 144 288 c 0
576 264 m 1
 672 264 l 1
 672 -192 l 1
 576 -190.896484375 l 1
 576 264 l 1
192 -192 m 1
 288 -190.896484375 l 1
 288 264 l 1
 192 264 l 1
 192 -192 l 1
359.9765625 216 m 0
 356.376953125 216 352.704101562 216.815429688 349.272460938 218.51953125 c 0
 264.984375 260.665039062 179.591796875 218.953125 178.752929688 218.51953125 c 0
 166.873046875 212.54296875 152.47265625 217.416015625 146.54296875 229.247070312 c 0
 140.615234375 241.103515625 145.416015625 255.52734375 157.272460938 261.45703125 c 0
 161.638671875 263.615234375 265.223632812 314.184570312 370.752929688 261.45703125 c 0
 382.607421875 255.52734375 387.408203125 241.103515625 381.48046875 229.247070312 c 0
 377.256835938 220.846679688 368.784179688 216 359.9765625 216 c 0
695.9765625 216 m 0
 692.376953125 216 688.704101562 216.815429688 685.272460938 218.51953125 c 0
 600.9609375 260.665039062 515.591796875 218.953125 514.752929688 218.51953125 c 0
 502.896484375 212.568359375 488.49609375 217.392578125 482.54296875 229.247070312 c 0
 476.615234375 241.103515625 481.416015625 255.52734375 493.272460938 261.45703125 c 0
 497.638671875 263.615234375 601.295898438 314.161132812 706.752929688 261.45703125 c 0
 718.607421875 255.52734375 723.408203125 241.103515625 717.48046875 229.247070312 c 0
 713.256835938 220.846679688 704.784179688 216 695.9765625 216 c 0
0 -168 m 0
 0 -194.509765625 193.413085938 -216 432 -216 c 0
 670.586914062 -216 864 -194.509765625 864 -168 c 0
 864 -141.490234375 670.586914062 -120 432 -120 c 0
 193.413085938 -120 0 -141.490234375 0 -168 c 0
EndSplineSet
Fore
Refer: 18 -1 N 1 0 0 1 504 240 0
Refer: 18 -1 N 1 0 0 1 168 240 0
Refer: 20 -1 S 1 0 0 1 0 0 0
Refer: 17 -1 N -1 0 0 1 552 432 0
Refer: 17 -1 N 1 0 0 1 312 432 0
Colour: 996633
EndChar

StartChar: SmilingFace.2
Encoding: 40 -1 40
Width: 864
Flags: W
LayerCount: 2
Back
SplineSet
320.483398438 56.4833984375 m 1
 320.483398438 56.4833984375 320.232421875 56.7255859375 320.233398438 56.724609375 c 2
 320.233398438 56.724609375 320.763671875 56.208984375 322.59375 55.05078125 c 0
 324.7890625 53.662109375 328.653320312 51.5361328125 334.73828125 49.1962890625 c 0
 350.133789062 43.275390625 379.786132812 36 432 36 c 0
 484.213867188 36 513.866210938 43.275390625 529.26171875 49.1962890625 c 0
 535.346679688 51.5361328125 539.2109375 53.662109375 541.40625 55.05078125 c 0
 543.236328125 56.208984375 543.766601562 56.724609375 543.766601562 56.724609375 c 1
 543.766601562 56.724609375 543.515625 56.4833984375 543.516601562 56.4833984375 c 0
 545.688476562 58.6552734375 548.688476562 60 552 60 c 0
 558.623046875 60 564 54.623046875 564 48 c 0
 564 46.994140625 563.875976562 46.017578125 563.642578125 45.083984375 c 0
 563.475585938 44.4169921875 559.938476562 30.36328125 550.233398438 12.525390625 c 0
 542.4765625 -1.73046875 530.7109375 -18.5302734375 513.265625 -32.486328125 c 0
 502.3671875 -41.2041015625 489.249023438 -48.771484375 473.73828125 -53.7353515625 c 0
 461.333007812 -57.705078125 447.431640625 -60 432 -60 c 0
 416.568359375 -60 402.666992188 -57.705078125 390.26171875 -53.7353515625 c 0
 374.750976562 -48.771484375 361.6328125 -41.2041015625 350.734375 -32.486328125 c 0
 333.2890625 -18.5302734375 321.5234375 -1.73046875 313.766601562 12.525390625 c 0
 304.061523438 30.36328125 300.524414062 44.4169921875 300.357421875 45.083984375 c 0
 300.124023438 46.017578125 300 46.994140625 300 48 c 0
 300 54.623046875 305.376953125 60 312 60 c 0
 315.311523438 60 318.311523438 58.6552734375 320.483398438 56.4833984375 c 1
864 216 m 0
 864 -22.583984375 670.583984375 -216 432 -216 c 0
 193.439453125 -216 0 -22.583984375 0 216 c 0
 0 454.560546875 193.439453125 648 432 648 c 0
 670.583984375 648 864 454.560546875 864 216 c 1024
576 120 m 0
 576 53.7255859375 629.725585938 0 696 0 c 0
 762.274414062 0 816 53.7255859375 816 120 c 0
 816 186.274414062 762.274414062 240 696 240 c 0
 629.725585938 240 576 186.274414062 576 120 c 0
48 120 m 0
 48 53.7255859375 101.725585938 0 168 0 c 0
 234.274414062 0 288 53.7255859375 288 120 c 0
 288 186.274414062 234.274414062 240 168 240 c 0
 101.725585938 240 48 186.274414062 48 120 c 0
696 312 m 0
 689.857421875 312 683.711914062 314.353515625 679.03125 319.03125 c 0
 617.184570312 380.831054688 509.711914062 360.696289062 508.657226562 360.45703125 c 0
 495.50390625 357.838867188 483.046875 366.384765625 480.48046875 379.342773438 c 0
 477.912109375 392.327148438 486.288085938 404.927734375 499.272460938 407.51953125 c 0
 504.719726562 408.623046875 632.784179688 433.080078125 712.943359375 352.96875 c 0
 722.327148438 343.583984375 722.327148438 328.416015625 712.943359375 319.03125 c 0
 708.288085938 314.353515625 702.142578125 312 696 312 c 0
168 312 m 0
 161.857421875 312 155.711914062 314.353515625 151.03125 319.03125 c 0
 141.646484375 328.416015625 141.646484375 343.583984375 151.03125 352.96875 c 0
 231.192382812 433.153320312 359.303710938 408.599609375 364.704101562 407.51953125 c 0
 377.711914062 404.927734375 386.134765625 392.280273438 383.51953125 379.272460938 c 0
 380.927734375 366.311523438 368.327148438 357.865234375 355.319335938 360.431640625 c 0
 353.665039062 360.791992188 246.623046875 380.665039062 184.96875 319.0078125 c 0
 180.288085938 314.353515625 174.142578125 312 168 312 c 0
624 192 m 0
 617.857421875 192 611.711914062 194.353515625 607.03125 199.03125 c 0
 575.735351562 230.353515625 508.873046875 222.408203125 485.784179688 216.696289062 c 0
 472.823242188 213.52734375 459.935546875 221.376953125 456.719726562 234.215820312 c 0
 453.52734375 247.080078125 461.327148438 260.064453125 474.192382812 263.280273438 c 0
 478.657226562 264.384765625 583.9921875 289.943359375 640.96875 232.96875 c 0
 650.353515625 223.583984375 650.353515625 208.416015625 640.96875 199.03125 c 0
 636.288085938 194.353515625 630.142578125 192 624 192 c 0
240 192 m 0
 233.857421875 192 227.711914062 194.353515625 223.03125 199.03125 c 0
 213.646484375 208.416015625 213.646484375 223.583984375 223.03125 232.96875 c 0
 279.984375 289.919921875 385.369140625 264.384765625 389.831054688 263.280273438 c 0
 402.672851562 260.064453125 410.47265625 247.080078125 407.280273438 234.215820312 c 0
 404.111328125 221.353515625 391.126953125 213.50390625 378.239257812 216.696289062 c 0
 355.103515625 222.384765625 288.264648438 230.303710938 256.9921875 199.03125 c 0
 252.288085938 194.353515625 246.142578125 192 240 192 c 0
EndSplineSet
Fore
Refer: 3 -1 N -1 0 0 1 504 384 0
Refer: 3 -1 N 1 0 0 1 360 384 0
Refer: 8 -1 N 1 0 0 1 432 -60 0
Refer: 1 -1 N -1 0 0 1 480 240 0
Refer: 1 -1 N 1 0 0 1 384 240 0
Colour: 996633
EndChar

StartChar: FlushedFace.4
Encoding: 44 -1 44
Width: 864
Flags: W
LayerCount: 2
Back
SplineSet
864 216 m 0
 864 -22.583984375 670.583984375 -216 432 -216 c 0
 193.439453125 -216 0 -22.583984375 0 216 c 0
 0 454.560546875 193.439453125 648 432 648 c 0
 670.583984375 648 864 454.560546875 864 216 c 1024
576 96 m 0
 576 29.7255859375 629.725585938 -24 696 -24 c 0
 762.274414062 -24 816 29.7255859375 816 96 c 0
 816 162.274414062 762.274414062 216 696 216 c 0
 629.725585938 216 576 162.274414062 576 96 c 0
48 96 m 0
 48 29.7255859375 101.725585938 -24 168 -24 c 0
 234.274414062 -24 288 29.7255859375 288 96 c 0
 288 162.274414062 234.274414062 216 168 216 c 0
 101.725585938 216 48 162.274414062 48 96 c 0
456 252 m 0
 456 179.09765625 515.09765625 120 588 120 c 0
 660.90234375 120 720 179.09765625 720 252 c 0
 720 324.90234375 660.90234375 384 588 384 c 0
 515.09765625 384 456 324.90234375 456 252 c 0
144 252 m 0
 144 179.09765625 203.09765625 120 276 120 c 0
 348.90234375 120 408 179.09765625 408 252 c 0
 408 324.90234375 348.90234375 384 276 384 c 0
 203.09765625 384 144 324.90234375 144 252 c 0
216 252 m 0
 216 218.864257812 242.864257812 192 276 192 c 0
 309.135742188 192 336 218.864257812 336 252 c 0
 336 285.135742188 309.135742188 312 276 312 c 0
 242.864257812 312 216 285.135742188 216 252 c 0
528 252 m 0
 528 218.864257812 554.864257812 192 588 192 c 0
 621.135742188 192 648 218.864257812 648 252 c 0
 648 285.135742188 621.135742188 312 588 312 c 0
 554.864257812 312 528 285.135742188 528 252 c 0
528 -72 m 2
 336 -72 l 2
 322.752929688 -72 312 -61.2724609375 312 -48 c 0
 312 -34.7275390625 322.752929688 -24 336 -24 c 2
 528 -24 l 2
 541.272460938 -24 552 -34.7275390625 552 -48 c 0
 552 -61.2724609375 541.272460938 -72 528 -72 c 2
720.0234375 384 m 0
 712.704101562 384 705.52734375 387.311523438 700.799804688 393.599609375 c 0
 637.439453125 478.103515625 555.334960938 479.953125 551.857421875 480 c 0
 538.657226562 480.142578125 528 490.943359375 528.072265625 504.119140625 c 0
 528.142578125 517.342773438 538.799804688 528 552 528 c 0
 556.416015625 528 660.888671875 526.799804688 739.200195312 422.400390625 c 0
 747.168945312 411.791992188 745.0078125 396.743164062 734.400390625 388.799804688 c 0
 730.080078125 385.560546875 725.0390625 384 720.0234375 384 c 0
143.9765625 384 m 0
 138.984375 384 133.919921875 385.560546875 129.599609375 388.799804688 c 0
 118.9921875 396.743164062 116.857421875 411.791992188 124.799804688 422.400390625 c 0
 203.087890625 526.799804688 307.583984375 528 312 528 c 0
 325.247070312 528 336 517.247070312 336 504 c 0
 336 490.776367188 325.319335938 480.046875 312.095703125 480 c 0
 308.376953125 479.953125 226.46484375 477.935546875 163.200195312 393.599609375 c 0
 158.49609375 387.311523438 151.272460938 384 143.9765625 384 c 0
EndSplineSet
Fore
Refer: 12 -1 N -1 0 0 1 552 504 0
Refer: 12 -1 N 1 0 0 1 312 504 0
Refer: 16 -1 N 1 0 0 1 336 -48 0
Colour: 996633
EndChar

StartChar: PensiveFace.1
Encoding: 46 -1 46
Width: 864
Flags: W
LayerCount: 2
Back
SplineSet
864 216 m 0
 864 -22.583984375 670.583984375 -216 432 -216 c 0
 193.439453125 -216 0 -22.583984375 0 216 c 0
 0 454.560546875 193.439453125 648 432 648 c 0
 670.583984375 648 864 454.560546875 864 216 c 1024
415.48828125 225.311523438 m 0
 411.264648438 228.743164062 405.239257812 228.838867188 400.846679688 225.646484375 c 0
 400.560546875 225.431640625 370.607421875 204 312 204 c 0
 253.416015625 204 223.439453125 225.431640625 223.200195312 225.599609375 c 0
 218.807617188 228.888671875 212.760742188 228.791992188 208.53515625 225.384765625 c 0
 204.264648438 221.9765625 202.823242188 216.119140625 205.03125 211.126953125 c 0
 206.47265625 207.888671875 241.03125 132 312 132 c 0
 382.9921875 132 417.52734375 207.888671875 418.96875 211.126953125 c 0
 421.176757812 216.095703125 419.735351562 221.904296875 415.48828125 225.311523438 c 0
655.48828125 225.311523438 m 0
 651.264648438 228.743164062 645.264648438 228.865234375 640.846679688 225.646484375 c 0
 640.560546875 225.431640625 610.583984375 204 552 204 c 0
 493.439453125 204 463.439453125 225.431640625 463.200195312 225.599609375 c 0
 458.807617188 228.888671875 452.784179688 228.791992188 448.53515625 225.384765625 c 0
 444.264648438 221.9765625 442.823242188 216.119140625 445.03125 211.126953125 c 0
 446.47265625 207.888671875 481.03125 132 552 132 c 0
 622.9921875 132 657.52734375 207.888671875 658.96875 211.126953125 c 0
 661.176757812 216.095703125 659.735351562 221.904296875 655.48828125 225.311523438 c 0
528 -24 m 2
 336 -24 l 2
 322.752929688 -24 312 -13.2724609375 312 0 c 0
 312 13.2724609375 322.752929688 24 336 24 c 2
 528 24 l 2
 541.272460938 24 552 13.2724609375 552 0 c 0
 552 -13.2724609375 541.272460938 -24 528 -24 c 2
144 312 m 0
 130.752929688 312 120 322.752929688 120 336 c 0
 120 349.223632812 130.680664062 359.953125 143.904296875 360 c 0
 147.646484375 360.046875 229.560546875 362.064453125 292.823242188 446.400390625 c 0
 300.768554688 456.9609375 315.791992188 459.168945312 326.423828125 451.200195312 c 0
 337.03125 443.256835938 339.168945312 428.208007812 331.223632812 417.599609375 c 0
 252.912109375 313.200195312 148.416015625 312 144 312 c 0
720 312 m 0
 715.583984375 312 611.111328125 313.200195312 532.799804688 417.599609375 c 0
 524.831054688 428.208007812 526.9921875 443.256835938 537.599609375 451.200195312 c 0
 548.184570312 459.192382812 563.208007812 457.0078125 571.176757812 446.400390625 c 0
 634.560546875 361.896484375 716.638671875 360.0234375 720.119140625 360 c 0
 733.319335938 359.857421875 743.9765625 349.056640625 743.904296875 335.880859375 c 0
 743.857421875 322.657226562 733.200195312 312 720 312 c 0
EndSplineSet
Fore
Refer: 16 -1 N 1 0 0 1 336 0 0
Refer: 14 -1 N 1 0 0 1 552 132 0
Refer: 14 -1 N 1 0 0 1 312 132 0
Refer: 12 -1 N 1 0 0 -1 720 336 0
Refer: 12 -1 N -1 0 0 -1 144 336 0
Colour: 996633
EndChar

StartChar: teeth.grinning
Encoding: 47 -1 47
Width: 0
GlyphClass: 5
Flags: W
LayerCount: 2
Back
SplineSet
-216 216 m 5
 -216 216 -144 192 0 192 c 4
 144 192 216 216 216 216 c 5
 216 216 168 120 0 120 c 4
 -168 120 -216 216 -216 216 c 5
EndSplineSet
Fore
SplineSet
-216 216 m 1,0,1
 -180 205 -180 205 -123 198.5 c 128,-1,2
 -66 192 -66 192 0 192 c 131,-1,3
 66 192 66 192 123 198.5 c 128,-1,4
 180 205 180 205 216 216 c 1,5,6
 192 174 192 174 135 147 c 128,-1,7
 78 120 78 120 0 120 c 131,-1,8
 -78 120 -78 120 -135 147 c 128,-1,9
 -192 174 -192 174 -216 216 c 1,0,1
EndSplineSet
Colour: ff00ff
EndChar

StartChar: waterdrop
Encoding: 48 -1 48
Width: 0
GlyphClass: 5
Flags: W
LayerCount: 2
Back
SplineSet
120 -240 m 0
 120 -306.229492188 66.2294921875 -360 0 -360 c 0
 -66.2294921875 -360 -120 -306.229492188 -120 -240 c 0
 -120 -173.711914062 -24 0 0 0 c 0
 24 0 120 -173.711914062 120 -240 c 0
EndSplineSet
Fore
SplineSet
-120 -240 m 131,-1,1
 -120 -192 -120 -192 -69 -96 c 128,-1,2
 -18 0 -18 0 0 0 c 131,-1,3
 18 0 18 0 69 -96 c 128,-1,4
 120 -192 120 -192 120 -240 c 131,-1,5
 120 -288 120 -288 85 -324 c 128,-1,6
 50 -360 50 -360 0 -360 c 131,-1,7
 -50 -360 -50 -360 -85 -324 c 128,-1,0
 -120 -288 -120 -288 -120 -240 c 131,-1,1
EndSplineSet
Colour: ff00ff
EndChar

StartChar: eye.tall
Encoding: 49 -1 49
Width: 0
GlyphClass: 5
Flags: W
LayerCount: 2
Back
SplineSet
60 132 m 4
 60 72.361328125 33.142578125 0 0 0 c 4
 -33.142578125 0 -60 72.361328125 -60 132 c 4
 -60 191.638671875 -33.142578125 264 0 264 c 4
 33.142578125 264 60 191.638671875 60 132 c 4
EndSplineSet
Fore
SplineSet
-60 132 m 131,-1,1
 -60 180 -60 180 -41.5 222 c 128,-1,2
 -23 264 -23 264 0 264 c 131,-1,3
 23 264 23 264 41.5 222 c 128,-1,4
 60 180 60 180 60 132 c 131,-1,5
 60 84 60 84 41.5 42 c 128,-1,6
 23 0 23 0 0 0 c 131,-1,7
 -23 0 -23 0 -41.5 42 c 128,-1,0
 -60 84 -60 84 -60 132 c 131,-1,1
EndSplineSet
Colour: ff00ff
EndChar

StartChar: BeamingFaceWithSmilingEyes.1
Encoding: 50 -1 50
Width: 864
GlyphClass: 5
Flags: W
LayerCount: 2
Back
SplineSet
864 216 m 0
 864 -22.583984375 670.583984375 -216 432 -216 c 0
 193.439453125 -216 0 -22.583984375 0 216 c 0
 0 454.560546875 193.439453125 648 432 648 c 0
 670.583984375 648 864 454.560546875 864 216 c 1024
384 216 m 0
 373.943359375 216 364.583984375 222.361328125 361.223632812 232.416015625 c 0
 356.353515625 246.791992188 336.815429688 288 312 288 c 0
 286.51171875 288 266.688476562 244.153320312 262.776367188 232.416015625 c 0
 258.576171875 219.865234375 245.064453125 213.0234375 232.416015625 217.247070312 c 0
 219.838867188 221.423828125 213.046875 235.03125 217.247070312 247.607421875 c 0
 220.247070312 256.630859375 248.54296875 336 312 336 c 0
 375.45703125 336 403.752929688 256.630859375 406.776367188 247.583984375 c 0
 410.9765625 235.0078125 404.184570312 221.400390625 391.607421875 217.223632812 c 0
 389.064453125 216.408203125 386.49609375 216 384 216 c 0
624 216 m 0
 613.943359375 216 604.583984375 222.361328125 601.247070312 232.416015625 c 0
 596.376953125 246.791992188 576.791992188 288 552 288 c 0
 526.51171875 288 506.665039062 244.153320312 502.752929688 232.416015625 c 0
 498.552734375 219.865234375 485.087890625 213.0234375 472.392578125 217.247070312 c 0
 459.838867188 221.423828125 453.0234375 235.03125 457.223632812 247.607421875 c 0
 460.247070312 256.630859375 488.51953125 336 552 336 c 0
 615.48046875 336 643.752929688 256.630859375 646.752929688 247.583984375 c 0
 650.953125 235.0078125 644.161132812 221.400390625 631.583984375 217.223632812 c 0
 629.064453125 216.408203125 626.49609375 216 624 216 c 0
432 120 m 0
 345.046875 120 287.353515625 130.126953125 216 144 c 0
 199.704101562 147.142578125 168 144 168 96 c 0
 168 0 278.280273438 -120 432 -120 c 0
 585.696289062 -120 696 0 696 96 c 0
 696 144 664.295898438 147.168945312 648 144 c 0
 576.646484375 130.126953125 518.953125 120 432 120 c 0
216 96 m 1
 216 96 288 72 432 72 c 0
 576 72 648 96 648 96 c 1
 648 96 615.743164062 -66 432 -66 c 0
 248.256835938 -66 216 96 216 96 c 1
432 -14.2568359375 m 0
 345.696289062 -14.2568359375 281.47265625 -5.3271484375 241.51171875 3.623046875 c 2
 221.711914062 48.52734375 l 1
 241.46484375 41.0390625 315.046875 27 432.0234375 27 c 0
 550.919921875 27 624.912109375 41.7841796875 644.760742188 49.51171875 c 1
 627.935546875 5.3037109375 l 2
 588.719726562 -3.8154296875 521.880859375 -14.2568359375 432 -14.2568359375 c 0
EndSplineSet
Fore
Refer: 9 -1 N 1 0 0 1 552 312 0
Refer: 9 -1 N 1 0 0 1 312 312 0
Refer: 36 -1 N 1 0 0 1 432 -120 0
Colour: 996633
EndChar

StartChar: GrinningSquintingFace.1
Encoding: 51 -1 51
Width: 864
GlyphClass: 5
Flags: W
LayerCount: 2
Back
SplineSet
864 216 m 0
 864 -22.583984375 670.583984375 -216 432 -216 c 0
 193.439453125 -216 0 -22.583984375 0 216 c 0
 0 454.560546875 193.439453125 648 432 648 c 0
 670.583984375 648 864 454.560546875 864 216 c 1024
432 120 m 0
 345.046875 120 287.353515625 130.126953125 216 144 c 0
 199.704101562 147.142578125 168 144 168 96 c 0
 168 0 278.280273438 -120 432 -120 c 0
 585.696289062 -120 696 0 696 96 c 0
 696 144 664.295898438 147.168945312 648 144 c 0
 576.646484375 130.126953125 518.953125 120 432 120 c 0
216 96 m 1
 216 96 288 72 432 72 c 0
 576 72 648 96 648 96 c 1
 648 96 600 0 432 0 c 0
 264 0 216 96 216 96 c 1
144.0234375 168 m 0
 136.727539062 168 129.52734375 171.311523438 124.799804688 177.599609375 c 0
 116.831054688 188.184570312 118.9921875 203.231445312 129.599609375 211.176757812 c 0
 133.03125 213.743164062 200.423828125 263.568359375 294.142578125 281.568359375 c 1
 234.743164062 311.353515625 168.815429688 312 167.9765625 312 c 0
 154.727539062 312.046875 144 322.799804688 144.0234375 336.046875 c 0
 144.0234375 349.272460938 154.752929688 360 168 360 c 0
 173.303710938 360 298.846679688 359.087890625 376.96875 280.96875 c 0
 383.831054688 274.103515625 385.896484375 263.784179688 382.176757812 254.807617188 c 0
 378.45703125 245.831054688 369.696289062 240 360 240 c 0
 249.288085938 240 159.288085938 173.47265625 158.400390625 172.799804688 c 0
 154.080078125 169.560546875 149.015625 168 144.0234375 168 c 0
719.9765625 168.0234375 m 0
 714.984375 168.0234375 709.943359375 169.560546875 705.623046875 172.776367188 c 0
 704.711914062 173.47265625 614.161132812 240 504 240 c 0
 494.303710938 240 485.51953125 245.831054688 481.823242188 254.807617188 c 0
 478.103515625 263.784179688 480.168945312 274.103515625 487.03125 280.96875 c 0
 565.176757812 359.087890625 690.696289062 360 696 360 c 0
 709.247070312 360 719.953125 349.272460938 719.9765625 336.046875 c 0
 720 322.799804688 709.272460938 312.046875 696.046875 312 c 0
 695.184570312 312 629.256835938 311.353515625 569.857421875 281.568359375 c 1
 663.576171875 263.568359375 730.96875 213.768554688 734.376953125 211.176757812 c 0
 744.9609375 203.231445312 747.119140625 188.231445312 739.200195312 177.623046875 c 0
 734.49609375 171.361328125 727.295898438 168.0234375 719.9765625 168.0234375 c 0
EndSplineSet
Fore
Refer: 35 -1 S -1 0 0 1 696 336 0
Refer: 35 -1 S 1 0 0 1 168 336 0
Refer: 36 -1 N 1 0 0 1 432 -120 0
Colour: 996633
EndChar

StartChar: GrinningFaceWithSweat.3
Encoding: 52 -1 52
Width: 864
GlyphClass: 5
Flags: W
LayerCount: 2
Back
SplineSet
864 216 m 0
 864 -22.583984375 670.583984375 -216 432 -216 c 0
 193.439453125 -216 0 -22.583984375 0 216 c 0
 0 454.560546875 193.439453125 648 432 648 c 0
 670.583984375 648 864 454.560546875 864 216 c 1024
682.96875 220.873046875 m 0
 681.52734375 224.111328125 646.9921875 300 576 300 c 0
 505.03125 300 470.47265625 224.111328125 469.03125 220.873046875 c 0
 466.823242188 215.904296875 468.264648438 210.095703125 472.51171875 206.688476562 c 0
 476.711914062 203.280273438 482.735351562 203.161132812 487.153320312 206.353515625 c 0
 487.439453125 206.568359375 517.439453125 228 576 228 c 0
 634.223632812 228 664.176757812 206.857421875 664.846679688 206.376953125 c 0
 666.9609375 204.791992188 669.50390625 204 672 204 c 0
 674.638671875 204 677.303710938 204.888671875 679.48828125 206.615234375 c 0
 683.735351562 210.0234375 685.200195312 215.880859375 682.96875 220.873046875 c 0
394.96875 220.873046875 m 0
 393.52734375 224.111328125 358.9921875 300 288 300 c 0
 217.03125 300 182.47265625 224.111328125 181.03125 220.873046875 c 0
 178.823242188 215.904296875 180.264648438 210.095703125 184.48828125 206.688476562 c 0
 188.711914062 203.280273438 194.735351562 203.161132812 199.126953125 206.353515625 c 0
 199.439453125 206.568359375 229.416015625 228 288 228 c 0
 346.223632812 228 376.176757812 206.857421875 376.846679688 206.376953125 c 0
 378.9609375 204.791992188 381.50390625 204 384 204 c 0
 386.638671875 204 389.303710938 204.888671875 391.48828125 206.615234375 c 0
 395.760742188 210.0234375 397.176757812 215.880859375 394.96875 220.873046875 c 0
432 120 m 0
 345.046875 120 287.353515625 130.126953125 216 144 c 0
 199.704101562 147.142578125 168 144 168 96 c 0
 168 0 278.280273438 -120 432 -120 c 0
 585.696289062 -120 696 0 696 96 c 0
 696 144 664.295898438 147.168945312 648 144 c 0
 576.646484375 130.126953125 518.953125 120 432 120 c 0
216 96 m 1
 216 96 288 72 432 72 c 0
 576 72 648 96 648 96 c 1
 648 96 600 0 432 0 c 0
 264 0 216 96 216 96 c 1
840 384 m 0
 840 317.711914062 786.288085938 264 720 264 c 0
 653.711914062 264 600 317.711914062 600 384 c 0
 600 450.288085938 696 624 720 624 c 0
 744 624 840 450.288085938 840 384 c 0
EndSplineSet
Fore
Refer: 48 -1 S 1 0 0 1 720 624 0
Colour: 54abed
EndChar

StartChar: RollingOnTheFloorLaughing.1
Encoding: 53 -1 53
Width: 864
GlyphClass: 5
Flags: W
LayerCount: 2
Back
SplineSet
737.47265625 521.47265625 m 0
 906.168945312 352.776367188 906.168945312 79.2236328125 737.47265625 -89.47265625 c 0
 568.776367188 -258.168945312 295.247070312 -258.168945312 126.52734375 -89.47265625 c 0
 -42.1689453125 79.2236328125 -42.1689453125 352.776367188 126.52734375 521.47265625 c 0
 295.223632812 690.168945312 568.752929688 690.168945312 737.47265625 521.47265625 c 1024
462.696289062 185.280273438 m 0
 378.838867188 101.423828125 313.439453125 55.583984375 231.215820312 0.142578125 c 0
 212.47265625 -12.552734375 184.943359375 -46.1533203125 231.239257812 -92.47265625 c 0
 323.807617188 -185.0390625 545.904296875 -194.400390625 694.126953125 -46.1767578125 c 0
 842.376953125 102.072265625 833.0390625 324.142578125 740.423828125 416.735351562 c 0
 694.126953125 463.056640625 660.50390625 435.50390625 647.831054688 416.735351562 c 0
 592.439453125 334.583984375 546.576171875 269.161132812 462.696289062 185.280273438 c 0
277.53515625 -46.1533203125 m 2
 277.53515625 -46.1533203125 370.126953125 0.142578125 508.9921875 139.03125 c 0
 647.880859375 277.896484375 694.153320312 370.46484375 694.153320312 370.46484375 c 1
 694.153320312 370.46484375 740.423828125 231.576171875 578.423828125 69.576171875 c 0
 416.423828125 -92.447265625 277.53515625 -46.1533203125 277.53515625 -46.1533203125 c 2
198.361328125 42.384765625 m 0
 193.200195312 37.2236328125 185.760742188 34.46484375 177.984375 35.591796875 c 0
 164.857421875 37.46484375 155.735351562 49.607421875 157.630859375 62.7353515625 c 0
 158.231445312 66.9609375 170.665039062 149.857421875 224.208007812 228.865234375 c 1
 161.161132812 207.912109375 114.072265625 161.760742188 113.47265625 161.161132812 c 0
 104.087890625 151.823242188 88.896484375 151.846679688 79.53515625 161.231445312 c 0
 70.1767578125 170.591796875 70.1767578125 185.760742188 79.53515625 195.119140625 c 0
 83.2802734375 198.865234375 172.704101562 286.9921875 283.176757812 286.9921875 c 0
 292.896484375 286.9921875 301.630859375 281.161132812 305.353515625 272.184570312 c 0
 309.072265625 263.208007812 307.0078125 252.888671875 300.142578125 246.0234375 c 0
 221.857421875 167.735351562 205.272460938 57.046875 205.103515625 55.96875 c 0
 204.361328125 50.591796875 201.888671875 45.912109375 198.361328125 42.384765625 c 0
605.591796875 449.665039062 m 0
 602.064453125 446.134765625 597.408203125 443.665039062 592.080078125 442.896484375 c 0
 590.953125 442.727539062 479.857421875 425.735351562 401.9765625 347.857421875 c 0
 395.111328125 340.9921875 384.791992188 338.927734375 375.815429688 342.646484375 c 0
 366.838867188 346.369140625 361.0078125 355.103515625 361.0078125 364.823242188 c 0
 361.0078125 475.319335938 449.134765625 564.719726562 452.880859375 568.46484375 c 0
 462.239257812 577.823242188 477.408203125 577.823242188 486.768554688 568.46484375 c 0
 496.153320312 559.126953125 496.176757812 543.912109375 486.838867188 534.552734375 c 0
 486.215820312 533.927734375 440.064453125 486.865234375 419.111328125 423.815429688 c 1
 498.119140625 477.361328125 580.9921875 489.791992188 585.215820312 490.392578125 c 0
 598.319335938 492.264648438 610.46484375 483.192382812 612.361328125 470.064453125 c 0
 613.53515625 462.288085938 610.776367188 454.823242188 605.591796875 449.665039062 c 0
722.423828125 358.680664062 m 0
 788.208007812 350.665039062 848.0390625 397.51171875 856.03125 463.319335938 c 0
 864.046875 529.103515625 817.223632812 588.935546875 751.416015625 596.953125 c 0
 685.630859375 604.943359375 501.599609375 530.638671875 498.696289062 506.807617188 c 0
 495.791992188 483 656.638671875 366.719726562 722.423828125 358.680664062 c 0
291.768554688 -71.9765625 m 0
 299.784179688 -137.760742188 252.935546875 -197.591796875 187.126953125 -205.583984375 c 0
 121.342773438 -213.599609375 61.51171875 -166.776367188 53.49609375 -100.96875 c 0
 45.48046875 -35.1611328125 119.807617188 148.873046875 143.638671875 151.776367188 c 0
 167.447265625 154.657226562 283.727539062 -6.1923828125 291.768554688 -71.9765625 c 0
EndSplineSet
Fore
Refer: 35 -1 N -0.707108 -0.707108 -0.707108 0.707108 470 551.5 0
Refer: 35 -1 N 0.707108 0.707108 -0.707108 0.707108 96.5 178 0
Refer: 36 -1 N 0.964492 0.964492 -0.964492 0.964492 694 -46 0
Colour: 996633
EndChar

StartChar: eyebrow.8
Encoding: 54 -1 54
Width: 0
GlyphClass: 5
Flags: W
LayerCount: 2
Back
SplineSet
-4.7255859375 23.5341796875 m 2
 -4.7255859375 23.5341796875 l 0
 -4.7255859375 23.53515625 -4.7236328125 23.541015625 -4.6923828125 23.541015625 c 0
 -4.69140625 23.541015625 -4.6904296875 23.541015625 -4.689453125 23.541015625 c 0
 -3.1982421875 23.84765625 -1.6181640625 24.0078125 -0.0009765625 24.0078125 c 0
 13.2470703125 24.0078125 24.0029296875 13.251953125 24.0029296875 0.00390625 c 0
 24.0029296875 -11.626953125 15.7138671875 -21.3369140625 4.7255859375 -23.5341796875 c 1
 4.7255859375 -23.5341796875 4.8134765625 -23.515625 4.814453125 -23.515625 c 1
 4.814453125 -23.515625 4.80859375 -23.517578125 4.7958984375 -23.51953125 c 0
 4.6484375 -23.55078125 1.8525390625 -24.140625 -2.8984375 -25.525390625 c 0
 -7.173828125 -26.771484375 -13.033203125 -28.6611328125 -19.9697265625 -31.35546875 c 0
 -26.90625 -34.05078125 -34.9189453125 -37.5517578125 -43.5107421875 -42.0078125 c 0
 -50.3837890625 -45.57421875 -57.626953125 -49.7509765625 -64.9931640625 -54.61328125 c 0
 -78.2568359375 -63.3662109375 -91.9013671875 -74.3271484375 -104.620117188 -87.953125 c 0
 -111.6875 -95.525390625 -118.47265625 -103.922851562 -124.771484375 -113.254882812 c 0
 -132.645507812 -124.918945312 -139.764648438 -138.044921875 -145.70703125 -152.899414062 c 2
 -145.71875 -152.930664062 l 2
 -149.2578125 -161.77734375 -157.912109375 -168.033203125 -168.015625 -168.033203125 c 0
 -181.264648438 -168.033203125 -192.01953125 -157.27734375 -192.01953125 -144.029296875 c 0
 -192.01953125 -140.884765625 -191.4140625 -137.881835938 -190.29296875 -135.100585938 c 0
 -183.06640625 -117.033203125 -174.306640625 -100.850585938 -164.583984375 -86.4462890625 c 0
 -156.805664062 -74.923828125 -148.4140625 -64.541015625 -139.711914062 -55.2177734375 c 0
 -124.044921875 -38.431640625 -107.385742188 -25.0830078125 -91.384765625 -14.5224609375 c 0
 -82.4931640625 -8.654296875 -73.7998046875 -3.6435546875 -65.5654296875 0.62890625 c 0
 -55.2724609375 5.96875 -45.6953125 10.1533203125 -37.328125 13.404296875 c 0
 -28.9599609375 16.6552734375 -21.7998046875 18.97265625 -16.333984375 20.5654296875 c 0
 -9.5029296875 22.556640625 -5.31640625 23.416015625 -4.7255859375 23.5341796875 c 2
0 0 m 0
 0 0 -120 -24 -168 -144 c 1024
EndSplineSet
Fore
SplineSet
-192 -144 m 1,0,1
 -192 -140 -192 -140 -191 -137 c 257,2,3
 -166 -74 -166 -74 -116 -33 c 129,-1,4
 -66 8 -66 8 -7 23 c 1,5,6
 -3 24 -3 24 0 24 c 1,7,8
 10 24 10 24 17 17 c 129,-1,9
 24 10 24 10 24 0 c 257,10,11
 24 -9 24 -9 17 -17 c 1,12,13
 12 -22 12 -22 3 -24 c 1,14,15
 -41 -35 -41 -35 -82 -67 c 129,-1,16
 -123 -99 -123 -99 -145 -151 c 257,17,18
 -147 -157 -147 -157 -151 -161 c 257,19,20
 -158 -168 -158 -168 -168 -168 c 129,-1,21
 -178 -168 -178 -168 -185 -161 c 129,-1,22
 -192 -154 -192 -154 -192 -144 c 1,0,1
EndSplineSet
Colour: ff00ff
EndChar

StartChar: BeamingFaceWithSmilingEyes.2
Encoding: 55 -1 55
Width: 864
Flags: W
LayerCount: 2
Back
SplineSet
216 96 m 1
 216 96 288 72 432 72 c 1
 576 72 648 96 648 96 c 1
 648 96 615.743164062 -66 432 -66 c 1
 248.256835938 -66 216 96 216 96 c 1
432 -14.251953125 m 5
 345.696289062 -14.251953125 281.47265625 -5.322265625 241.51171875 3.6279296875 c 13
 221.688476562 48.5322265625 l 5
 241.46484375 41.0693359375 315.0234375 27.0048828125 432 27.0048828125 c 5
 550.896484375 27.0048828125 624.888671875 41.7890625 644.735351562 49.4931640625 c 5
 627.912109375 5.28515625 l 21
 588.719726562 -3.810546875 521.880859375 -14.251953125 432 -14.251953125 c 5
EndSplineSet
Fore
SplineSet
216 96 m 1,0,1
 302 72 302 72 432 72 c 129,-1,2
 562 72 562 72 648 96 c 1,3,4
 639 57 639 57 611 18 c 129,-1,5
 583 -21 583 -21 537.5 -43.5 c 129,-1,6
 492 -66 492 -66 432 -66 c 129,-1,7
 372 -66 372 -66 326.5 -43.5 c 129,-1,8
 281 -21 281 -21 253 18 c 129,-1,9
 225 57 225 57 216 96 c 1,0,1
EndSplineSet
EndChar

StartChar: BeamingFaceWithSmilingEyes.3
Encoding: 56 -1 56
Width: 864
Flags: W
LayerCount: 2
Back
SplineSet
432 -14.251953125 m 5
 345.696289062 -14.251953125 281.47265625 -5.322265625 241.51171875 3.6279296875 c 13
 221.688476562 48.5322265625 l 5
 241.46484375 41.0693359375 315.0234375 27.0048828125 432 27.0048828125 c 5
 550.896484375 27.0048828125 624.888671875 41.7890625 644.735351562 49.4931640625 c 5
 627.912109375 5.28515625 l 21
 588.719726562 -3.810546875 521.880859375 -14.251953125 432 -14.251953125 c 5
EndSplineSet
Fore
SplineSet
220 48 m 1,0,1
 303 27 303 27 432 27 c 257,2,3
 560 27 560 27 644 48 c 1,4,5
 644 48 644 48 627 5 c 1,6,7
 544 -14 544 -14 432 -14 c 257,8,9
 320 -14 320 -14 240 4 c 1,10,11
 220 48 220 48 220 48 c 1,0,1
EndSplineSet
Colour: 996633
EndChar

StartChar: SlightlySmilingFace.1
Encoding: 57 -1 57
Width: 864
Flags: W
LayerCount: 2
Back
SplineSet
0 216 m 0
 0 -22.5869140625 193.413085938 -216 432 -216 c 0
 670.586914062 -216 864 -22.5869140625 864 216 c 0
 864 454.586914062 670.586914062 648 432 648 c 0
 193.413085938 648 0 454.586914062 0 216 c 0
252.361328125 81.095703125 m 0
 253.439453125 76.7998046875 280.392578125 -24 432 -24 c 0
 583.630859375 -24 610.560546875 76.7998046875 611.638671875 81.095703125 c 0
 612.9609375 86.3037109375 610.607421875 91.7041015625 605.953125 94.392578125 c 0
 601.272460938 97.056640625 595.416015625 96.2646484375 591.552734375 92.54296875 c 0
 591.095703125 92.087890625 544.657226562 48 432 48 c 0
 319.342773438 48 272.880859375 92.087890625 272.447265625 92.51953125 c 0
 270.142578125 94.7998046875 267.072265625 96 264 96 c 0
 261.984375 96 259.943359375 95.49609375 258.095703125 94.46484375 c 0
 253.392578125 91.7763671875 251.0390625 86.3271484375 252.361328125 81.095703125 c 0
228 324 m 0
 228 277.607421875 254.864257812 240 288 240 c 0
 321.135742188 240 348 277.607421875 348 324 c 0
 348 370.392578125 321.135742188 408 288 408 c 0
 254.864257812 408 228 370.392578125 228 324 c 0
516 324 m 0
 516 277.607421875 542.864257812 240 576 240 c 0
 609.135742188 240 636 277.607421875 636 324 c 0
 636 370.392578125 609.135742188 408 576 408 c 0
 542.864257812 408 516 370.392578125 516 324 c 0
EndSplineSet
Fore
Refer: 66 -1 N 1 0 0 1 432 -24 0
Refer: 4 -1 N 0.15625 0 0 0.21875 576 324 0
Refer: 4 -1 N 0.15625 0 0 0.21875 288 324 0
Colour: 996633
EndChar

StartChar: StarStruck.3
Encoding: 58 -1 58
Width: 864
Flags: W
LayerCount: 2
Back
SplineSet
864 216 m 0
 864 -22.583984375 670.583984375 -216 432 -216 c 0
 193.416015625 -216 0 -22.583984375 0 216 c 0
 0 454.583984375 193.416015625 648 432 648 c 0
 670.583984375 648 864 454.583984375 864 216 c 1024
432 144 m 0
 345.046875 144 287.353515625 154.126953125 216 168 c 0
 199.704101562 171.142578125 168 168 168 120 c 0
 168 24 278.280273438 -96 432 -96 c 0
 585.696289062 -96 696 24 696 120 c 0
 696 168 664.295898438 171.168945312 648 168 c 0
 576.646484375 154.126953125 518.953125 144 432 144 c 0
216 120 m 1
 216 120 288 96 432 96 c 0
 576 96 648 120 648 120 c 1
 648 120 600 24 432 24 c 0
 264 24 216 120 216 120 c 1
376.369140625 542.087890625 m 2
 267.361328125 522.865234375 l 1
 211.200195312 624.935546875 l 2
 205.0078125 636.192382812 192.288085938 642.215820312 179.711914062 640.0078125 c 0
 167.064453125 637.776367188 157.223632812 627.743164062 155.256835938 615.072265625 c 2
 137.376953125 499.943359375 l 1
 28.369140625 480.719726562 l 2
 15.52734375 478.46484375 5.615234375 468.119140625 3.865234375 455.184570312 c 0
 2.111328125 442.247070312 8.927734375 429.672851562 20.7353515625 424.056640625 c 2
 118.416015625 377.688476562 l 1
 100.46484375 262.200195312 l 2
 98.47265625 249.334960938 105 236.665039062 116.615234375 230.784179688 c 0
 120.912109375 228.623046875 125.51953125 227.591796875 130.103515625 227.591796875 c 0
 137.953125 227.591796875 145.704101562 230.665039062 151.48828125 236.51953125 c 2
 235.776367188 321.984375 l 1
 344.208007812 270.50390625 l 2
 355.96875 264.935546875 369.984375 267.552734375 378.912109375 277.03125 c 0
 387.838867188 286.51171875 389.615234375 300.646484375 383.353515625 312.046875 c 2
 327 414.48046875 l 1
 402.9609375 491.47265625 l 2
 412.126953125 500.760742188 414.215820312 514.919921875 408.168945312 526.48828125 c 0
 402.072265625 538.056640625 389.134765625 544.319335938 376.369140625 542.087890625 c 2
487.630859375 542.087890625 m 2
 596.638671875 522.865234375 l 1
 652.799804688 624.935546875 l 2
 658.9921875 636.192382812 671.711914062 642.215820312 684.288085938 640.0078125 c 0
 696.912109375 637.776367188 706.752929688 627.743164062 708.719726562 615.072265625 c 2
 726.599609375 499.943359375 l 1
 835.607421875 480.719726562 l 2
 848.47265625 478.46484375 858.384765625 468.142578125 860.111328125 455.208007812 c 0
 861.838867188 442.272460938 855.046875 429.696289062 843.239257812 424.080078125 c 2
 745.560546875 377.711914062 l 1
 763.51171875 262.223632812 l 2
 765.50390625 249.361328125 758.9765625 236.688476562 747.361328125 230.807617188 c 0
 743.064453125 228.646484375 738.45703125 227.615234375 733.873046875 227.615234375 c 0
 726.0234375 227.615234375 718.272460938 230.688476562 712.48828125 236.54296875 c 2
 628.200195312 322.0078125 l 1
 519.768554688 270.52734375 l 2
 508.0078125 264.9609375 493.9921875 267.576171875 485.064453125 277.056640625 c 0
 476.134765625 286.53515625 474.361328125 300.672851562 480.623046875 312.072265625 c 2
 536.9765625 414.48046875 l 1
 461.015625 491.47265625 l 2
 451.846679688 500.760742188 449.760742188 514.919921875 455.807617188 526.48828125 c 0
 461.927734375 538.056640625 474.865234375 544.319335938 487.630859375 542.087890625 c 2
EndSplineSet
Fore
Refer: 88 -1 N 0.820673 -0.144707 0.144707 0.820673 679.092 610.459 0
Refer: 88 -1 N 0.820672 0.144707 -0.144707 0.820672 184.908 610.459 0
EndChar

StartChar: UpsideDownFace.1
Encoding: 59 -1 59
Width: 864
Flags: W
LayerCount: 2
Back
SplineSet
0 216 m 0
 0 454.583984375 193.416015625 648 432 648 c 0
 670.583984375 648 864 454.583984375 864 216 c 0
 864 -22.583984375 670.583984375 -216 432 -216 c 0
 193.416015625 -216 0 -22.583984375 0 216 c 1024
207.9609375 339.095703125 m 0
 212.231445312 335.231445312 218.615234375 334.9921875 223.200195312 338.400390625 c 0
 224.134765625 339.095703125 317.327148438 408 432 408 c 0
 546.384765625 408 639.888671875 339.095703125 640.799804688 338.400390625 c 0
 645.384765625 334.9921875 651.768554688 335.280273438 656.0390625 339.095703125 c 0
 660.288085938 342.935546875 661.247070312 349.272460938 658.295898438 354.168945312 c 0
 655.200195312 359.303710938 581.087890625 480 432 480 c 0
 282.912109375 480 208.776367188 359.327148438 205.704101562 354.168945312 c 0
 202.752929688 349.247070312 203.688476562 342.935546875 207.9609375 339.095703125 c 0
216 132 m 0
 216 85.607421875 242.864257812 48 276 48 c 0
 309.135742188 48 336 85.607421875 336 132 c 0
 336 178.392578125 309.135742188 216 276 216 c 0
 242.864257812 216 216 178.392578125 216 132 c 0
528 132 m 0
 528 85.607421875 554.864257812 48 588 48 c 0
 621.135742188 48 648 85.607421875 648 132 c 0
 648 178.392578125 621.135742188 216 588 216 c 0
 554.864257812 216 528 178.392578125 528 132 c 0
EndSplineSet
Fore
Refer: 93 -1 S 1 0 0 1 0 -120 2
Refer: 11 -1 N -1 0 0 -1 432 480 0
Colour: 996633
EndChar

StartChar: FaceBlowingKiss.1
Encoding: 60 -1 60
Width: 864
Flags: W
LayerCount: 2
Back
SplineSet
0 216 m 0
 0 -22.5869140625 193.413085938 -216 432 -216 c 0
 670.586914062 -216 864 -22.5869140625 864 216 c 0
 864 454.586914062 670.586914062 648 432 648 c 0
 193.413085938 648 0 454.586914062 0 216 c 0
216 276 m 0
 216 229.607421875 242.864257812 192 276 192 c 0
 309.135742188 192 336 229.607421875 336 276 c 0
 336 322.392578125 309.135742188 360 276 360 c 0
 242.864257812 360 216 322.392578125 216 276 c 0
682.96875 220.873046875 m 0
 681.52734375 224.111328125 646.9921875 300 576 300 c 0
 505.03125 300 470.47265625 224.111328125 469.03125 220.873046875 c 0
 466.823242188 215.904296875 468.264648438 210.095703125 472.51171875 206.688476562 c 0
 476.711914062 203.280273438 482.735351562 203.161132812 487.153320312 206.353515625 c 0
 487.439453125 206.568359375 517.439453125 228 576 228 c 0
 634.223632812 228 664.176757812 206.857421875 664.846679688 206.376953125 c 0
 666.9609375 204.791992188 669.50390625 204 672 204 c 0
 674.638671875 204 677.303710938 204.888671875 679.48828125 206.615234375 c 0
 683.735351562 210.0234375 685.200195312 215.880859375 682.96875 220.873046875 c 0
143.9765625 384 m 0
 138.984375 384 133.919921875 385.560546875 129.599609375 388.799804688 c 0
 118.9921875 396.743164062 116.857421875 411.791992188 124.799804688 422.400390625 c 0
 203.087890625 526.799804688 307.583984375 528 312 528 c 0
 325.247070312 528 336 517.247070312 336 504 c 0
 336 490.776367188 325.319335938 480.046875 312.095703125 480 c 0
 308.376953125 479.953125 226.46484375 477.935546875 163.200195312 393.599609375 c 0
 158.49609375 387.311523438 151.272460938 384 143.9765625 384 c 0
696.0234375 312 m 0
 688.704101562 312 681.52734375 315.311523438 676.799804688 321.599609375 c 0
 614.591796875 404.54296875 509.735351562 384.672851562 508.704101562 384.48046875 c 0
 495.576171875 381.838867188 483.072265625 390.334960938 480.45703125 403.295898438 c 0
 477.865234375 416.280273438 486.288085938 428.927734375 499.272460938 431.54296875 c 0
 504.815429688 432.672851562 635.0390625 457.272460938 715.176757812 350.423828125 c 0
 723.142578125 339.815429688 720.984375 324.768554688 710.376953125 316.823242188 c 0
 706.080078125 313.560546875 701.0390625 312 696.0234375 312 c 0
481.896484375 -1.0078125 m 1
 513.935546875 8.880859375 544.9921875 26.7353515625 544.9921875 58.9921875 c 0
 544.9921875 121.846679688 427.103515625 130.223632812 413.665039062 130.96875 c 0
 407.087890625 131.591796875 401.447265625 126.334960938 401.015625 119.735351562 c 0
 400.607421875 113.161132812 405.576171875 107.47265625 412.153320312 107.015625 c 0
 412.9921875 106.96875 496.9921875 99.8388671875 496.9921875 58.9921875 c 0
 496.9921875 18.142578125 412.9921875 11.015625 412.153320312 10.96875 c 0
 411.815429688 10.943359375 411.576171875 10.7529296875 411.264648438 10.7041015625 c 0
 410.015625 10.560546875 408.838867188 10.2724609375 407.760742188 9.7431640625 c 2
 407.303710938 9.48046875 l 2
 406.176757812 8.857421875 405.192382812 8.111328125 404.303710938 7.126953125 c 0
 403.96875 6.7685546875 403.727539062 6.384765625 403.439453125 5.9765625 c 0
 402.888671875 5.2080078125 402.384765625 4.46484375 402.0234375 3.52734375 c 0
 401.735351562 2.8310546875 401.591796875 2.064453125 401.447265625 1.3193359375 c 0
 401.353515625 0.7685546875 401.064453125 0.2646484375 401.015625 -0.2880859375 c 0
 401.015625 -0.552734375 401.111328125 -0.7919921875 401.111328125 -1.03125 c 0
 401.111328125 -1.2724609375 400.9921875 -1.53515625 401.015625 -1.7763671875 c 0
 401.0390625 -2.353515625 401.327148438 -2.857421875 401.447265625 -3.408203125 c 0
 401.591796875 -4.1533203125 401.711914062 -4.873046875 402 -5.568359375 c 0
 402.311523438 -6.2880859375 402.743164062 -6.935546875 403.176757812 -7.583984375 c 0
 403.583984375 -8.1611328125 403.943359375 -8.7841796875 404.423828125 -9.2880859375 c 0
 404.9765625 -9.8388671875 405.623046875 -10.2724609375 406.295898438 -10.7529296875 c 0
 406.873046875 -11.1611328125 407.400390625 -11.568359375 408.072265625 -11.880859375 c 0
 408.838867188 -12.2392578125 409.657226562 -12.384765625 410.49609375 -12.52734375 c 0
 411.072265625 -12.6728515625 411.552734375 -12.9609375 412.153320312 -13.0078125 c 0
 412.9921875 -13.056640625 496.9921875 -20.1845703125 496.9921875 -61.03125 c 0
 496.9921875 -101.880859375 412.9921875 -109.0078125 412.153320312 -109.056640625 c 0
 405.576171875 -109.53515625 400.607421875 -115.223632812 401.015625 -121.776367188 c 0
 401.423828125 -128.134765625 406.704101562 -133.03125 412.9921875 -133.03125 c 2
 413.665039062 -133.0078125 l 2
 427.103515625 -132.264648438 544.9921875 -123.888671875 544.9921875 -61.03125 c 0
 544.9921875 -28.7529296875 513.935546875 -10.896484375 481.896484375 -1.0078125 c 1
820.846679688 28.7275390625 m 0
 815.184570312 47.6884765625 802.153320312 64.392578125 782.9765625 73.7275390625 c 0
 760.846679688 84.50390625 736.03125 83.111328125 715.943359375 72.2880859375 c 1
 712.103515625 94.7529296875 697.943359375 115.223632812 675.865234375 125.9765625 c 0
 639.45703125 143.735351562 595.51171875 128.615234375 577.776367188 92.2314453125 c 0
 575.256835938 87.072265625 573.45703125 81.7431640625 572.256835938 76.416015625 c 0
 553.657226562 15.072265625 587.615234375 -75.7685546875 624.865234375 -114.334960938 c 0
 654.384765625 -117.45703125 695.735351562 -109.583984375 733.176757812 -93.384765625 c 0
 769.176757812 -58.3427734375 798.768554688 -16.9921875 820.846679688 28.7275390625 c 0
855.696289062 -5.3271484375 m 0
 873.431640625 31.056640625 858.334960938 75 821.9765625 92.7353515625 c 0
 799.846679688 103.51171875 775.03125 102.119140625 754.943359375 91.2958984375 c 1
 751.103515625 113.760742188 736.943359375 134.231445312 714.865234375 144.984375 c 0
 678.45703125 162.743164062 634.51171875 147.599609375 616.776367188 111.239257812 c 0
 614.256835938 106.080078125 612.45703125 100.752929688 611.256835938 95.423828125 c 0
 592.680664062 34.080078125 626.615234375 -56.7607421875 663.865234375 -95.3271484375 c 0
 717.215820312 -100.943359375 809.711914062 -71.8310546875 846.623046875 -19.46484375 c 0
 850.103515625 -15.1689453125 853.176757812 -10.48828125 855.696289062 -5.3271484375 c 0
EndSplineSet
Fore
Refer: 69 -1 N 1 0 0 1 504 408 0
Refer: 68 -1 N 1 0 0 1 413 -1 0
Refer: 12 -1 N 1 0 0 1 312 504 0
Refer: 14 -1 N -1 0 0 -1 576 300 0
Refer: 4 -1 N 0.15625 0 0 0.21875 276 276 0
Colour: 996633
EndChar

StartChar: FaceWithTearsOfJoy.1
Encoding: 61 -1 61
Width: 864
Flags: W
LayerCount: 2
Back
SplineSet
864 216 m 0
 864 -22.583984375 670.583984375 -216 432 -216 c 0
 193.439453125 -216 0 -22.583984375 0 216 c 0
 0 454.560546875 193.439453125 648 432 648 c 0
 670.583984375 648 864 454.560546875 864 216 c 1024
682.96875 220.873046875 m 0
 681.52734375 224.111328125 646.9921875 300 576 300 c 0
 505.03125 300 470.47265625 224.111328125 469.03125 220.873046875 c 0
 466.823242188 215.904296875 468.264648438 210.095703125 472.51171875 206.688476562 c 0
 476.711914062 203.280273438 482.735351562 203.161132812 487.153320312 206.353515625 c 0
 487.439453125 206.568359375 517.439453125 228 576 228 c 0
 634.223632812 228 664.176757812 206.857421875 664.846679688 206.376953125 c 0
 666.9609375 204.791992188 669.50390625 204 672 204 c 0
 674.638671875 204 677.303710938 204.888671875 679.48828125 206.615234375 c 0
 683.735351562 210.0234375 685.200195312 215.880859375 682.96875 220.873046875 c 0
394.96875 220.873046875 m 0
 393.52734375 224.111328125 358.9921875 300 288 300 c 0
 217.03125 300 182.47265625 224.111328125 181.03125 220.873046875 c 0
 178.823242188 215.904296875 180.264648438 210.095703125 184.48828125 206.688476562 c 0
 188.711914062 203.280273438 194.735351562 203.161132812 199.126953125 206.353515625 c 0
 199.439453125 206.568359375 229.416015625 228 288 228 c 0
 346.223632812 228 376.176757812 206.857421875 376.846679688 206.376953125 c 0
 378.9609375 204.791992188 381.50390625 204 384 204 c 0
 386.638671875 204 389.303710938 204.888671875 391.48828125 206.615234375 c 0
 395.760742188 210.0234375 397.176757812 215.880859375 394.96875 220.873046875 c 0
744 264 m 0
 734.49609375 264 725.47265625 269.711914062 721.704101562 279.095703125 c 0
 679.03125 385.776367188 572.353515625 408.239257812 571.272460938 408.48046875 c 0
 558.288085938 411.072265625 549.838867188 423.719726562 552.45703125 436.727539062 c 0
 555.046875 449.735351562 567.696289062 458.111328125 580.704101562 455.54296875 c 0
 586.126953125 454.46484375 714.046875 427.51171875 766.272460938 296.953125 c 0
 771.192382812 284.638671875 765.192382812 270.672851562 752.880859375 265.752929688 c 0
 750 264.552734375 746.9765625 264 744 264 c 0
120 264 m 0
 117.0234375 264 114.0234375 264.552734375 111.095703125 265.727539062 c 0
 98.7841796875 270.646484375 92.8076171875 284.615234375 97.7275390625 296.927734375 c 0
 149.953125 427.48828125 277.873046875 454.439453125 283.295898438 455.51953125 c 0
 296.327148438 458.064453125 308.927734375 449.688476562 311.54296875 436.704101562 c 0
 314.134765625 423.743164062 305.735351562 411.119140625 292.799804688 408.48046875 c 0
 288.361328125 407.568359375 184.657226562 384.9609375 142.295898438 279.095703125 c 0
 138.52734375 269.711914062 129.50390625 264 120 264 c 0
432 120 m 0
 345.046875 120 287.353515625 130.126953125 216 144 c 0
 199.704101562 147.142578125 168 144 168 96 c 0
 168 0 278.280273438 -120 432 -120 c 0
 585.696289062 -120 696 0 696 96 c 0
 696 144 664.295898438 147.168945312 648 144 c 0
 576.646484375 130.126953125 518.953125 120 432 120 c 0
216 96 m 1
 216 96 288 72 432 72 c 0
 576 72 648 96 648 96 c 1
 648 96 600 0 432 0 c 0
 264 0 216 96 216 96 c 1
260.327148438 -29.49609375 m 0
 244.0078125 -93.7431640625 178.727539062 -132.576171875 114.48046875 -116.256835938 c 0
 50.2568359375 -99.9609375 11.400390625 -34.6806640625 27.6962890625 29.568359375 c 0
 43.9921875 93.8154296875 179.784179688 238.560546875 203.064453125 232.657226562 c 0
 226.342773438 226.727539062 276.623046875 34.7275390625 260.327148438 -29.49609375 c 0
603.192382812 -29.49609375 m 0
 619.51171875 -93.7431640625 684.791992188 -132.576171875 749.0390625 -116.256835938 c 0
 813.288085938 -99.9609375 852.142578125 -34.6806640625 835.823242188 29.568359375 c 0
 819.50390625 93.8154296875 683.711914062 238.560546875 660.431640625 232.657226562 c 0
 637.200195312 226.727539062 586.896484375 34.7275390625 603.192382812 -29.49609375 c 0
EndSplineSet
Fore
Refer: 29 -1 N 1 0 0 1 0 0 2
Refer: 54 -1 N -1 0 0 1 576 432 0
Refer: 54 -1 N 1 0 0 1 288 432 0
Colour: 996633
EndChar

StartChar: MeltingFace.1
Encoding: 62 -1 62
Width: 864
Flags: W
LayerCount: 2
Back
SplineSet
841.680664062 -133.392578125 m 4
 855.086914062 -125.33203125 864.065429688 -110.641601562 864.065429688 -93.8720703125 c 4
 864.065429688 -88.884765625 863.212890625 -84.107421875 861.743164062 -79.607421875 c 4
 855.52734375 -60.1689453125 836.064453125 -48 815.638671875 -48 c 6
 768 -48 l 6
 754.752929688 -48 744 -37.2470703125 744 -24 c 4
 744 -10.7529296875 754.752929688 0 768 0 c 6
 804 0 l 6
 823.645507812 0.2626953125 839.514648438 16.291015625 839.514648438 36 c 4
 839.514648438 55.8701171875 823.3828125 72.001953125 803.509765625 72.001953125 c 4
 803.348632812 72.001953125 803.203125 72.001953125 803.0390625 72 c 4
 783.838867188 71.49609375 768 86.953125 768 106.153320312 c 6
 768 106.223632812 l 6
 768 113.256835938 769.439453125 120.095703125 772.223632812 126.552734375 c 4
 792.534179688 172.126953125 803.829101562 222.592773438 803.829101562 275.676757812 c 4
 803.829101562 283.560546875 803.770507812 291.373046875 803.280273438 299.134765625 c 4
 791.47265625 488.161132812 633.865234375 641.54296875 444.576171875 647.784179688 c 4
 233.376953125 654.743164062 60 485.615234375 60 276 c 4
 60 219.095703125 73.1533203125 165.384765625 96 117.142578125 c 6
 96 72.0234375 l 6
 96 45.9609375 75.2392578125 23.51953125 49.1767578125 24.0234375 c 4
 48.84375 24.0302734375 48.5087890625 24.03515625 48.173828125 24.03515625 c 4
 21.681640625 24.03515625 0.173828125 2.5263671875 0.173828125 -23.96484375 c 4
 0.173828125 -25.333984375 0.248046875 -26.6435546875 0.361328125 -27.984375 c 4
 2.423828125 -53.400390625 25.6572265625 -72 51.1923828125 -72 c 6
 244.126953125 -72 l 6
 244.155273438 -72 244.18359375 -72 244.211914062 -72 c 4
 259.708984375 -72 272.290039062 -84.5810546875 272.290039062 -100.080078125 c 4
 272.290039062 -107.861328125 269.12109375 -114.912109375 264 -120 c 5
 263.998046875 -119.998046875 191.280273438 -138.168945312 191.280273438 -138.168945312 c 6
 177.927734375 -141.517578125 168.030273438 -153.607421875 168.030273438 -167.990234375 c 4
 168.030273438 -182.374023438 177.927734375 -194.458984375 191.280273438 -197.807617188 c 4
 237.646484375 -209.400390625 285.215820312 -215.49609375 333 -215.953125 c 6
 398.087890625 -216.576171875 l 6
 431.831054688 -216.912109375 465.361328125 -209.134765625 494.784179688 -192.576171875 c 4
 523.560546875 -176.388671875 556.764648438 -167.151367188 592.106445312 -167.151367188 c 4
 605.111328125 -167.151367188 617.880859375 -168.276367188 630.192382812 -170.665039062 c 4
 702.865234375 -184.776367188 778.200195312 -171.48046875 841.680664062 -133.392578125 c 4
449.665039062 71.927734375 m 0
 431.568359375 71.927734375 413.568359375 73.7998046875 395.807617188 77.54296875 c 0
 331.176757812 91.2470703125 275.735351562 128.303710938 243.696289062 179.208007812 c 0
 241.474609375 182.845703125 240.194335938 187.120117188 240.194335938 191.690429688 c 0
 240.194335938 204.9375 250.947265625 215.690429688 264.194335938 215.690429688 c 0
 272.629882812 215.690429688 280.024414062 211.380859375 284.303710938 204.791992188 c 0
 309.095703125 165.384765625 354.50390625 135.384765625 405.743164062 124.51171875 c 0
 448.153320312 115.51171875 513.912109375 115.080078125 586.607421875 163.919921875 c 0
 590.430664062 166.48828125 595.029296875 167.98828125 599.9765625 167.98828125 c 0
 613.223632812 167.98828125 623.978515625 157.232421875 623.978515625 143.986328125 c 0
 623.978515625 135.684570312 619.8046875 128.390625 613.392578125 124.080078125 c 0
 562.295898438 89.7607421875 505.657226562 71.927734375 449.665039062 71.927734375 c 0
288 360 m 0
 288 320.236328125 309.490234375 288 336 288 c 0
 362.509765625 288 384 320.236328125 384 360 c 0
 384 399.763671875 362.509765625 432 336 432 c 0
 309.490234375 432 288 399.763671875 288 360 c 0
504 312 m 0
 504 272.236328125 525.490234375 240 552 240 c 0
 578.509765625 240 600 272.236328125 600 312 c 0
 600 351.763671875 578.509765625 384 552 384 c 0
 525.490234375 384 504 351.763671875 504 312 c 0
EndSplineSet
Fore
Refer: 72 -1 N 1 0 0 1 0 0 0
Refer: 4 -1 N 0.125 0 0 0.1875 552 312 0
Refer: 4 -1 N 0.125 0 0 0.1875 336 360 0
Colour: 996633
EndChar

StartChar: WinkingFace.1
Encoding: 63 -1 63
Width: 864
Flags: W
LayerCount: 2
Back
SplineSet
864 216 m 0
 864 -22.583984375 670.583984375 -216 432 -216 c 0
 193.439453125 -216 0 -22.583984375 0 216 c 0
 0 454.560546875 193.439453125 648 432 648 c 0
 670.583984375 648 864 454.560546875 864 216 c 1024
216 252 m 0
 216 205.607421875 242.864257812 168 276 168 c 0
 309.135742188 168 336 205.607421875 336 252 c 0
 336 298.392578125 309.135742188 336 276 336 c 0
 242.864257812 336 216 298.392578125 216 252 c 0
682.96875 220.873046875 m 0
 681.52734375 224.111328125 646.9921875 300 576 300 c 0
 505.03125 300 470.47265625 224.111328125 469.03125 220.873046875 c 0
 466.823242188 215.904296875 468.264648438 210.095703125 472.51171875 206.688476562 c 0
 476.711914062 203.280273438 482.735351562 203.161132812 487.153320312 206.353515625 c 0
 487.439453125 206.568359375 517.439453125 228 576 228 c 0
 634.223632812 228 664.176757812 206.857421875 664.846679688 206.376953125 c 0
 666.9609375 204.791992188 669.50390625 204 672 204 c 0
 674.638671875 204 677.303710938 204.888671875 679.48828125 206.615234375 c 0
 683.735351562 210.0234375 685.200195312 215.880859375 682.96875 220.873046875 c 0
143.9765625 349.0078125 m 0
 138.984375 349.0078125 133.919921875 350.568359375 129.599609375 353.807617188 c 0
 118.9921875 361.752929688 116.857421875 376.799804688 124.799804688 387.408203125 c 0
 203.087890625 491.807617188 307.583984375 493.0078125 312 493.0078125 c 0
 325.247070312 493.0078125 336 482.256835938 336 469.0078125 c 0
 336 455.784179688 325.319335938 445.056640625 312.095703125 445.0078125 c 0
 308.353515625 444.9609375 226.439453125 442.943359375 163.176757812 358.607421875 c 0
 158.49609375 352.319335938 151.272460938 349.0078125 143.9765625 349.0078125 c 0
696.0234375 298.0078125 m 0
 688.704101562 298.0078125 681.52734375 301.319335938 676.799804688 307.607421875 c 0
 614.591796875 390.576171875 509.735351562 370.657226562 508.704101562 370.48828125 c 0
 495.576171875 367.896484375 483.072265625 376.319335938 480.45703125 389.303710938 c 0
 477.865234375 402.311523438 486.288085938 414.935546875 499.272460938 417.552734375 c 0
 504.815429688 418.680664062 635.0390625 443.280273438 715.176757812 336.431640625 c 0
 723.142578125 325.823242188 720.984375 310.776367188 710.376953125 302.831054688 c 0
 706.080078125 299.54296875 701.0390625 298.0078125 696.0234375 298.0078125 c 0
558.095703125 82.1533203125 m 0
 553.583984375 84.7919921875 547.727539062 84.2392578125 543.768554688 80.7119140625 c 0
 543.52734375 80.51953125 519.45703125 60 432 60 c 0
 344.615234375 60 320.49609375 80.49609375 320.49609375 80.49609375 c 2
 316.680664062 84.3349609375 310.799804688 85.056640625 306.095703125 82.46484375 c 0
 301.416015625 79.7998046875 299.064453125 74.3271484375 300.384765625 69.095703125 c 0
 300.623046875 68.0390625 327.838867188 -36 432 -36 c 0
 536.161132812 -36 563.376953125 68.0390625 563.638671875 69.095703125 c 0
 564.912109375 74.2080078125 562.583984375 79.439453125 558.095703125 82.1533203125 c 0
EndSplineSet
Fore
Refer: 69 -1 N 1 0 0 1 504 394 0
Refer: 12 -1 N 1 0 0 1 312 469 0
Refer: 14 -1 N -1 0 0 -1 576 300 0
Refer: 4 -1 N 0.15625 0 0 0.21875 276 252 0
Refer: 8 -1 N 1 0 0 1 432 -36 0
Colour: 996633
EndChar

StartChar: KissingFaceWithSmilingEyes.1
Encoding: 64 -1 64
Width: 864
Flags: W
LayerCount: 2
Back
SplineSet
864 216 m 0
 864 -22.583984375 670.583984375 -216 432 -216 c 0
 193.439453125 -216 0 -22.583984375 0 216 c 0
 0 454.560546875 193.439453125 648 432 648 c 0
 670.583984375 648 864 454.560546875 864 216 c 1024
500.904296875 -24 m 1
 532.943359375 -14.111328125 564 3.7431640625 564 36 c 0
 564 98.857421875 446.111328125 107.231445312 432.672851562 107.9765625 c 0
 426.095703125 108.623046875 420.45703125 103.342773438 420.0234375 96.7431640625 c 0
 419.615234375 90.1689453125 424.583984375 84.48046875 431.161132812 84.0234375 c 0
 432 83.9765625 516 76.8466796875 516 36 c 0
 516 -4.8466796875 432 -11.9765625 431.161132812 -12.0234375 c 0
 430.846679688 -12.046875 430.607421875 -12.2158203125 430.295898438 -12.2646484375 c 0
 429.0234375 -12.408203125 427.846679688 -12.6962890625 426.719726562 -13.2470703125 c 2
 426.361328125 -13.46484375 l 2
 425.208007812 -14.111328125 424.176757812 -14.880859375 423.311523438 -15.865234375 c 0
 422.9765625 -16.2236328125 422.760742188 -16.607421875 422.47265625 -16.9921875 c 0
 421.919921875 -17.7607421875 421.416015625 -18.52734375 421.03125 -19.46484375 c 0
 420.743164062 -20.1611328125 420.599609375 -20.927734375 420.45703125 -21.6728515625 c 0
 420.361328125 -22.2236328125 420.072265625 -22.7275390625 420.0234375 -23.2802734375 c 0
 420.0234375 -23.54296875 420.119140625 -23.7841796875 420.119140625 -24.0234375 c 0
 420.119140625 -24.2646484375 420 -24.52734375 420.0234375 -24.7685546875 c 0
 420.046875 -25.3427734375 420.334960938 -25.8466796875 420.45703125 -26.400390625 c 0
 420.599609375 -27.142578125 420.719726562 -27.865234375 421.0078125 -28.560546875 c 0
 421.319335938 -29.2802734375 421.752929688 -29.927734375 422.184570312 -30.576171875 c 0
 422.591796875 -31.1533203125 422.953125 -31.7763671875 423.431640625 -32.2802734375 c 0
 423.984375 -32.8310546875 424.630859375 -33.2646484375 425.303710938 -33.7431640625 c 0
 425.880859375 -34.1533203125 426.408203125 -34.560546875 427.080078125 -34.873046875 c 0
 427.846679688 -35.2314453125 428.665039062 -35.376953125 429.50390625 -35.51953125 c 0
 430.080078125 -35.6650390625 430.560546875 -35.953125 431.161132812 -36 c 0
 432 -36.0234375 516 -43.1533203125 516 -84 c 0
 516 -124.846679688 432 -131.9765625 431.161132812 -132.0234375 c 0
 424.583984375 -132.50390625 419.615234375 -138.192382812 420.0234375 -144.743164062 c 0
 420.431640625 -151.103515625 425.711914062 -156 432 -156 c 2
 432.672851562 -155.9765625 l 2
 446.111328125 -155.231445312 564 -146.857421875 564 -84 c 0
 564 -51.7431640625 532.943359375 -33.888671875 500.904296875 -24 c 1
384 192 m 0
 373.943359375 192 364.583984375 198.361328125 361.223632812 208.416015625 c 0
 356.353515625 222.791992188 336.815429688 264 312 264 c 0
 286.51171875 264 266.688476562 220.153320312 262.776367188 208.416015625 c 0
 258.576171875 195.865234375 245.064453125 189.0234375 232.416015625 193.247070312 c 0
 219.838867188 197.423828125 213.046875 211.0078125 217.247070312 223.607421875 c 0
 220.247070312 232.630859375 248.54296875 312 312 312 c 0
 375.45703125 312 403.752929688 232.630859375 406.776367188 223.583984375 c 0
 410.9765625 211.0078125 404.184570312 197.400390625 391.607421875 193.223632812 c 0
 389.064453125 192.408203125 386.49609375 192 384 192 c 0
624 192 m 0
 613.943359375 192 604.583984375 198.361328125 601.247070312 208.416015625 c 0
 596.376953125 222.791992188 576.791992188 264 552 264 c 0
 526.51171875 264 506.665039062 220.153320312 502.752929688 208.416015625 c 0
 498.552734375 195.865234375 485.087890625 189.0234375 472.392578125 193.247070312 c 0
 459.838867188 197.423828125 453.0234375 211.0078125 457.223632812 223.607421875 c 0
 460.247070312 232.630859375 488.51953125 312 552 312 c 0
 615.48046875 312 643.752929688 232.630859375 646.752929688 223.583984375 c 0
 650.953125 211.0078125 644.161132812 197.400390625 631.583984375 193.223632812 c 0
 629.064453125 192.408203125 626.49609375 192 624 192 c 0
EndSplineSet
Fore
Refer: 68 -1 S 1 0 0 1 432 -24 0
Refer: 9 -1 N 1 0 0 1 312 288 0
Refer: 9 -1 N 1 0 0 1 552 288 0
Colour: 996633
EndChar

StartChar: SmilingFaceWithTear.1
Encoding: 65 -1 65
Width: 864
Flags: W
LayerCount: 2
Back
SplineSet
0 216 m 0
 0 -22.5869140625 193.413085938 -216 432 -216 c 0
 670.586914062 -216 864 -22.5869140625 864 216 c 0
 864 454.586914062 670.586914062 648 432 648 c 0
 193.413085938 648 0 454.586914062 0 216 c 0
228 324 m 0
 228 277.607421875 254.864257812 240 288 240 c 0
 321.135742188 240 348 277.607421875 348 324 c 0
 348 370.392578125 321.135742188 408 288 408 c 0
 254.864257812 408 228 370.392578125 228 324 c 0
516 324 m 0
 516 277.607421875 542.864257812 240 576 240 c 0
 609.135742188 240 636 277.607421875 636 324 c 0
 636 370.392578125 609.135742188 408 576 408 c 0
 542.864257812 408 516 370.392578125 516 324 c 0
656.0390625 104.904296875 m 0
 651.768554688 108.768554688 645.384765625 109.0078125 640.799804688 105.599609375 c 0
 639.865234375 104.904296875 546.672851562 36 432 36 c 0
 317.615234375 36 224.111328125 104.904296875 223.200195312 105.599609375 c 0
 218.615234375 109.0078125 212.231445312 108.719726562 207.9609375 104.904296875 c 0
 203.711914062 101.064453125 202.752929688 94.7275390625 205.704101562 89.8310546875 c 0
 208.799804688 84.6728515625 282.912109375 -36 432 -36 c 0
 581.087890625 -36 655.223632812 84.6728515625 658.295898438 89.8310546875 c 0
 661.247070312 94.7529296875 660.311523438 101.064453125 656.0390625 104.904296875 c 0
708 -12 m 0
 708 -78.2880859375 654.288085938 -132 588 -132 c 0
 521.711914062 -132 468 -78.2880859375 468 -12 c 0
 468 54.2880859375 564 228 588 228 c 0
 612 228 708 54.2880859375 708 -12 c 0
EndSplineSet
Fore
Refer: 4 -1 N 0.15625 0 0 0.21875 576 324 0
Refer: 4 -1 N 0.15625 0 0 0.21875 288 324 0
Refer: 11 -1 N 1 0 0 1 432 -36 0
Colour: 996633
EndChar

StartChar: mouth.smiling3
Encoding: 66 -1 66
Width: 0
GlyphClass: 5
Flags: W
LayerCount: 2
Back
SplineSet
-159.516601562 116.483398438 m 5
 -159.572564573 116.539361448 l 4
 -159.572564573 116.539361448 -159.571010045 116.53780692 -159.567382812 116.534179688 c 4
 -159.565429688 116.532226562 -158.466796875 115.4609375 -156.189453125 113.650390625 c 4
 -154.138671875 112.021484375 -151.1328125 109.794921875 -147.107421875 107.2109375 c 4
 -139.862304688 102.560546875 -129.317382812 96.75390625 -115.083984375 91.2001953125 c 4
 -89.4697265625 81.2041015625 -51.880859375 72 0 72 c 4
 51.880859375 72 89.4697265625 81.2041015625 115.083984375 91.2001953125 c 4
 129.317382812 96.75390625 139.862304688 102.560546875 147.107421875 107.2109375 c 4
 151.1328125 109.794921875 154.138671875 112.021484375 156.189453125 113.650390625 c 4
 158.466796875 115.4609375 159.565429688 116.532226562 159.567382812 116.534179688 c 4
 159.571010045 116.53780692 159.572564573 116.539361448 159.572564573 116.539361448 c 4
 159.516601562 116.483398438 l 5
 160.932617188 117.899414062 162.72265625 118.98046875 164.788085938 119.551757812 c 4
 165.857614402 119.847939961 166.933723562 119.989256404 167.992494309 119.989256404 c 4
 173.252335347 119.989256404 178.084268086 116.501596962 179.555664062 111.1875 c 4
 179.851985642 110.117506036 179.993299622 109.04122798 179.993299622 107.982256821 c 4
 179.993299622 106.996109321 179.870753205 106.024970232 179.63671875 105.087890625 c 5
 179.66716877 105.210513678 179.678589779 105.255460223 179.67900902 105.255460223 c 5
 179.67900902 105.255460223 179.599523562 104.923987912 179.599523562 104.916542122 c 5
 179.599523562 104.916542122 179.61097672 104.957578756 179.642578125 105.083984375 c 5
 179.475585938 104.415039062 177.758789062 97.763671875 172.922851562 88.01171875 c 4
 169.055664062 80.2138671875 163.18359375 70.4228515625 154.49609375 60.2021484375 c 4
 148.463867188 53.10546875 141.07421875 45.8056640625 132.088867188 38.8544921875 c 4
 120.857421875 30.166015625 107.140625 22.0341796875 90.556640625 15.4990234375 c 4
 66.669921875 6.0849609375 36.8955078125 0 0 0 c 4
 -36.8955078125 0 -66.669921875 6.0849609375 -90.556640625 15.4990234375 c 4
 -107.140625 22.0341796875 -120.857421875 30.166015625 -132.088867188 38.8544921875 c 4
 -141.07421875 45.8056640625 -148.463867188 53.10546875 -154.49609375 60.2021484375 c 4
 -163.18359375 70.4228515625 -169.055664062 80.2138671875 -172.922851562 88.01171875 c 4
 -177.758789062 97.763671875 -179.475585938 104.415039062 -179.642578125 105.083984375 c 4
 -179.876979391 106.020648067 -179.99953784 106.991567876 -179.99953784 107.977499399 c 4
 -179.99953784 109.037146545 -179.857967493 110.114134099 -179.561523438 111.184570312 c 4
 -178.090056451 116.498923731 -173.258405113 119.985986565 -167.998495691 119.985986565 c 4
 -166.940016102 119.985986565 -165.864193922 119.844775667 -164.794921875 119.548828125 c 4
 -162.728515625 118.9765625 -160.938476562 117.896484375 -159.516601562 116.483398438 c 5
EndSplineSet
Fore
SplineSet
-180 108 m 1,0,1
 -180 113 -180 113 -176.5 116.5 c 129,-1,2
 -173 120 -173 120 -168 120 c 1,3,4
 -164 120 -164 120 -160 117 c 1,5,6
 -139 98 -139 98 -97 85 c 129,-1,7
 -55 72 -55 72 0 72 c 129,-1,8
 55 72 55 72 97 85 c 129,-1,9
 139 98 139 98 160 117 c 1,10,11
 164 120 164 120 168 120 c 1,12,13
 173 120 173 120 176.5 116.5 c 129,-1,14
 180 113 180 113 180 108 c 1,15,16
 180 106 180 106 179 103 c 1,17,18
 163 57 163 57 117 28.5 c 129,-1,19
 71 0 71 0 0 0 c 129,-1,20
 -71 0 -71 0 -117 28.5 c 129,-1,21
 -163 57 -163 57 -179 103 c 1,22,23
 -180 106 -180 106 -180 108 c 1,0,1
EndSplineSet
Colour: ff00ff
EndChar

StartChar: smile_1c
Encoding: 67 -1 67
Width: 0
GlyphClass: 5
Flags: W
LayerCount: 2
Back
SplineSet
104.280273438 68.638671875 m 4
 108.48046875 64.607421875 109.223632812 58.1767578125 105.984375 53.3271484375 c 4
 104.54296875 51.1455078125 69.623046875 0 0 0 c 4
 -69.623046875 0 -104.51953125 51.1455078125 -105.984375 53.3271484375 c 4
 -109.200195312 58.2001953125 -108.48046875 64.6806640625 -104.231445312 68.7119140625 c 4
 -99.984375 72.7451171875 -93.431640625 73.080078125 -88.7998046875 69.599609375 c 4
 -88.560546875 69.408203125 -58.583984375 48 0 48 c 4
 58.583984375 48 88.583984375 69.408203125 88.8466796875 69.6494140625 c 4
 93.55078125 73.103515625 100.080078125 72.6962890625 104.280273438 68.638671875 c 4
EndSplineSet
Fore
SplineSet
-108 60 m 1,0,1
 -108 65 -108 65 -104.5 68.5 c 129,-1,2
 -101 72 -101 72 -96 72 c 1,3,4
 -92 72 -92 72 -88 69 c 1,5,6
 -74 60 -74 60 -50.5 54 c 129,-1,7
 -27 48 -27 48 0 48 c 129,-1,8
 27 48 27 48 50.5 54 c 129,-1,9
 74 60 74 60 88 69 c 1,10,11
 92 72 92 72 96 72 c 1,12,13
 101 72 101 72 104.5 68.5 c 129,-1,14
 108 65 108 65 108 60 c 1,15,16
 108 56 108 56 105 52 c 1,17,18
 88 29 88 29 60.5 14.5 c 129,-1,19
 33 0 33 0 0 0 c 129,-1,20
 -33 0 -33 0 -60.5 14.5 c 129,-1,21
 -88 29 -88 29 -105 52 c 1,22,23
 -108 56 -108 56 -108 60 c 1,0,1
EndSplineSet
Colour: ff00ff
EndChar

StartChar: mouth.kissing
Encoding: 68 -1 68
Width: 0
GlyphClass: 5
Flags: W
LayerCount: 2
Back
SplineSet
0.607421875 11.984375 m 5
 0.8896484375 11.970703125 12.671875 11.3779296875 29.0341796875 8.916015625 c 4
 42.130859375 6.9462890625 58.154296875 3.796875 73.73046875 -1.36328125 c 4
 79.5029296875 -3.275390625 85.220703125 -5.466796875 90.724609375 -8.0126953125 c 4
 95.1279296875 -10.048828125 99.396484375 -12.310546875 103.4453125 -14.857421875 c 4
 107.493164062 -17.404296875 111.327148438 -20.2373046875 114.831054688 -23.4384765625 c 4
 117.6328125 -25.9990234375 120.225585938 -28.7978515625 122.51171875 -31.8701171875 c 4
 125.083007812 -35.32421875 127.263671875 -39.12890625 128.876953125 -43.2568359375 c 4
 130.89453125 -48.419921875 132 -54.0595703125 132 -60 c 4
 132 -65.9404296875 130.89453125 -71.580078125 128.876953125 -76.7431640625 c 4
 127.263671875 -80.87109375 125.083007812 -84.67578125 122.51171875 -88.1298828125 c 4
 120.225585938 -91.2021484375 117.6328125 -94.0009765625 114.831054688 -96.5615234375 c 4
 111.327148438 -99.7626953125 107.493164062 -102.595703125 103.4453125 -105.142578125 c 4
 99.396484375 -107.689453125 95.1279296875 -109.951171875 90.724609375 -111.987304688 c 4
 85.220703125 -114.533203125 79.5029296875 -116.724609375 73.73046875 -118.63671875 c 4
 58.154296875 -123.796875 42.130859375 -126.946289062 29.0341796875 -128.916015625 c 4
 12.671875 -131.377929688 0.8896484375 -131.970703125 0.607421875 -131.984375 c 4
 -2.435546875 -132.13671875 -5.5380859375 -131.138671875 -7.9892578125 -128.951171875 c 4
 -12.931640625 -124.538085938 -13.3642578125 -116.9453125 -8.955078125 -112.006835938 c 4
 -6.7685546875 -109.55859375 -3.798828125 -108.21875 -0.7578125 -108.028320312 c 6
 -0.7578125 -108.028320312 0.603515625 -107.946289062 3.6318359375 -107.622070312 c 4
 7.2734375 -107.231445312 12.91796875 -106.506835938 19.5625 -105.2578125 c 4
 29.12890625 -103.458007812 40.7705078125 -100.544921875 51.384765625 -96.150390625 c 4
 57.75 -93.5146484375 63.7138671875 -90.3544921875 68.642578125 -86.75390625 c 4
 73.03125 -83.548828125 76.55859375 -80.03515625 79.08203125 -76.2763671875 c 4
 80.8369140625 -73.6611328125 82.1328125 -70.9169921875 82.9638671875 -67.904296875 c 4
 83.62890625 -65.4912109375 84 -62.8896484375 84 -60 c 4
 84 -57.1103515625 83.62890625 -54.5087890625 82.9638671875 -52.095703125 c 4
 82.1328125 -49.0830078125 80.8369140625 -46.3388671875 79.08203125 -43.7236328125 c 4
 76.55859375 -39.96484375 73.03125 -36.451171875 68.642578125 -33.24609375 c 4
 63.7138671875 -29.6455078125 57.75 -26.4853515625 51.384765625 -23.849609375 c 4
 43.427734375 -20.5556640625 34.884765625 -18.0830078125 27.078125 -16.3037109375 c 4
 20.13671875 -14.720703125 13.7783203125 -13.6796875 8.8984375 -13.01953125 c 4
 2.625 -12.169921875 -0.7587890625 -11.9765625 -0.7587890625 -11.9765625 c 6
 -3.57421875 -11.80078125 -6.3388671875 -10.6376953125 -8.48828125 -8.4892578125 c 4
 -13.171875 -3.806640625 -13.173828125 3.796875 -8.4912109375 8.4814453125 c 4
 -6.3408203125 10.6318359375 -3.5751953125 11.794921875 -0.7587890625 11.9716796875 c 6
 -0.7587890625 11.9716796875 0.603515625 12.0537109375 3.6318359375 12.3779296875 c 4
 7.2734375 12.7685546875 12.91796875 13.4931640625 19.5625 14.7421875 c 4
 29.12890625 16.5419921875 40.7705078125 19.455078125 51.384765625 23.849609375 c 4
 57.75 26.4853515625 63.7138671875 29.6455078125 68.642578125 33.24609375 c 4
 73.03125 36.451171875 76.55859375 39.96484375 79.08203125 43.7236328125 c 4
 80.8369140625 46.3388671875 82.1328125 49.0830078125 82.9638671875 52.095703125 c 4
 83.62890625 54.5087890625 84 57.1103515625 84 60 c 4
 84 62.8896484375 83.62890625 65.4912109375 82.9638671875 67.904296875 c 4
 82.1328125 70.9169921875 80.8369140625 73.6611328125 79.08203125 76.2763671875 c 4
 76.55859375 80.03515625 73.03125 83.548828125 68.642578125 86.75390625 c 4
 63.7138671875 90.3544921875 57.75 93.5146484375 51.384765625 96.150390625 c 4
 43.427734375 99.4443359375 34.884765625 101.916992188 27.078125 103.696289062 c 4
 20.13671875 105.279296875 13.7783203125 106.3203125 8.8984375 106.98046875 c 4
 2.625 107.830078125 -0.7587890625 108.0234375 -0.7587890625 108.0234375 c 6
 -3.798828125 108.213867188 -6.7685546875 109.552734375 -8.955078125 112.001953125 c 4
 -13.365234375 116.94140625 -12.931640625 124.533203125 -7.9892578125 128.9453125 c 4
 -5.5380859375 131.134765625 -2.435546875 132.1328125 0.607421875 131.98046875 c 4
 0.890625 131.965820312 12.6708984375 131.37890625 29.0341796875 128.916015625 c 4
 42.130859375 126.946289062 58.154296875 123.796875 73.73046875 118.63671875 c 4
 79.5029296875 116.724609375 85.220703125 114.533203125 90.724609375 111.987304688 c 4
 95.1279296875 109.951171875 99.396484375 107.689453125 103.4453125 105.142578125 c 4
 107.493164062 102.595703125 111.327148438 99.7626953125 114.831054688 96.5615234375 c 4
 117.6328125 94.0009765625 120.225585938 91.2021484375 122.51171875 88.1298828125 c 4
 125.083007812 84.67578125 127.263671875 80.87109375 128.876953125 76.7431640625 c 4
 130.89453125 71.580078125 132 65.9404296875 132 60 c 4
 132 54.0595703125 130.89453125 48.419921875 128.876953125 43.2568359375 c 4
 127.263671875 39.12890625 125.083007812 35.32421875 122.51171875 31.8701171875 c 4
 120.225585938 28.7978515625 117.6328125 25.9990234375 114.831054688 23.4384765625 c 4
 111.327148438 20.2373046875 107.493164062 17.404296875 103.4453125 14.857421875 c 4
 99.396484375 12.310546875 95.1279296875 10.048828125 90.724609375 8.0126953125 c 4
 85.220703125 5.466796875 79.5029296875 3.275390625 73.73046875 1.36328125 c 4
 58.154296875 -3.796875 42.130859375 -6.9462890625 29.0341796875 -8.916015625 c 4
 12.671875 -11.3779296875 0.8896484375 -11.970703125 0.607421875 -11.984375 c 5
 0.607421875 11.984375 l 5
EndSplineSet
Fore
SplineSet
-12 0 m 129,-1,1
 -12 5 -12 5 -8.5 8.5 c 129,-1,2
 -5 12 -5 12 0 12 c 1,3,4
 38 16 38 16 61 28.5 c 129,-1,5
 84 41 84 41 84 60 c 129,-1,6
 84 79 84 79 61 91.5 c 129,-1,7
 38 104 38 104 0 108 c 1,8,9
 -5 108 -5 108 -8.5 111.5 c 129,-1,10
 -12 115 -12 115 -12 120 c 129,-1,11
 -12 125 -12 125 -8.5 128.5 c 129,-1,12
 -5 132 -5 132 0 132 c 257,13,14
 2 132 2 132 13 131 c 1,15,16
 70 125 70 125 101 106.5 c 129,-1,17
 132 88 132 88 132 60 c 1,18,19
 132 20 132 20 70 0 c 1,20,21
 132 -20 132 -20 132 -60 c 1,22,23
 132 -88 132 -88 101 -106.5 c 129,-1,24
 70 -125 70 -125 13 -131 c 1,25,26
 2 -132 2 -132 0 -132 c 257,27,28
 -5 -132 -5 -132 -8.5 -128.5 c 129,-1,29
 -12 -125 -12 -125 -12 -120 c 129,-1,30
 -12 -115 -12 -115 -8.5 -111.5 c 129,-1,31
 -5 -108 -5 -108 0 -108 c 1,32,33
 38 -104 38 -104 61 -91.5 c 129,-1,34
 84 -79 84 -79 84 -60 c 129,-1,35
 84 -41 84 -41 61 -28.5 c 129,-1,36
 38 -16 38 -16 0 -12 c 1,37,38
 -5 -12 -5 -12 -8.5 -8.5 c 129,-1,0
 -12 -5 -12 -5 -12 0 c 129,-1,1
EndSplineSet
Colour: ff00ff
EndChar

StartChar: eyebrow.5
Encoding: 69 -1 69
Width: 0
GlyphClass: 5
Flags: W
LayerCount: 2
Back
SplineSet
4.7255859375 -23.5341796875 m 5
 4.7255859375 -23.5341796875 4.7265625 -23.541015625 4.689453125 -23.541015625 c 4
 3.19921875 -23.84765625 1.6181640625 -24.0078125 0.0009765625 -24.0078125 c 4
 -13.2470703125 -24.0078125 -24.0029296875 -13.251953125 -24.0029296875 -0.00390625 c 4
 -24.0029296875 11.626953125 -15.712890625 21.3359375 -4.7255859375 23.5341796875 c 4
 -4.0859375 23.662109375 0.765625 24.607421875 8.81640625 25.4296875 c 4
 15.2568359375 26.087890625 23.74609375 26.6669921875 33.77734375 26.6669921875 c 4
 44.6142578125 26.6669921875 57.2275390625 25.9921875 70.9609375 23.9775390625 c 4
 81.9462890625 22.3662109375 93.6513671875 19.896484375 105.719726562 16.205078125 c 4
 127.428710938 9.564453125 150.379882812 -1.0712890625 172.016601562 -17.74609375 c 4
 185.916992188 -28.4580078125 199.227539062 -41.6416015625 211.2109375 -57.6201171875 c 4
 214.217773438 -61.62890625 216 -66.607421875 216 -71.998046875 c 4
 216 -85.2421875 205.24609375 -95.9951171875 192.001953125 -95.9951171875 c 4
 184.149414062 -95.9951171875 177.171875 -92.21484375 172.81640625 -86.416015625 c 4
 172.79296875 -86.3759765625 172.7890625 -86.3798828125 172.7890625 -86.3798828125 c 6
 163.439453125 -73.9140625 153.309570312 -63.9208984375 142.754882812 -55.787109375 c 4
 126.350585938 -43.1455078125 108.806640625 -34.9453125 91.677734375 -29.705078125 c 4
 82.1689453125 -26.796875 72.80859375 -24.8125 63.9462890625 -23.5126953125 c 4
 52.8681640625 -21.8876953125 42.572265625 -21.3330078125 33.77734375 -21.3330078125 c 4
 25.63671875 -21.3330078125 18.7626953125 -21.8076171875 13.7421875 -22.3203125 c 4
 8.162109375 -22.890625 4.873046875 -23.5068359375 4.66015625 -23.546875 c 4
 4.580078125 -23.5625 4.7255859375 -23.5341796875 4.7255859375 -23.5341796875 c 5
EndSplineSet
Fore
SplineSet
-24 0 m 129,-1,1
 -24 10 -24 10 -17 17 c 1,2,3
 -11 23 -11 23 -2 24 c 1,4,5
 18 27 18 27 34 27 c 1,6,7
 86 27 86 27 132.5 6 c 129,-1,8
 179 -15 179 -15 210 -56 c 1,9,10
 216 -63 216 -63 216 -72 c 1,11,12
 216 -82 216 -82 209 -89 c 129,-1,13
 202 -96 202 -96 192 -96 c 1,14,15
 179 -96 179 -96 171 -84 c 1,16,17
 148 -54 148 -54 112.5 -37.5 c 129,-1,18
 77 -21 77 -21 32 -21 c 1,19,20
 21 -21 21 -21 8 -23 c 1,21,22
 3 -24 3 -24 0 -24 c 1,23,24
 -10 -24 -10 -24 -17 -17 c 129,-1,0
 -24 -10 -24 -10 -24 0 c 129,-1,1
EndSplineSet
Colour: ff00ff
EndChar

StartChar: SmilingFaceWithHalo.4
Encoding: 70 -1 70
Width: 864
Flags: W
LayerCount: 2
Back
SplineSet
0 -432 m 5
 0 -670.586914062 193.413085938 -864 432 -864 c 5
 670.586914062 -864 864 -670.586914062 864 -432 c 5
 864 -193.413085938 670.586914062 0 432 0 c 5
 193.413085938 0 0 -193.413085938 0 -432 c 5
656.0390625 -543.095703125 m 5
 651.768554688 -539.231445312 645.384765625 -538.9921875 640.799804688 -542.400390625 c 5
 639.865234375 -543.095703125 546.672851562 -612 432 -612 c 5
 317.615234375 -612 224.111328125 -543.095703125 223.200195312 -542.400390625 c 5
 218.615234375 -538.9921875 212.231445312 -539.280273438 207.9609375 -543.095703125 c 5
 203.711914062 -546.935546875 202.752929688 -553.272460938 205.704101562 -558.168945312 c 5
 208.799804688 -563.327148438 282.912109375 -684 432 -684 c 5
 581.087890625 -684 655.223632812 -563.327148438 658.295898438 -558.168945312 c 5
 661.247070312 -553.247070312 660.311523438 -546.935546875 656.0390625 -543.095703125 c 5
624 -456 m 5
 613.943359375 -456 604.583984375 -449.638671875 601.247070312 -439.583984375 c 5
 596.376953125 -425.208007812 576.791992188 -384 552 -384 c 5
 526.51171875 -384 506.665039062 -427.846679688 502.752929688 -439.583984375 c 5
 498.552734375 -452.134765625 485.087890625 -458.9765625 472.392578125 -454.752929688 c 5
 459.838867188 -450.576171875 453.0234375 -436.9921875 457.223632812 -424.392578125 c 5
 460.247070312 -415.369140625 488.51953125 -336 552 -336 c 5
 615.48046875 -336 643.752929688 -415.369140625 646.752929688 -424.416015625 c 5
 650.953125 -436.9921875 644.161132812 -450.599609375 631.583984375 -454.776367188 c 5
 629.064453125 -455.591796875 626.49609375 -456 624 -456 c 5
384 -456 m 5
 373.943359375 -456 364.583984375 -449.638671875 361.223632812 -439.583984375 c 5
 356.353515625 -425.208007812 336.815429688 -384 312 -384 c 5
 286.51171875 -384 266.688476562 -427.846679688 262.776367188 -439.583984375 c 5
 258.576171875 -452.134765625 245.064453125 -458.9765625 232.416015625 -454.752929688 c 5
 219.838867188 -450.576171875 213.046875 -436.9921875 217.247070312 -424.392578125 c 5
 220.247070312 -415.369140625 248.51953125 -336 312 -336 c 5
 375.48046875 -336 403.752929688 -415.369140625 406.776367188 -424.416015625 c 5
 410.9765625 -436.9921875 404.184570312 -450.599609375 391.607421875 -454.776367188 c 5
 389.064453125 -455.591796875 386.49609375 -456 384 -456 c 5
796.200195312 -199.583984375 m 5
 796.200195312 -199.583984375 579.192382812 -203.447265625 432 -203.447265625 c 5
 338.280273438 -203.447265625 67.056640625 -200.615234375 67.056640625 -200.615234375 c 5
 54.552734375 -221.638671875 l 21
 127.583984375 -266.184570312 272.087890625 -291.646484375 432 -291.646484375 c 5
 590.303710938 -291.646484375 733.823242188 -266.688476562 807.646484375 -223.0078125 c 13
 809.51953125 -221.880859375 l 5
 809.51953125 -221.880859375 800.54296875 -205.943359375 796.200195312 -199.583984375 c 5
570.646484375 -8.2802734375 m 5
 541.560546875 -6.0234375 511.295898438 -4.46484375 480.095703125 -3.7197265625 c 5
 464.231445312 -3.3349609375 448.223632812 -3.095703125 432 -3.095703125 c 5
 415.873046875 -3.095703125 399.935546875 -3.3349609375 384.168945312 -3.6962890625 c 5
 352.919921875 -4.439453125 322.630859375 -6 293.51953125 -8.2568359375 c 5
 128.161132812 -21.119140625 4.056640625 -58.8232421875 4.056640625 -126.888671875 c 5
 4.056640625 -213 202.392578125 -265.392578125 432 -265.392578125 c 5
 661.607421875 -265.392578125 859.943359375 -213 859.943359375 -126.888671875 c 5
 859.943359375 -58.8466796875 735.912109375 -21.1689453125 570.646484375 -8.2802734375 c 5
432 -177.192382812 m 5
 267.334960938 -177.192382812 122.161132812 -157.200195312 122.161132812 -111.52734375 c 5
 122.161132812 -98.6650390625 134.015625 -86.9765625 154.295898438 -76.7529296875 c 5
 181.96875 -62.8076171875 225.768554688 -51.6962890625 278.831054688 -44.376953125 c 5
 324.696289062 -38.087890625 377.184570312 -34.53515625 432 -34.53515625 c 5
 486.984375 -34.53515625 539.638671875 -38.087890625 585.599609375 -44.447265625 c 5
 639.408203125 -51.888671875 683.665039062 -63.2392578125 711.168945312 -77.49609375 c 5
 730.53515625 -87.52734375 741.838867188 -98.953125 741.838867188 -111.52734375 c 5
 741.838867188 -157.200195312 596.665039062 -177.192382812 432 -177.192382812 c 5
585.599609375 -44.47265625 m 21
 639.408203125 -51.912109375 683.665039062 -63.2646484375 711.168945312 -77.51953125 c 13
 712.657226562 -77.927734375 l 5
 657.815429688 -37.7529296875 602.9765625 -16.48828125 570.646484375 -8.2802734375 c 5
 541.560546875 -6.0234375 511.295898438 -4.46484375 480.095703125 -3.7197265625 c 5
 480.52734375 -3.888671875 l 5
 585.599609375 -44.47265625 l 21
154.295898438 -76.7763671875 m 5
 181.96875 -62.8310546875 225.768554688 -51.7197265625 278.831054688 -44.400390625 c 13
 383.615234375 -3.888671875 l 5
 384.168945312 -3.6962890625 l 5
 352.919921875 -4.439453125 322.630859375 -6 293.51953125 -8.2568359375 c 5
 261.192382812 -16.46484375 206.327148438 -37.7041015625 151.46484375 -77.904296875 c 5
 154.295898438 -76.7763671875 l 5
683.327148438 -81 m 5
 667.48828125 -70.369140625 651.0234375 -59.1611328125 635.303710938 -50.7607421875 c 5
 574.727539062 -18.361328125 505.51171875 0 432 0 c 5
 361.704101562 0 295.319335938 -16.7998046875 236.638671875 -46.583984375 c 5
 210.50390625 -59.857421875 191.49609375 -70.560546875 184.560546875 -81 c 5
 683.327148438 -81 l 5
EndSplineSet
Fore
SplineSet
4 521 m 3,0,1
 4 614 4 614 294 640 c 1,2,3
 216 618 216 618 152 570 c 1,4,5
 122 554 122 554 122 536 c 3,6,7
 122 506 122 506 206.5 488.5 c 128,-1,8
 291 471 291 471 432 471 c 131,-1,9
 573 471 573 471 657.5 488.5 c 128,-1,10
 742 506 742 506 742 536 c 3,11,12
 742 554 742 554 712 570 c 1,13,14
 648 618 648 618 570 640 c 1,15,16
 860 614 860 614 860 521 c 3,17,18
 860 462 860 462 740.5 422.5 c 128,-1,19
 621 383 621 383 432 383 c 131,-1,20
 243 383 243 383 123.5 422.5 c 128,-1,21
 4 462 4 462 4 521 c 3,0,1
EndSplineSet
Colour: 54abed
EndChar

StartChar: SmilingFaceWithHalo.0
Encoding: 71 -1 71
Width: 864
Flags: W
LayerCount: 2
Back
SplineSet
0 -432 m 1
 0 -670.586914062 193.413085938 -864 432 -864 c 1
 670.586914062 -864 864 -670.586914062 864 -432 c 1
 864 -193.413085938 670.586914062 0 432 0 c 1
 193.413085938 0 0 -193.413085938 0 -432 c 1
656.0390625 -543.095703125 m 1
 651.768554688 -539.231445312 645.384765625 -538.9921875 640.799804688 -542.400390625 c 1
 639.865234375 -543.095703125 546.672851562 -612 432 -612 c 1
 317.615234375 -612 224.111328125 -543.095703125 223.200195312 -542.400390625 c 1
 218.615234375 -538.9921875 212.231445312 -539.280273438 207.9609375 -543.095703125 c 1
 203.711914062 -546.935546875 202.752929688 -553.272460938 205.704101562 -558.168945312 c 1
 208.799804688 -563.327148438 282.912109375 -684 432 -684 c 1
 581.087890625 -684 655.223632812 -563.327148438 658.295898438 -558.168945312 c 1
 661.247070312 -553.247070312 660.311523438 -546.935546875 656.0390625 -543.095703125 c 1
624 -456 m 1
 613.943359375 -456 604.583984375 -449.638671875 601.247070312 -439.583984375 c 1
 596.376953125 -425.208007812 576.791992188 -384 552 -384 c 1
 526.51171875 -384 506.665039062 -427.846679688 502.752929688 -439.583984375 c 1
 498.552734375 -452.134765625 485.087890625 -458.9765625 472.392578125 -454.752929688 c 1
 459.838867188 -450.576171875 453.0234375 -436.9921875 457.223632812 -424.392578125 c 1
 460.247070312 -415.369140625 488.51953125 -336 552 -336 c 1
 615.48046875 -336 643.752929688 -415.369140625 646.752929688 -424.416015625 c 1
 650.953125 -436.9921875 644.161132812 -450.599609375 631.583984375 -454.776367188 c 1
 629.064453125 -455.591796875 626.49609375 -456 624 -456 c 1
384 -456 m 1
 373.943359375 -456 364.583984375 -449.638671875 361.223632812 -439.583984375 c 1
 356.353515625 -425.208007812 336.815429688 -384 312 -384 c 1
 286.51171875 -384 266.688476562 -427.846679688 262.776367188 -439.583984375 c 1
 258.576171875 -452.134765625 245.064453125 -458.9765625 232.416015625 -454.752929688 c 1
 219.838867188 -450.576171875 213.046875 -436.9921875 217.247070312 -424.392578125 c 1
 220.247070312 -415.369140625 248.51953125 -336 312 -336 c 1
 375.48046875 -336 403.752929688 -415.369140625 406.776367188 -424.416015625 c 1
 410.9765625 -436.9921875 404.184570312 -450.599609375 391.607421875 -454.776367188 c 1
 389.064453125 -455.591796875 386.49609375 -456 384 -456 c 1
796.200195312 -199.583984375 m 1
 796.200195312 -199.583984375 579.192382812 -203.447265625 432 -203.447265625 c 1
 338.280273438 -203.447265625 67.056640625 -200.615234375 67.056640625 -200.615234375 c 1
 54.552734375 -221.638671875 l 17
 127.583984375 -266.184570312 272.087890625 -291.646484375 432 -291.646484375 c 1
 590.303710938 -291.646484375 733.823242188 -266.688476562 807.646484375 -223.0078125 c 9
 809.51953125 -221.880859375 l 1
 809.51953125 -221.880859375 800.54296875 -205.943359375 796.200195312 -199.583984375 c 1
570.646484375 -8.2802734375 m 1
 541.560546875 -6.0234375 511.295898438 -4.46484375 480.095703125 -3.7197265625 c 1
 464.231445312 -3.3349609375 448.223632812 -3.095703125 432 -3.095703125 c 1
 415.873046875 -3.095703125 399.935546875 -3.3349609375 384.168945312 -3.6962890625 c 1
 352.919921875 -4.439453125 322.630859375 -6 293.51953125 -8.2568359375 c 1
 128.161132812 -21.119140625 4.056640625 -58.8232421875 4.056640625 -126.888671875 c 1
 4.056640625 -213 202.392578125 -265.392578125 432 -265.392578125 c 1
 661.607421875 -265.392578125 859.943359375 -213 859.943359375 -126.888671875 c 1
 859.943359375 -58.8466796875 735.912109375 -21.1689453125 570.646484375 -8.2802734375 c 1
432 -177.192382812 m 1
 267.334960938 -177.192382812 122.161132812 -157.200195312 122.161132812 -111.52734375 c 1
 122.161132812 -98.6650390625 134.015625 -86.9765625 154.295898438 -76.7529296875 c 1
 181.96875 -62.8076171875 225.768554688 -51.6962890625 278.831054688 -44.376953125 c 1
 324.696289062 -38.087890625 377.184570312 -34.53515625 432 -34.53515625 c 1
 486.984375 -34.53515625 539.638671875 -38.087890625 585.599609375 -44.447265625 c 1
 639.408203125 -51.888671875 683.665039062 -63.2392578125 711.168945312 -77.49609375 c 1
 730.53515625 -87.52734375 741.838867188 -98.953125 741.838867188 -111.52734375 c 1
 741.838867188 -157.200195312 596.665039062 -177.192382812 432 -177.192382812 c 1
585.599609375 -44.47265625 m 21
 639.408203125 -51.912109375 683.665039062 -63.2646484375 711.168945312 -77.51953125 c 13
 712.657226562 -77.927734375 l 5
 657.815429688 -37.7529296875 602.9765625 -16.48828125 570.646484375 -8.2802734375 c 5
 541.560546875 -6.0234375 511.295898438 -4.46484375 480.095703125 -3.7197265625 c 5
 480.52734375 -3.888671875 l 5
 585.599609375 -44.47265625 l 21
154.295898438 -76.7763671875 m 5
 181.96875 -62.8310546875 225.768554688 -51.7197265625 278.831054688 -44.400390625 c 13
 383.615234375 -3.888671875 l 5
 384.168945312 -3.6962890625 l 5
 352.919921875 -4.439453125 322.630859375 -6 293.51953125 -8.2568359375 c 5
 261.192382812 -16.46484375 206.327148438 -37.7041015625 151.46484375 -77.904296875 c 5
 154.295898438 -76.7763671875 l 5
683.327148438 -81 m 1
 667.48828125 -70.369140625 651.0234375 -59.1611328125 635.303710938 -50.7607421875 c 1
 574.727539062 -18.361328125 505.51171875 0 432 0 c 1
 361.704101562 0 295.319335938 -16.7998046875 236.638671875 -46.583984375 c 1
 210.50390625 -59.857421875 191.49609375 -70.560546875 184.560546875 -81 c 1
 683.327148438 -81 l 1
EndSplineSet
Fore
SplineSet
150 569 m 1,0,1
 150 612 150 612 278 638 c 1,2,3
 326 644 326 644 432 645 c 1,4,5
 538 644 538 644 586 638 c 1,6,7
 714 612 714 612 714 569 c 1,8,9
 639 609 639 609 432 614 c 1,10,11
 225 609 225 609 150 569 c 1,0,1
EndSplineSet
Colour: 3b87c2
EndChar

StartChar: mouth.melting
Encoding: 72 -1 72
Width: 864
Flags: W
LayerCount: 2
Back
SplineSet
185.470703125 -119.763671875 m 4
 167.374023438 -119.763671875 149.374023438 -117.890625 131.61328125 -114.147460938 c 4
 66.982421875 -100.443359375 11.541015625 -63.38671875 -20.498046875 -12.482421875 c 4
 -22.720703125 -8.845703125 -24 -4.5703125 -24 0 c 4
 -24 13.2470703125 -13.2470703125 24 0 24 c 4
 8.435546875 24 15.830078125 19.689453125 20.109375 13.1015625 c 4
 44.9013671875 -26.306640625 90.3095703125 -56.306640625 141.548828125 -67.1787109375 c 4
 183.958984375 -76.1787109375 249.716796875 -76.6103515625 322.413085938 -27.771484375 c 4
 326.236328125 -25.2021484375 330.833984375 -23.7021484375 335.782226562 -23.7021484375 c 4
 349.029296875 -23.7021484375 359.784179688 -34.4580078125 359.784179688 -47.705078125 c 4
 359.784179688 -56.005859375 355.610351562 -63.2998046875 349.197265625 -67.6103515625 c 4
 298.1015625 -101.9296875 241.462890625 -119.763671875 185.470703125 -119.763671875 c 4
EndSplineSet
Fore
SplineSet
240 192 m 1,0,1
 240 202 240 202 247 209 c 129,-1,2
 254 216 254 216 264 216 c 257,3,4
 277 216 277 216 285 204 c 1,5,6
 309 166 309 166 354.5 143 c 129,-1,7
 400 120 400 120 450 120 c 1,8,9
 520 120 520 120 586 164 c 1,10,11
 591 168 591 168 600 168 c 1,12,13
 610 168 610 168 617 161 c 129,-1,14
 624 154 624 154 624 144 c 1,15,16
 624 131 624 131 611 123 c 1,17,18
 533 72 533 72 450 72 c 1,19,20
 387 72 387 72 331 101 c 129,-1,21
 275 130 275 130 244 179 c 1,22,23
 240 185 240 185 240 192 c 1,0,1
EndSplineSet
EndChar

StartChar: FaceSavoringFood.1
Encoding: 73 -1 73
Width: 864
Flags: W
LayerCount: 2
Back
SplineSet
0 -432 m 0
 0 -670.586914062 193.413085938 -864 432 -864 c 0
 670.586914062 -864 864 -670.586914062 864 -432 c 0
 864 -193.413085938 670.586914062 0 432 0 c 0
 193.413085938 0 0 -193.413085938 0 -432 c 0
167.9765625 -408 m 0
 164.376953125 -408 160.704101562 -407.184570312 157.272460938 -405.48046875 c 0
 145.416015625 -399.552734375 140.615234375 -385.126953125 146.54296875 -373.272460938 c 0
 147.791992188 -370.752929688 178.176757812 -312 264 -312 c 0
 349.846679688 -312 380.208007812 -370.776367188 381.45703125 -373.272460938 c 0
 387.384765625 -385.126953125 382.560546875 -399.552734375 370.727539062 -405.48046875 c 0
 358.943359375 -411.408203125 344.688476562 -406.657226562 338.665039062 -395.015625 c 0
 337.607421875 -393.072265625 318.719726562 -360 264 -360 c 0
 208.392578125 -360 189.623046875 -394.392578125 189.45703125 -394.727539062 c 0
 185.256835938 -403.153320312 176.784179688 -408 167.9765625 -408 c 0
696 -408 m 0
 699.599609375 -408 703.272460938 -407.184570312 706.704101562 -405.48046875 c 0
 718.560546875 -399.552734375 723.361328125 -385.126953125 717.431640625 -373.272460938 c 0
 716.184570312 -370.752929688 685.799804688 -312 599.9765625 -312 c 0
 514.126953125 -312 483.768554688 -370.776367188 482.51953125 -373.272460938 c 0
 476.591796875 -385.126953125 481.416015625 -399.552734375 493.247070312 -405.48046875 c 0
 505.03125 -411.408203125 519.288085938 -406.657226562 525.311523438 -395.015625 c 0
 526.369140625 -393.072265625 545.256835938 -360 599.9765625 -360 c 0
 655.583984375 -360 674.353515625 -394.392578125 674.51953125 -394.727539062 c 0
 678.719726562 -403.153320312 687.192382812 -408 696 -408 c 0
708.072265625 -564.48046875 m 0
 715.823242188 -546.50390625 719.134765625 -534.311523438 719.256835938 -533.831054688 c 0
 722.47265625 -521.015625 714.696289062 -508.03125 701.857421875 -504.791992188 c 0
 688.9921875 -501.52734375 676.0078125 -509.303710938 672.696289062 -522.142578125 c 0
 670.919921875 -529.223632812 625.943359375 -696 432 -696 c 0
 238.056640625 -696 193.080078125 -529.223632812 191.280273438 -522.119140625 c 0
 187.96875 -509.303710938 174.984375 -501.52734375 162.119140625 -504.768554688 c 0
 149.303710938 -508.0078125 141.52734375 -520.9921875 144.719726562 -533.807617188 c 0
 145.247070312 -535.919921875 199.943359375 -744 432 -744 c 0
 471.599609375 -744 505.680664062 -737.615234375 535.560546875 -727.560546875 c 0
 639.48046875 -692.568359375 688.53515625 -609.719726562 708.072265625 -564.48046875 c 0
777.768554688 -640.342773438 m 2
 706.823242188 -567.119140625 l 1
 706.823242188 -567.119140625 690.50390625 -556.607421875 676.272460938 -580.752929688 c 0
 657.552734375 -612.48046875 626.47265625 -651.192382812 581.857421875 -680.857421875 c 0
 563.111328125 -693.311523438 530.51953125 -709.392578125 517.126953125 -712.48828125 c 0
 499.48828125 -716.54296875 507.815429688 -735.623046875 507.815429688 -735.623046875 c 1
 521.857421875 -732.576171875 533.0390625 -728.400390625 533.0390625 -728.400390625 c 1
 540.142578125 -735.50390625 l 1
 605.568359375 -800.927734375 l 2
 647.0390625 -842.400390625 725.568359375 -848.927734375 773.568359375 -800.927734375 c 0
 821.568359375 -752.927734375 819.264648438 -681.838867188 777.768554688 -640.342773438 c 2
717.9609375 -745.776367188 m 0
 723.072265625 -740.665039062 723.072265625 -732.384765625 717.9609375 -727.272460938 c 2
 630.865234375 -640.176757812 l 1
 611.760742188 -658.126953125 l 1
 699.431640625 -745.799804688 l 2
 704.54296875 -750.888671875 712.846679688 -750.888671875 717.9609375 -745.776367188 c 0
EndSplineSet
Fore
Refer: 7 -1 N 1 0 0 1 432 -72 0
Refer: 79 -1 N 1 0 0 1 600 312 0
Refer: 79 -1 N 1 0 0 1 264 312 0
Colour: 996633
EndChar

StartChar: FaceWithTongue.1
Encoding: 74 -1 74
Width: 864
Flags: W
LayerCount: 2
Back
SplineSet
864 -432 m 0
 864 -670.583984375 670.583984375 -864 432 -864 c 0
 193.439453125 -864 0 -670.583984375 0 -432 c 0
 0 -193.439453125 193.439453125 0 432 0 c 0
 670.583984375 0 864 -193.439453125 864 -432 c 1024
216 -348 m 0
 216 -394.392578125 242.864257812 -432 276 -432 c 0
 309.135742188 -432 336 -394.392578125 336 -348 c 0
 336 -301.607421875 309.135742188 -264 276 -264 c 0
 242.864257812 -264 216 -301.607421875 216 -348 c 0
528 -348 m 0
 528 -394.392578125 554.864257812 -432 588 -432 c 0
 621.135742188 -432 648 -394.392578125 648 -348 c 0
 648 -301.607421875 621.135742188 -264 588 -264 c 0
 554.864257812 -264 528 -301.607421875 528 -348 c 0
168 -510.288085938 m 1
 168 -605.423828125 278.303710938 -726.288085938 432 -726.288085938 c 0
 585.696289062 -726.288085938 696 -606.288085938 696 -510.288085938 c 1
 696 -510.288085938 448.0078125 -576.431640625 168 -510.288085938 c 1
445.080078125 -566.49609375 m 2
 418.896484375 -566.376953125 l 2
 341.711914062 -564.599609375 288 -552.072265625 288 -552.072265625 c 1
 288 -719.134765625 l 2
 288 -791.134765625 336 -863.134765625 432 -863.134765625 c 0
 528 -863.134765625 576 -791.134765625 576 -719.134765625 c 2
 576 -553.056640625 l 1
 529.873046875 -562.51171875 485.111328125 -566.064453125 445.080078125 -566.49609375 c 2
432 -764.231445312 m 0
 439.223632812 -764.231445312 445.080078125 -758.376953125 445.080078125 -751.153320312 c 2
 445.080078125 -566.49609375 l 1
 418.896484375 -566.376953125 l 1
 418.896484375 -751.153320312 l 2
 418.919921875 -758.376953125 424.776367188 -764.231445312 432 -764.231445312 c 0
EndSplineSet
Fore
Refer: 93 -1 S 1 0 0 1 0 48 2
Refer: 80 -1 N 1 0 0 1 432 -78 0
Colour: 996633
EndChar

StartChar: WinkingFaceWithTongue.3
Encoding: 75 -1 75
Width: 864
Flags: W
LayerCount: 2
Back
SplineSet
864 -432 m 0
 864 -670.583984375 670.583984375 -864 432 -864 c 0
 193.439453125 -864 0 -670.583984375 0 -432 c 0
 0 -193.439453125 193.439453125 0 432 0 c 0
 670.583984375 0 864 -193.439453125 864 -432 c 1024
370.96875 -379.560546875 m 0
 369.52734375 -376.319335938 334.9921875 -300.431640625 264 -300.431640625 c 0
 193.03125 -300.431640625 158.47265625 -376.319335938 157.03125 -379.560546875 c 0
 154.823242188 -384.52734375 156.264648438 -390.334960938 160.48828125 -393.743164062 c 0
 164.735351562 -397.176757812 170.735351562 -397.272460938 175.126953125 -394.080078125 c 0
 175.439453125 -393.865234375 205.416015625 -372.431640625 264 -372.431640625 c 0
 322.223632812 -372.431640625 352.176757812 -393.576171875 352.846679688 -394.056640625 c 0
 354.9609375 -395.638671875 357.48046875 -396.431640625 360 -396.431640625 c 0
 362.638671875 -396.431640625 365.303710938 -395.54296875 367.46484375 -393.815429688 c 0
 371.760742188 -390.408203125 373.176757812 -384.552734375 370.96875 -379.560546875 c 0
744 -324 m 0
 744 -410.161132812 674.161132812 -480 588 -480 c 0
 501.838867188 -480 432 -410.161132812 432 -324 c 0
 432 -237.838867188 501.838867188 -168 588 -168 c 0
 674.161132812 -168 744 -237.838867188 744 -324 c 0
528 -324 m 0
 528 -357.135742188 554.864257812 -384 588 -384 c 0
 621.135742188 -384 648 -357.135742188 648 -324 c 0
 648 -290.864257812 621.135742188 -264 588 -264 c 0
 554.864257812 -264 528 -290.864257812 528 -324 c 0
168 -510.288085938 m 1
 168 -605.423828125 278.303710938 -726.288085938 432 -726.288085938 c 0
 585.696289062 -726.288085938 696 -606.288085938 696 -510.288085938 c 1
 696 -510.288085938 448.0078125 -576.431640625 168 -510.288085938 c 1
445.080078125 -566.49609375 m 2
 418.896484375 -566.376953125 l 2
 341.711914062 -564.599609375 288 -552.072265625 288 -552.072265625 c 1
 288 -719.134765625 l 2
 288 -791.134765625 336 -863.134765625 432 -863.134765625 c 0
 528 -863.134765625 576 -791.134765625 576 -719.134765625 c 2
 576 -553.056640625 l 1
 529.873046875 -562.51171875 485.111328125 -566.064453125 445.080078125 -566.49609375 c 2
432 -764.231445312 m 0
 439.223632812 -764.231445312 445.080078125 -758.376953125 445.080078125 -751.153320312 c 2
 445.080078125 -566.49609375 l 1
 418.896484375 -566.376953125 l 1
 418.896484375 -751.153320312 l 2
 418.919921875 -758.376953125 424.776367188 -764.231445312 432 -764.231445312 c 0
EndSplineSet
Fore
Refer: 80 -1 N 1 0 0 1 432 -78 0
Refer: 14 -1 N -1 0 0 -1 264 348 0
Colour: 996633
EndChar

StartChar: ZanyFace.3
Encoding: 76 -1 76
Width: 864
Flags: W
LayerCount: 2
Back
SplineSet
854.327148438 -341.568359375 m 0
 904.319335938 -574.846679688 755.735351562 -804.50390625 522.45703125 -854.49609375 c 0
 289.176757812 -904.48828125 59.51953125 -755.904296875 9.52734375 -522.623046875 c 0
 -40.46484375 -289.342773438 108.142578125 -59.6884765625 341.400390625 -9.6962890625 c 0
 574.680664062 40.3193359375 804.334960938 -108.288085938 854.327148438 -341.568359375 c 1024
702.815429688 -216.288085938 m 0
 721.51171875 -303.552734375 665.927734375 -389.47265625 578.665039062 -408.168945312 c 0
 491.400390625 -426.865234375 405.48046875 -371.280273438 386.760742188 -284.015625 c 0
 368.064453125 -196.752929688 423.646484375 -110.831054688 510.912109375 -92.134765625 c 0
 598.176757812 -73.439453125 684.119140625 -129 702.815429688 -216.288085938 c 0
486.45703125 -222.984375 m 0
 486.45703125 -249.984375 508.342773438 -271.873046875 535.342773438 -271.873046875 c 0
 562.342773438 -271.873046875 584.231445312 -249.984375 584.231445312 -222.984375 c 0
 584.231445312 -195.984375 562.342773438 -174.095703125 535.342773438 -174.095703125 c 0
 508.342773438 -174.095703125 486.45703125 -195.984375 486.45703125 -222.984375 c 0
338.111328125 -342.768554688 m 0
 349.056640625 -393.791992188 316.53515625 -444.0234375 265.51171875 -454.96875 c 0
 214.48828125 -465.912109375 164.256835938 -433.392578125 153.311523438 -382.369140625 c 0
 142.369140625 -331.342773438 174.888671875 -281.111328125 225.912109375 -270.168945312 c 0
 276.935546875 -259.223632812 327.168945312 -291.743164062 338.111328125 -342.768554688 c 0
348.693359375 -270.48046875 m 0
 354.086914062 -295.650390625 378.865234375 -311.681640625 404.034179688 -306.288085938 c 0
 429.204101562 -300.895507812 445.235351562 -276.1171875 439.83984375 -250.947265625 c 0
 434.447265625 -225.778320312 409.670898438 -209.747070312 384.501953125 -215.142578125 c 0
 359.33203125 -220.53515625 343.30078125 -245.310546875 348.693359375 -270.48046875 c 0
447 -502.48828125 m 0
 361.96875 -520.704101562 303.45703125 -522.888671875 230.760742188 -524.280273438 c 0
 214.176757812 -524.638671875 183.838867188 -534.334960938 193.896484375 -581.280273438 c 0
 214.0078125 -675.142578125 346.9921875 -769.369140625 497.303710938 -737.161132812 c 0
 647.591796875 -704.953125 730.295898438 -564.50390625 710.184570312 -470.638671875 c 0
 700.126953125 -423.696289062 668.447265625 -427.247070312 653.184570312 -433.776367188 c 0
 586.319335938 -462.264648438 532.03125 -484.272460938 447 -502.48828125 c 0
264 -576.095703125 m 5
 264 -720.095703125 l 6
 264 -792.095703125 312 -864.095703125 408 -864.095703125 c 4
 504 -864.095703125 552 -792.095703125 552 -720.095703125 c 6
 552 -576.095703125 l 5
 264 -576.095703125 l 5
408 -765.192382812 m 4
 415.223632812 -765.192382812 421.080078125 -759.334960938 421.080078125 -752.111328125 c 6
 421.080078125 -601.03125 l 5
 394.896484375 -601.03125 l 5
 394.896484375 -752.111328125 l 6
 394.919921875 -759.334960938 400.776367188 -765.192382812 408 -765.192382812 c 4
240.815429688 -571.223632812 m 2
 240.815429688 -571.223632812 316.247070312 -579.599609375 457.056640625 -549.431640625 c 0
 597.865234375 -519.264648438 663.239257812 -480.696289062 663.239257812 -480.696289062 c 1
 663.239257812 -480.696289062 636.431640625 -584.615234375 472.153320312 -619.823242188 c 0
 307.873046875 -655.03125 240.815429688 -571.223632812 240.815429688 -571.223632812 c 2
EndSplineSet
Fore
Refer: 36 -1 N 0.977796 0.20955 -0.20955 0.977796 497 -89 0
Colour: 996633
EndChar

StartChar: SquintingFaceWithTongue.1
Encoding: 77 -1 77
Width: 864
Flags: W
LayerCount: 2
Back
SplineSet
864 -432 m 0
 864 -670.583984375 670.583984375 -864 432 -864 c 0
 193.439453125 -864 0 -670.583984375 0 -432 c 0
 0 -193.439453125 193.439453125 0 432 0 c 0
 670.583984375 0 864 -193.439453125 864 -432 c 1024
144.0234375 -480 m 0
 136.727539062 -480 129.52734375 -476.688476562 124.799804688 -470.400390625 c 0
 116.831054688 -459.815429688 118.9921875 -444.768554688 129.599609375 -436.823242188 c 0
 133.03125 -434.256835938 200.423828125 -384.431640625 294.142578125 -366.431640625 c 1
 234.743164062 -336.646484375 168.815429688 -336 167.9765625 -336 c 0
 154.727539062 -335.953125 144 -325.200195312 144.0234375 -311.953125 c 0
 144.0234375 -298.727539062 154.752929688 -288 168 -288 c 0
 173.303710938 -288 298.846679688 -288.912109375 376.96875 -367.03125 c 0
 383.831054688 -373.896484375 385.896484375 -384.215820312 382.176757812 -393.192382812 c 0
 378.45703125 -402.168945312 369.696289062 -408 360 -408 c 0
 249.288085938 -408 159.288085938 -474.52734375 158.400390625 -475.200195312 c 0
 154.080078125 -478.439453125 149.015625 -480 144.0234375 -480 c 0
719.9765625 -479.9765625 m 0
 714.984375 -479.9765625 709.943359375 -478.439453125 705.623046875 -475.223632812 c 0
 704.711914062 -474.52734375 614.161132812 -408 504 -408 c 0
 494.303710938 -408 485.51953125 -402.168945312 481.823242188 -393.192382812 c 0
 478.103515625 -384.215820312 480.168945312 -373.896484375 487.03125 -367.03125 c 0
 565.176757812 -288.912109375 690.696289062 -288 696 -288 c 0
 709.247070312 -288 719.953125 -298.727539062 719.9765625 -311.953125 c 0
 720 -325.200195312 709.272460938 -335.953125 696.046875 -336 c 0
 695.184570312 -336 629.256835938 -336.646484375 569.857421875 -366.431640625 c 1
 663.576171875 -384.431640625 730.96875 -434.231445312 734.376953125 -436.823242188 c 0
 744.9609375 -444.768554688 747.119140625 -459.768554688 739.200195312 -470.376953125 c 0
 734.49609375 -476.638671875 727.295898438 -479.9765625 719.9765625 -479.9765625 c 0
168 -510.311523438 m 1
 168 -605.447265625 278.303710938 -726.311523438 432 -726.311523438 c 0
 585.696289062 -726.311523438 696 -606.311523438 696 -510.311523438 c 1
 696 -510.311523438 448.0078125 -576.45703125 168 -510.311523438 c 1
445.080078125 -566.49609375 m 2
 418.896484375 -566.376953125 l 2
 341.711914062 -564.599609375 288 -552.072265625 288 -552.072265625 c 1
 288 -719.134765625 l 2
 288 -791.134765625 336 -863.134765625 432 -863.134765625 c 0
 528 -863.134765625 576 -791.134765625 576 -719.134765625 c 2
 576 -553.056640625 l 1
 529.873046875 -562.53515625 485.111328125 -566.087890625 445.080078125 -566.49609375 c 2
432 -764.256835938 m 0
 439.223632812 -764.256835938 445.080078125 -758.400390625 445.080078125 -751.176757812 c 2
 445.080078125 -566.51953125 l 1
 418.896484375 -566.400390625 l 1
 418.896484375 -751.176757812 l 2
 418.919921875 -758.400390625 424.776367188 -764.256835938 432 -764.256835938 c 0
EndSplineSet
Fore
Refer: 80 -1 N 1 0 0 1 432 -78 0
Refer: 35 -1 S -1 0 0 1 696 336 0
Refer: 35 -1 S 1 0 0 1 168 336 0
Colour: 996633
EndChar

StartChar: MoneyMouthFace.1
Encoding: 78 -1 78
Width: 864
Flags: W
LayerCount: 2
Back
SplineSet
864 -432 m 4
 864 -670.583984375 670.583984375 -864 432 -864 c 4
 193.439453125 -864 0 -670.583984375 0 -432 c 4
 0 -193.439453125 193.439453125 0 432 0 c 4
 670.583984375 0 864 -193.439453125 864 -432 c 1028
168 -510.311523438 m 1
 168 -605.447265625 278.303710938 -726.311523438 432 -726.311523438 c 0
 585.696289062 -726.311523438 696 -606.311523438 696 -510.311523438 c 1
 696 -510.311523438 448.0078125 -576.45703125 168 -510.311523438 c 1
288 -552.072265625 m 2
 288 -719.134765625 l 2
 288 -791.134765625 336 -863.134765625 432 -863.134765625 c 0
 528 -863.134765625 576 -791.134765625 576 -719.134765625 c 2
 576 -553.056640625 l 1
 425.015625 -584.064453125 288 -552.072265625 288 -552.072265625 c 2
294.815429688 -295.919921875 m 0
 276.672851562 -288.912109375 259.51171875 -282.288085938 259.51171875 -272.688476562 c 0
 259.51171875 -256.873046875 280.727539062 -256.056640625 284.9765625 -256.056640625 c 0
 299.9765625 -256.056640625 307.439453125 -261.672851562 314.015625 -266.638671875 c 0
 319.056640625 -270.45703125 324.288085938 -274.392578125 331.560546875 -274.392578125 c 0
 345.095703125 -274.392578125 351.264648438 -264.865234375 351.264648438 -256.0078125 c 0
 351.264648438 -238.342773438 329.615234375 -225.865234375 306.672851562 -220.630859375 c 2
 306.672851562 -211.200195312 l 2
 306.672851562 -198.768554688 296.568359375 -188.665039062 284.134765625 -188.665039062 c 0
 271.704101562 -188.665039062 261.599609375 -198.768554688 261.599609375 -211.200195312 c 2
 261.599609375 -221.423828125 l 2
 234.142578125 -229.416015625 217.319335938 -249.599609375 217.319335938 -275.064453125 c 0
 217.319335938 -306.52734375 248.353515625 -319.439453125 275.735351562 -330.815429688 c 0
 295.342773438 -338.9765625 313.873046875 -346.680664062 313.873046875 -358.704101562 c 0
 313.873046875 -367.48828125 302.831054688 -376.9921875 285 -376.9921875 c 0
 267 -376.9921875 256.680664062 -369.791992188 247.560546875 -363.45703125 c 0
 241.272460938 -359.064453125 235.319335938 -354.912109375 228.215820312 -354.912109375 c 0
 217.896484375 -354.912109375 209.831054688 -363.599609375 209.831054688 -374.688476562 c 0
 209.831054688 -390.984375 232.176757812 -407.231445312 261.599609375 -412.943359375 c 2
 261.599609375 -424.223632812 l 2
 261.599609375 -436.657226562 271.704101562 -446.735351562 284.134765625 -446.735351562 c 0
 296.568359375 -446.735351562 306.672851562 -436.630859375 306.672851562 -424.223632812 c 2
 306.552734375 -412.272460938 l 2
 337.657226562 -404.711914062 356.0390625 -382.943359375 356.0390625 -353.256835938 c 0
 356.064453125 -319.560546875 322.103515625 -306.45703125 294.815429688 -295.919921875 c 0
640.657226562 -353.665039062 m 0
 640.657226562 -319.96875 606.696289062 -306.865234375 579.408203125 -296.327148438 c 0
 561.264648438 -289.319335938 544.126953125 -282.696289062 544.126953125 -273.095703125 c 0
 544.126953125 -257.280273438 565.342773438 -256.46484375 569.591796875 -256.46484375 c 0
 584.591796875 -256.46484375 592.03125 -262.080078125 598.630859375 -267.046875 c 0
 603.696289062 -270.865234375 608.904296875 -274.799804688 616.153320312 -274.799804688 c 0
 629.711914062 -274.799804688 635.880859375 -265.272460938 635.880859375 -256.416015625 c 0
 635.880859375 -238.727539062 614.231445312 -226.272460938 591.288085938 -221.0390625 c 2
 591.288085938 -211.630859375 l 2
 591.288085938 -199.200195312 581.161132812 -189.095703125 568.752929688 -189.095703125 c 0
 556.319335938 -189.095703125 546.192382812 -199.200195312 546.192382812 -211.630859375 c 2
 546.192382812 -221.857421875 l 2
 518.760742188 -229.846679688 501.912109375 -250.03125 501.912109375 -275.49609375 c 0
 501.912109375 -306.9609375 532.943359375 -319.873046875 560.327148438 -331.247070312 c 0
 579.935546875 -339.408203125 598.46484375 -347.111328125 598.46484375 -359.134765625 c 0
 598.46484375 -367.919921875 587.447265625 -377.423828125 569.615234375 -377.423828125 c 0
 551.615234375 -377.423828125 541.295898438 -370.223632812 532.200195312 -363.888671875 c 0
 525.888671875 -359.49609375 519.935546875 -355.342773438 512.857421875 -355.342773438 c 0
 502.51171875 -355.342773438 494.447265625 -364.03125 494.447265625 -375.119140625 c 0
 494.447265625 -391.416015625 516.791992188 -407.665039062 546.192382812 -413.376953125 c 2
 546.192382812 -424.657226562 l 2
 546.192382812 -437.064453125 556.342773438 -447.168945312 568.776367188 -447.168945312 c 0
 581.208007812 -447.168945312 591.288085938 -437.064453125 591.288085938 -424.657226562 c 2
 591.215820312 -412.704101562 l 2
 622.295898438 -405.095703125 640.657226562 -383.353515625 640.657226562 -353.665039062 c 0
503.280273438 -745.657226562 m 0
 503.280273438 -712.823242188 470.184570312 -700.03125 443.591796875 -689.760742188 c 0
 425.904296875 -682.943359375 409.176757812 -676.46484375 409.176757812 -667.126953125 c 0
 409.176757812 -651.696289062 429.838867188 -650.927734375 433.9921875 -650.927734375 c 0
 448.607421875 -650.927734375 455.880859375 -656.423828125 462.311523438 -661.247070312 c 0
 467.231445312 -664.96875 472.342773438 -668.807617188 479.423828125 -668.807617188 c 0
 492.623046875 -668.807617188 498.646484375 -659.49609375 498.646484375 -650.880859375 c 0
 498.646484375 -633.672851562 477.552734375 -621.50390625 455.161132812 -616.392578125 c 2
 455.161132812 -607.200195312 l 2
 455.161132812 -595.080078125 445.295898438 -585.215820312 433.176757812 -585.215820312 c 0
 421.056640625 -585.215820312 411.192382812 -595.080078125 411.192382812 -607.200195312 c 2
 411.192382812 -617.161132812 l 2
 384.431640625 -624.935546875 368.015625 -644.638671875 368.015625 -669.45703125 c 0
 368.015625 -700.126953125 398.280273438 -712.727539062 424.96875 -723.815429688 c 0
 444.095703125 -731.760742188 462.142578125 -739.272460938 462.142578125 -750.984375 c 0
 462.142578125 -759.552734375 451.392578125 -768.815429688 433.9921875 -768.815429688 c 0
 416.447265625 -768.815429688 406.392578125 -761.807617188 397.51171875 -755.591796875 c 0
 391.392578125 -751.319335938 385.583984375 -747.264648438 378.672851562 -747.264648438 c 0
 368.615234375 -747.264648438 360.719726562 -755.760742188 360.719726562 -766.560546875 c 0
 360.719726562 -782.47265625 382.48828125 -798.288085938 411.168945312 -803.857421875 c 2
 411.168945312 -814.873046875 l 2
 411.168945312 -826.96875 421.03125 -836.807617188 433.176757812 -836.807617188 c 0
 445.295898438 -836.807617188 455.134765625 -826.96875 455.134765625 -814.873046875 c 2
 455.064453125 -803.208007812 l 2
 485.376953125 -795.791992188 503.280273438 -774.576171875 503.280273438 -745.657226562 c 0
EndSplineSet
Fore
Refer: 87 -1 N 0.25 0 0 0.25 569 201 0
Refer: 87 -1 N 0.25 0 0 0.25 284 201 0
Refer: 80 -1 N 1 0 0 1 432 -78 0
Colour: 996633
EndChar

StartChar: eye.smiling2
Encoding: 79 -1 79
Width: 0
GlyphClass: 5
Flags: W
LayerCount: 2
Back
SplineSet
-74.51953125 -58.7099609375 m 1
 -74.51953125 -58.7099609375 -74.515625 -58.7119140625 -74.5439453125 -58.7578125 c 0
 -78.455078125 -66.5888671875 -86.599609375 -72.0029296875 -95.998046875 -72.0029296875 c 0
 -109.245117188 -72.0029296875 -120 -61.248046875 -120 -48.0009765625 c 0
 -120 -44.15234375 -119.092773438 -40.515625 -117.48046875 -37.2900390625 c 4
 -116.953125 -36.2353515625 -114.794921875 -32.0966796875 -110.498046875 -26.3369140625 c 0
 -107.0625 -21.7314453125 -102.251953125 -16.0830078125 -95.8056640625 -10.22265625 c 0
 -87.751953125 -2.900390625 -77.12109375 4.748046875 -63.640625 10.931640625 c 0
 -54.28515625 15.224609375 -43.5771484375 18.7978515625 -31.51953125 21.109375 c 0
 -21.873046875 22.9580078125 -11.3681640625 24 0 24 c 0
 11.3681640625 24 21.873046875 22.9580078125 31.51953125 21.109375 c 0
 43.5771484375 18.7978515625 54.28515625 15.224609375 63.640625 10.931640625 c 0
 77.12109375 4.748046875 87.751953125 -2.900390625 95.8056640625 -10.22265625 c 0
 102.251953125 -16.0830078125 107.0625 -21.7314453125 110.498046875 -26.3369140625 c 0
 114.794921875 -32.0966796875 116.953125 -36.2353515625 117.48046875 -37.2900390625 c 0
 119.092773438 -40.515625 120 -44.15234375 120 -48.0009765625 c 0
 120 -61.248046875 109.245117188 -72.0029296875 95.998046875 -72.0029296875 c 0
 86.599609375 -72.0029296875 78.455078125 -66.5888671875 74.5439453125 -58.7578125 c 0
 74.515625 -58.7119140625 74.51953125 -58.7099609375 74.51953125 -58.7099609375 c 1
 74.6640625 -58.9931640625 l 1
 74.6640625 -58.9931640625 74.689453125 -59.0400390625 74.6796875 -59.021484375 c 0
 74.669921875 -59.0029296875 74.255859375 -58.240234375 73.4013671875 -56.9697265625 c 0
 72.6328125 -55.826171875 71.5078125 -54.271484375 70.0048828125 -52.470703125 c 0
 66.9560546875 -48.8193359375 62.373046875 -44.1796875 55.98046875 -39.7314453125 c 0
 49.5830078125 -35.28125 41.3642578125 -30.984375 30.71484375 -27.9814453125 c 0
 22.1923828125 -25.5791015625 12.0732421875 -24 0 -24 c 0
 -12.0732421875 -24 -22.1923828125 -25.5791015625 -30.71484375 -27.9814453125 c 0
 -41.3642578125 -30.984375 -49.5830078125 -35.28125 -55.98046875 -39.7314453125 c 0
 -62.373046875 -44.1796875 -66.9560546875 -48.8193359375 -70.0048828125 -52.470703125 c 0
 -71.5078125 -54.271484375 -72.6328125 -55.826171875 -73.4013671875 -56.9697265625 c 0
 -74.255859375 -58.240234375 -74.669921875 -59.0029296875 -74.6796875 -59.021484375 c 0
 -74.689453125 -59.0400390625 -74.6640625 -58.9931640625 -74.6640625 -58.9931640625 c 1
 -74.51953125 -58.7099609375 l 1
EndSplineSet
Fore
SplineSet
-120 -48 m 1,0,1
 -120 -40 -120 -40 -115 -33 c 1,2,3
 -112 -28 -112 -28 -108 -23 c 1,4,5
 -68 24 -68 24 0 24 c 129,-1,6
 68 24 68 24 108 -23 c 1,7,8
 112 -28 112 -28 115 -33 c 1,9,10
 120 -40 120 -40 120 -48 c 1,11,12
 120 -58 120 -58 113 -65 c 129,-1,13
 106 -72 106 -72 96 -72 c 257,14,15
 82 -72 82 -72 74 -58 c 257,16,17
 70 -52 70 -52 66 -48 c 1,18,19
 41 -24 41 -24 0 -24 c 129,-1,20
 -41 -24 -41 -24 -66 -48 c 1,21,22
 -70 -52 -70 -52 -74 -58 c 257,23,24
 -82 -72 -82 -72 -96 -72 c 257,25,26
 -106 -72 -106 -72 -113 -65 c 129,-1,27
 -120 -58 -120 -58 -120 -48 c 1,0,1
EndSplineSet
Colour: ff00ff
EndChar

StartChar: mouth.grinning3
Encoding: 80 -1 80
Width: 0
GlyphClass: 5
Flags: W
LayerCount: 2
Back
SplineSet
-264 216 m 1
 16.0078125 149.857421875 264 216 264 216 c 1
 264 120 153.696289062 0 0 0 c 0
 -153.696289062 0 -264 120.865234375 -264 216 c 1
EndSplineSet
Fore
SplineSet
-264 216 m 5,0,1
 -137 186 -137 186 1.5 186.5 c 133,-1,2
 140 187 140 187 264 216 c 5,3,4
 264 167 264 167 228.5 116 c 133,-1,5
 193 65 193 65 132 32.5 c 133,-1,6
 71 0 71 0 0 0 c 133,-1,7
 -71 0 -71 0 -132 32.5 c 133,-1,8
 -193 65 -193 65 -228.5 116 c 133,-1,9
 -264 167 -264 167 -264 216 c 5,0,1
EndSplineSet
Colour: ff00ff
EndChar

